<?xml version="1.0" encoding="UTF-8" standalone="no"?>
<svg xmlns="http://www.w3.org/2000/svg" viewBox="0 0 24 24">
<style>
	g path { stroke: none; }
	g.root { display: none; }
	g.root:target { display: inline; }
	g line { stroke: black; }
	g circle { stroke: black; }
	g polyline { stroke: black; }
</style>
<g class="root" id="1" data-name="1">
	<path d="M12 0C5.384 0 0 5.384 0 12s5.384 12 12 12s12-5.384 12-12S18.618 0 12 0zM12 23.338C5.75 23.338 0.665 18.253 0.665 12S5.75 0.665 12 0.665s11.335 5.085 11.335 11.335S18.253 23.338 12 23.338zM15.875 18.261c0 0.259-0.142 0.388-0.425 0.388H9.173c-0.284 0-0.425-0.129-0.425-0.388c0-0.246 0.142-0.368 0.425-0.368h2.829V5.98l-2.267 1.609c-0.155 0.104-0.297 0.122-0.425 0.058c-0.129-0.064-0.204-0.168-0.224-0.31c-0.02-0.142 0.055-0.27 0.224-0.388l2.674-1.919c0.155-0.104 0.304-0.155 0.445-0.155c0.104 0 0.193 0.035 0.27 0.106c0.078 0.071 0.115 0.177 0.115 0.319v12.592h2.634C15.733 17.894 15.875 18.018 15.875 18.261z" />
</g>
<g class="root" id="2" data-name="2">
	<path d="M12 0C5.384 0 0 5.384 0 12s5.384 12 12 12s12-5.384 12-12S18.618 0 12 0zM12 23.338C5.75 23.338 0.665 18.253 0.665 12S5.75 0.665 12 0.665s11.335 5.085 11.335 11.335S18.253 23.338 12 23.338zM16.593 18.261c0 0.259-0.142 0.388-0.425 0.388h-7.555c-0.168 0-0.297-0.044-0.388-0.135c-0.091-0.091-0.135-0.193-0.135-0.31c0-0.155 0.058-0.29 0.175-0.408l4.726-5.114c0.722-0.787 1.245-1.52 1.569-2.198c0.323-0.678 0.485-1.371 0.485-2.083c0-0.904-0.266-1.591-0.793-2.063c-0.53-0.472-1.312-0.707-2.344-0.707c-0.698 0-1.336 0.12-1.919 0.359c-0.581 0.239-1.13 0.585-1.646 1.037c-0.168 0.142-0.31 0.182-0.425 0.115c-0.115-0.064-0.184-0.175-0.204-0.33s0.029-0.29 0.146-0.408c0.479-0.452 1.075-0.826 1.792-1.123c0.716-0.297 1.469-0.445 2.258-0.445c1.265 0 2.247 0.31 2.945 0.931c0.698 0.62 1.046 1.491 1.046 2.614c0 0.826-0.199 1.637-0.6 2.431c-0.401 0.793-1.015 1.631-1.841 2.508L9.153 17.894h7.013C16.451 17.894 16.593 18.018 16.593 18.261z" />
</g>
<g class="root" id="3" data-name="3">
	<path d="M12 0C5.384 0 0 5.384 0 12s5.384 12 12 12s12-5.384 12-12S18.618 0 12 0zM12 23.338C5.75 23.338 0.665 18.253 0.665 12S5.75 0.665 12 0.665s11.335 5.085 11.335 11.335S18.253 23.338 12 23.338zM15.536 12.82c0.459 0.594 0.687 1.325 0.687 2.189c0 1.163-0.381 2.087-1.143 2.77c-0.762 0.685-1.808 1.026-3.14 1.026c-0.802 0-1.58-0.126-2.335-0.379c-0.756-0.253-1.411-0.623-1.968-1.114c-0.129-0.115-0.184-0.248-0.164-0.397c0.02-0.148 0.086-0.259 0.204-0.33c0.115-0.071 0.259-0.042 0.425 0.086c0.594 0.465 1.208 0.804 1.841 1.017c0.634 0.213 1.298 0.319 1.996 0.319c1.11 0 1.959-0.259 2.548-0.775c0.587-0.516 0.882-1.258 0.882-2.229c0-0.955-0.308-1.682-0.919-2.18c-0.614-0.496-1.509-0.747-2.683-0.747h-1.511c-0.284 0-0.425-0.129-0.425-0.388c0-0.246 0.142-0.368 0.425-0.368h1.473c0.995 0 1.788-0.277 2.382-0.833c0.594-0.556 0.891-1.305 0.891-2.247c0-0.84-0.268-1.484-0.804-1.936c-0.536-0.452-1.301-0.678-2.295-0.678c-0.671 0-1.307 0.113-1.908 0.339c-0.6 0.226-1.145 0.585-1.637 1.075c-0.155 0.155-0.297 0.206-0.425 0.155c-0.129-0.051-0.21-0.155-0.242-0.31c-0.033-0.155 0.029-0.31 0.184-0.465c0.49-0.503 1.095-0.895 1.812-1.172c0.716-0.277 1.456-0.417 2.218-0.417c1.241 0 2.209 0.301 2.907 0.902c0.698 0.6 1.046 1.438 1.046 2.508c0 0.789-0.204 1.478-0.609 2.074c-0.408 0.594-0.959 1.021-1.657 1.278C14.428 11.818 15.078 12.224 15.536 12.82z" />
</g>
<g class="root" id="4" data-name="4">
	<path d="M12 0C5.384 0 0 5.384 0 12s5.384 12 12 12s12-5.384 12-12S18.618 0 12 0zM12 23.338C5.75 23.338 0.665 18.253 0.665 12S5.75 0.665 12 0.665s11.335 5.085 11.335 11.335S18.253 23.338 12 23.338zM16.631 14.679h-1.841V5.302c0-0.142-0.038-0.248-0.115-0.319c-0.078-0.071-0.168-0.106-0.27-0.106c-0.206 0-0.368 0.091-0.485 0.27l-6.432 9.417C7.371 14.73 7.312 14.878 7.312 15.009c0 0.284 0.142 0.425 0.425 0.425h6.237v2.907c0 0.284 0.135 0.425 0.408 0.425c0.27 0 0.408-0.142 0.408-0.425V15.434h1.841c0.284 0 0.425-0.129 0.425-0.388C17.058 14.801 16.914 14.679 16.631 14.679zM13.976 14.679H8.32l5.657-8.233V14.679z" />
</g>
<g class="root" id="ants" data-name="Ants">
	<path d="M10.852 4.76c-0.46-0.513-0.419-1.195-0.213-1.543c0.09-0.152 0.284-0.203 0.437-0.113c0.152 0.09 0.203 0.284 0.113 0.437c-0.075 0.128-0.152 0.6 0.278 0.917c0.004 0.004 0.009 0.009 0.016 0.013c0.169-0.046 0.342-0.072 0.52-0.072c0.178 0 0.351 0.026 0.52 0.072c0.004-0.004 0.009-0.009 0.016-0.013c0.43-0.319 0.353-0.792 0.278-0.917c-0.09-0.152-0.04-0.348 0.113-0.437c0.152-0.09 0.348-0.04 0.437 0.113c0.205 0.348 0.247 1.027-0.213 1.543c0.608 0.404 1.095 1.127 1.347 2.059c0.134 0.503-0.046 1.019-0.476 1.347c-0.139 0.108-0.34 0.081-0.447-0.06c-0.108-0.139-0.081-0.34 0.06-0.447c0.108-0.081 0.346-0.313 0.247-0.677c-0.313-1.164-1.067-1.947-1.88-1.947c-0.811 0-1.568 0.783-1.88 1.947c-0.071 0.263 0.031 0.52 0.269 0.692c0.143 0.104 0.176 0.302 0.072 0.445c-0.062 0.086-0.16 0.132-0.26 0.132c-0.063 0-0.131-0.019-0.185-0.06c-0.457-0.328-0.653-0.855-0.513-1.376C9.757 5.887 10.243 5.163 10.852 4.76zM14.415 10.328c0 0.959-0.469 1.797-1.168 2.259c0.201 0.414 0.309 0.919 0.309 1.457c0 0.459-0.084 0.907-0.236 1.289c1.307 0.663 2.235 2.282 2.235 4.171c0 2.478-1.594 4.493-3.554 4.493c-1.959 0-3.554-2.015-3.554-4.493c0-1.889 0.926-3.508 2.235-4.171c-0.152-0.381-0.236-0.829-0.236-1.289c0-0.536 0.11-1.042 0.309-1.457c-0.698-0.463-1.168-1.303-1.168-2.259c0-1.457 1.083-2.644 2.414-2.644C13.333 7.686 14.415 8.872 14.415 10.328zM12 15.651c-1.607 0-2.914 1.728-2.914 3.855c0 2.125 1.307 3.855 2.914 3.855c1.607 0 2.914-1.728 2.914-3.855C14.917 17.381 13.608 15.651 12 15.651zM12.671 12.866c-0.213 0.069-0.439 0.106-0.67 0.106c-0.234 0-0.459-0.037-0.67-0.106c-0.157 0.328-0.245 0.745-0.245 1.18c0 0.384 0.069 0.751 0.192 1.06c0.234-0.062 0.476-0.095 0.723-0.095c0.247 0 0.489 0.034 0.723 0.095c0.123-0.309 0.192-0.677 0.192-1.06C12.917 13.609 12.829 13.193 12.671 12.866zM13.777 10.328c0-1.104-0.795-2.004-1.777-2.004s-1.777 0.899-1.777 2.004s0.795 2.004 1.777 2.004S13.777 11.436 13.777 10.328zM3.513 5.922L6.319 8.003c0.09 0.066 0.216 0.236 0.254 0.342l0.88 2.459c0.081 0.225 0.278 0.496 0.467 0.639l1.718 1.307c0.057 0.044 0.125 0.066 0.194 0.066c0.097 0 0.192-0.044 0.254-0.125c0.106-0.141 0.079-0.34-0.06-0.447l-1.718-1.307c-0.093-0.071-0.216-0.238-0.254-0.348l-0.88-2.459c-0.081-0.228-0.28-0.496-0.474-0.639l-2.806-2.081c-0.141-0.106-0.342-0.075-0.445 0.066C3.34 5.616 3.372 5.816 3.513 5.922zM1.921 17.547c0.034 0 0.066-0.004 0.099-0.016l2.213-0.723c0.207-0.069 0.487-0.225 0.654-0.363l2.935-2.476c0.075-0.062 0.249-0.123 0.346-0.119l1.651 0.055c0.176 0.004 0.325-0.132 0.331-0.309c0.007-0.176-0.132-0.325-0.309-0.331l-1.651-0.055c-0.254-0.009-0.584 0.106-0.78 0.272L4.476 15.954c-0.104 0.086-0.313 0.203-0.441 0.245L1.822 16.923c-0.168 0.055-0.26 0.236-0.205 0.401C1.661 17.461 1.787 17.547 1.921 17.547zM9.728 14.67L7.464 17.011c-0.166 0.172-0.322 0.466-0.369 0.701L6.518 20.545c-0.025 0.119-0.122 0.322-0.201 0.414l-2.123 2.515c-0.115 0.134-0.097 0.335 0.037 0.45c0.06 0.051 0.132 0.075 0.205 0.075c0.09 0 0.181-0.037 0.245-0.113l2.123-2.515c0.148-0.175 0.293-0.474 0.337-0.698l0.578-2.832c0.025-0.115 0.122-0.3 0.203-0.384l2.265-2.344c0.123-0.125 0.119-0.328-0.007-0.451C10.051 14.54 9.848 14.542 9.728 14.67zM9.399 5.607c0.062 0.063 0.146 0.097 0.229 0.097c0.079 0 0.16-0.031 0.222-0.09c0.125-0.123 0.131-0.325 0.007-0.451l-1.545-1.589c-0.042-0.044-0.072-0.163-0.055-0.222l0.866-2.941c0.051-0.169-0.046-0.346-0.216-0.397c-0.169-0.051-0.346 0.046-0.397 0.216l-0.866 2.941c-0.084 0.282 0.004 0.637 0.21 0.847L9.399 5.607zM15.695 10.935l-1.718 1.307c-0.141 0.106-0.168 0.307-0.06 0.447c0.062 0.081 0.159 0.125 0.254 0.125c0.069 0 0.134-0.022 0.194-0.066l1.718-1.307c0.19-0.146 0.388-0.414 0.469-0.639l0.88-2.459c0.037-0.106 0.163-0.275 0.254-0.342l2.809-2.081c0.141-0.106 0.172-0.304 0.066-0.445c-0.106-0.141-0.304-0.172-0.445-0.066l-2.809 2.081c-0.194 0.143-0.392 0.413-0.474 0.639l-0.877 2.459C15.909 10.694 15.786 10.865 15.695 10.935zM19.527 15.954L16.591 13.479c-0.196-0.166-0.522-0.278-0.78-0.272l-1.651 0.055c-0.176 0.007-0.313 0.154-0.309 0.331c0.007 0.176 0.152 0.31 0.331 0.309l1.651-0.055c0.099-0.002 0.272 0.057 0.346 0.119l2.935 2.476c0.166 0.141 0.447 0.298 0.654 0.363l2.213 0.723c0.034 0.011 0.066 0.016 0.099 0.016c0.134 0 0.26-0.086 0.304-0.22c0.055-0.168-0.037-0.348-0.205-0.404L19.966 16.201C19.838 16.16 19.628 16.043 19.527 15.954zM17.684 20.96c-0.079-0.093-0.176-0.295-0.201-0.414l-0.578-2.832c-0.049-0.234-0.203-0.529-0.369-0.701L14.273 14.67c-0.123-0.128-0.325-0.131-0.451-0.007c-0.125 0.123-0.131 0.325-0.007 0.451l2.265 2.344c0.081 0.084 0.178 0.272 0.203 0.384l0.578 2.832c0.046 0.225 0.192 0.525 0.337 0.698l2.123 2.515c0.063 0.075 0.154 0.113 0.245 0.113c0.072 0 0.146-0.025 0.205-0.075c0.134-0.115 0.152-0.316 0.037-0.45L17.684 20.96zM14.372 5.704c0.084 0 0.166-0.034 0.229-0.097l1.545-1.589c0.205-0.21 0.293-0.566 0.21-0.847L15.49 0.23c-0.051-0.169-0.228-0.266-0.397-0.216c-0.169 0.051-0.265 0.228-0.216 0.397l0.866 2.941c0.018 0.057-0.013 0.178-0.055 0.222l-1.545 1.589c-0.123 0.125-0.119 0.328 0.007 0.451C14.212 5.675 14.293 5.704 14.372 5.704zM9.961 17.75c-0.159-0.075-0.351-0.007-0.423 0.154c-0.075 0.159-0.007 0.351 0.154 0.423c0.642 0.3 1.462 0.463 2.31 0.463c0.84 0 1.653-0.16 2.291-0.457c0.16-0.072 0.229-0.263 0.157-0.423c-0.072-0.16-0.263-0.229-0.423-0.157c-0.556 0.256-1.274 0.397-2.024 0.397C11.244 18.153 10.519 18.009 9.961 17.75zM13.771 21.226c-0.516 0.238-1.127 0.363-1.77 0.363c-0.628 0-1.23-0.122-1.739-0.351c-0.16-0.072-0.351 0-0.422 0.16c-0.072 0.16 0 0.351 0.16 0.422c0.591 0.265 1.283 0.406 2.002 0.406c0.734 0 1.437-0.146 2.037-0.423c0.16-0.072 0.229-0.263 0.157-0.423C14.119 21.222 13.93 21.151 13.771 21.226z" />
</g>
<g class="root" id="arrow" data-name="Arrow">
	<path d="M12 0C5.384 0 0 5.384 0 12s5.384 12 12 12s12-5.384 12-12S18.618 0 12 0zM12 22.914C5.983 22.914 1.088 18.017 1.088 12S5.983 1.088 12 1.088s10.912 4.895 10.912 10.912S18.017 22.914 12 22.914zM12 8.613l7.312-2.387L12 19.142L4.688 6.226L12 8.613z" />
</g>
<g class="root" id="bed_bugs" data-name="Bed Bugs">
	<path d="M16.426 20.161c1.049-1.198 1.478-2.768 1.243-4.541c-0.281-2.112-1.049-4.872-2.358-6.737c-0.006-0.008-0.012-0.016-0.018-0.024c-0.332-0.47-0.7-0.884-1.104-1.214c-0.139-0.115-0.345-0.093-0.458 0.047c-0.115 0.139-0.093 0.345 0.047 0.458c0.345 0.282 0.663 0.633 0.954 1.034c1.263 3.752-0.222 5.345-0.92 5.856c-1.069 0.783-2.562 0.783-3.629-0.002c-0.696-0.512-2.17-2.104-0.905-5.846c0.284-0.397 0.597-0.746 0.934-1.026c0.139-0.115 0.157-0.321 0.042-0.46c-0.115-0.139-0.321-0.157-0.46-0.042C7.831 9.295 6.72 12.841 6.334 15.618c-0.244 1.763 0.178 3.328 1.22 4.526c1.061 1.218 2.723 1.946 4.446 1.946C13.739 22.092 15.351 21.387 16.426 20.161zM12.002 21.438c-1.537 0-3.016-0.644-3.955-1.723c-0.916-1.051-1.285-2.438-1.067-4.008c0.19-1.368 0.585-3.014 1.194-4.478c-0.16 1.884 0.395 3.431 1.622 4.333c0.647 0.476 1.424 0.714 2.201 0.714c0.775 0 1.551-0.238 2.199-0.712c1.239-0.908 1.798-2.469 1.631-4.372c0.62 1.475 1.013 3.135 1.196 4.512c0.21 1.581-0.165 2.973-1.088 4.026C14.998 20.801 13.527 21.438 12.002 21.438zM10.469 7.441c0 1.045 0.771 1.591 1.531 1.591c0.76 0 1.531-0.547 1.531-1.591c0-2.532-1.172-2.729-1.531-2.729C11.639 4.712 10.469 4.909 10.469 7.441zM12.878 7.441c0 0.65-0.442 0.94-0.878 0.94c-0.437 0-0.878-0.29-0.878-0.94c0-1.281 0.337-2.075 0.878-2.075C12.54 5.363 12.878 6.16 12.878 7.441zM17.422 4.508c0.378-1.233-0.343-2.421-0.69-2.993c-0.093-0.153-0.044-0.355 0.109-0.448c0.153-0.093 0.355-0.044 0.448 0.109c0.395 0.652 1.218 2.011 0.754 3.522c-0.363 1.186-1.454 2.204-3.242 3.026c-0.044 0.02-0.09 0.031-0.136 0.031c-0.123 0-0.242-0.071-0.297-0.19c-0.074-0.163-0.004-0.357 0.16-0.432C16.144 6.392 17.115 5.508 17.422 4.508zM19.85 8.022c0.549-0.607 0.779-1.412 0.679-2.388c-0.018-0.179 0.113-0.339 0.292-0.357c0.179-0.018 0.339 0.113 0.357 0.292c0.117 1.168-0.168 2.142-0.846 2.89c-1.013 1.12-2.769 1.515-3.968 1.515c-0.179 0-0.327-0.145-0.327-0.327c0-0.179 0.145-0.327 0.327-0.327C16.604 9.323 18.707 9.287 19.85 8.022zM21.64 13.454c0.714-0.145 1.305-0.571 1.759-1.265c0.098-0.152 0.3-0.192 0.452-0.095c0.152 0.098 0.194 0.3 0.095 0.452c-0.553 0.846-1.285 1.365-2.174 1.545c-0.24 0.048-0.483 0.071-0.725 0.071c-1.459 0-2.897-0.8-3.687-1.33c-0.149-0.101-0.19-0.303-0.089-0.452c0.101-0.149 0.303-0.19 0.452-0.089C18.558 12.853 20.181 13.751 21.64 13.454zM7.266 1.514c-0.347 0.571-1.067 1.761-0.69 2.993c0.307 1.001 1.279 1.884 2.89 2.626c0.163 0.074 0.236 0.268 0.16 0.432c-0.055 0.119-0.173 0.19-0.297 0.19c-0.047 0-0.093-0.01-0.136-0.031c-1.787-0.823-2.879-1.841-3.242-3.026c-0.464-1.51 0.359-2.868 0.754-3.522c0.093-0.153 0.295-0.203 0.448-0.109C7.31 1.162 7.359 1.361 7.266 1.514zM3.466 5.634c-0.098 0.978 0.131 1.782 0.679 2.388c1.144 1.265 3.248 1.301 3.484 1.301c0.179 0 0.327 0.145 0.327 0.327c0 0.179-0.145 0.327-0.327 0.327c-1.198 0-2.955-0.397-3.968-1.515c-0.678-0.75-0.962-1.723-0.846-2.89c0.018-0.179 0.178-0.308 0.357-0.292C3.353 5.295 3.484 5.454 3.466 5.634zM0.053 12.546c-0.098-0.152-0.056-0.353 0.095-0.452c0.152-0.098 0.353-0.056 0.452 0.095c0.453 0.694 1.047 1.12 1.759 1.265c1.459 0.297 3.082-0.601 3.921-1.162c0.149-0.101 0.353-0.061 0.452 0.089c0.101 0.149 0.061 0.353-0.089 0.452c-0.791 0.531-2.229 1.33-3.687 1.33c-0.242 0-0.484-0.023-0.725-0.071C1.338 13.91 0.607 13.391 0.053 12.546zM3.131 22.846c-0.107-0.145-0.074-0.349 0.071-0.456c1.053-0.768 1.938-2.376 2.309-4.197c0.036-0.176 0.208-0.29 0.386-0.254c0.176 0.036 0.29 0.208 0.254 0.386c-0.315 1.548-1.154 3.566-2.564 4.593c-0.058 0.042-0.125 0.063-0.192 0.063C3.292 22.979 3.194 22.933 3.131 22.846zM17.832 18.257c0-0.179 0.145-0.327 0.327-0.327c0.179 0 0.327 0.145 0.327 0.327c0 0.921 1.115 3.266 2.304 4.131c0.145 0.107 0.178 0.311 0.071 0.456c-0.065 0.087-0.163 0.133-0.265 0.133c-0.066 0-0.133-0.02-0.192-0.063C19.105 21.968 17.832 19.447 17.832 18.257z" />
</g>
<g class="root" id="bees" data-name="Bees">
	<path d="M6.959 18.032c-0.177-0.471-0.327-0.943-0.445-1.41h0.601c0.119 0 0.216-0.097 0.216-0.216v-0.163c0-0.119-0.097-0.216-0.216-0.216h-0.728c-0.182-1.025-0.131-2.093 0.14-3.096h9.558c0.119 0 0.216-0.097 0.216-0.216v-0.163c0-0.119-0.097-0.216-0.216-0.216H6.715c0.419-1.131 1.116-2.123 2.019-2.876h6.67c1.702 1.538 2.584 4.104 2.259 6.564h-8.93c-0.119 0-0.216 0.097-0.216 0.216v0.163c0 0.119 0.097 0.216 0.216 0.216h8.829c-0.209 0.979-0.63 2.071-1.187 3.096h-1.371c-0.119 0-0.216 0.097-0.216 0.216v0.163c0 0.119 0.097 0.216 0.216 0.216h1.027c-1.218 1.965-2.664 3.089-3.996 3.089c-1.36-0.007-2.804-1.131-3.983-3.089h5.226c0.119 0 0.216-0.097 0.216-0.216V19.935c0-0.119-0.097-0.216-0.216-0.216H7.718c-0.086-0.163-0.163-0.311-0.232-0.454c-0.052-0.106-0.177-0.149-0.285-0.099l-0.147 0.069c-0.111 0.052-0.156 0.182-0.104 0.29c0.722 1.488 2.491 4.463 5.098 4.476c2.899 0 5.522-4.311 6.128-7.402c0.33-1.695 0.099-3.556-0.631-5.155l1.299 0.839c0.052 0.033 0.085 0.108 0.08 0.189l-0.294 6.43c-0.009 0.214 0.062 0.426 0.199 0.581l0.552 0.63c0.078 0.091 0.216 0.099 0.304 0.019l0.121-0.106c0.091-0.078 0.099-0.216 0.019-0.304l-0.552-0.63c-0.036-0.042-0.054-0.099-0.052-0.163l0.294-6.43c0.013-0.292-0.121-0.566-0.353-0.714l-1.397-0.901c1.339-0.287 2.467-1.749 2.979-3.883c0.043-0.182 0.376-0.465 0.726-0.763c0.899-0.765 2.259-1.922 2.259-4.08c0-0.995-0.337-2.154-1.284-2.154c-0.884 0-2.008 0.986-3.434 2.236c-1.218 1.068-2.711 2.377-4.236 3.129l1.316-1.192c0.137-0.123 0.225-0.296 0.251-0.486l0.31-2.231c0.007-0.039 0.019-0.074 0.039-0.102l0.545-0.748c0.071-0.097 0.05-0.232-0.048-0.303l-0.131-0.095c-0.097-0.071-0.232-0.05-0.303 0.048l-0.545 0.748c-0.078 0.108-0.13 0.235-0.147 0.372l-0.31 2.233c-0.007 0.052-0.03 0.097-0.061 0.128l-1.489 1.349c-0.048-0.067-0.095-0.131-0.145-0.192l-0.088-0.111H10.282c-0.112-0.201-0.171-0.432-0.171-0.675c0-0.166 0.028-0.33 0.085-0.484l0.078-0.216l-0.19-0.13c-0.125-0.086-0.201-0.246-0.201-0.419c0-0.264 0.169-0.48 0.376-0.48c0.156 0 0.296 0.128 0.35 0.318l0.076 0.266l0.27-0.056c0.062-0.013 0.121-0.019 0.175-0.019h1.743c0.056 0 0.112 0.007 0.175 0.019l0.27 0.056l0.076-0.266c0.054-0.19 0.197-0.318 0.35-0.318c0.208 0 0.376 0.214 0.376 0.48c0 0.173-0.078 0.336-0.201 0.419l-0.19 0.13l0.078 0.216c0.056 0.154 0.085 0.316 0.085 0.484v0.082h0.595v-0.082c0-0.166-0.019-0.33-0.061-0.489c0.183-0.199 0.287-0.474 0.287-0.761c0-0.592-0.437-1.074-0.97-1.074c-0.337 0-0.649 0.192-0.823 0.509c-0.017 0-0.035 0-0.05 0h-0.056c-0.016-0.24 0.004-0.569 0.147-0.895c0.104-0.238 0.258-0.438 0.457-0.595c0.085-0.067 0.102-0.186 0.045-0.278l-0.086-0.138c-0.069-0.111-0.218-0.137-0.322-0.056c-0.278 0.218-0.493 0.497-0.638 0.83c-0.182 0.417-0.209 0.832-0.197 1.133h-0.438c0.013-0.298-0.016-0.714-0.197-1.133c-0.145-0.333-0.359-0.612-0.638-0.83c-0.102-0.08-0.253-0.056-0.322 0.056l-0.086 0.138c-0.056 0.091-0.039 0.212 0.045 0.278c0.199 0.157 0.35 0.356 0.457 0.595c0.143 0.327 0.16 0.656 0.147 0.895h-0.056c-0.017 0-0.033 0-0.05 0c-0.175-0.316-0.486-0.509-0.823-0.509c-0.536 0-0.97 0.483-0.97 1.074c0 0.287 0.104 0.562 0.287 0.761c-0.039 0.157-0.061 0.324-0.061 0.489c0 0.329 0.08 0.649 0.232 0.932l-1.437-1.302c-0.033-0.028-0.054-0.076-0.062-0.128L7.938 1.37c-0.019-0.137-0.069-0.264-0.147-0.372l-0.545-0.748c-0.071-0.097-0.206-0.117-0.303-0.048l-0.131 0.095c-0.097 0.071-0.117 0.206-0.048 0.303l0.545 0.748c0.019 0.028 0.035 0.065 0.039 0.104l0.31 2.231c0.026 0.19 0.117 0.363 0.251 0.486l1.316 1.194c-1.526-0.752-3.018-2.06-4.236-3.129C3.567 0.985 2.441-0.001 1.556-0.001C0.609-0.001 0.271 1.16 0.271 2.153c0 2.158 1.36 3.314 2.259 4.082c0.35 0.298 0.683 0.581 0.726 0.763C3.767 9.131 4.898 10.594 6.235 10.879l-1.397 0.901c-0.232 0.149-0.365 0.422-0.353 0.714l0.294 6.43c0.002 0.062-0.016 0.123-0.052 0.163l-0.552 0.63c-0.078 0.091-0.069 0.227 0.019 0.304l0.121 0.106c0.091 0.078 0.227 0.069 0.304-0.019l0.552-0.63c0.137-0.156 0.208-0.368 0.199-0.581l-0.294-6.43c-0.004-0.078 0.028-0.154 0.08-0.189l1.287-0.83c-0.778 1.6-0.976 3.421-0.552 5.162c0.13 0.536 0.301 1.085 0.506 1.633c0.043 0.112 0.171 0.169 0.284 0.125l0.151-0.059C6.946 18.267 7 18.144 6.959 18.032zM21.089 5.781c-0.463 0.396-0.83 0.707-0.918 1.077c-0.506 2.115-1.639 3.478-2.882 3.478c-0.121 0-0.249-0.016-0.394-0.048c-0.353-0.517-0.751-0.97-1.183-1.349l-0.085-0.074H15.45c-0.082-1.04-0.32-2.017-0.694-2.837c1.699-0.761 3.334-2.195 4.653-3.349c1.278-1.12 2.38-2.089 3.04-2.089c0.454 0 0.69 0.785 0.69 1.558C23.14 4.037 21.955 5.046 21.089 5.781L21.089 5.781zM14.853 8.869H9.152c0.082-0.996 0.316-1.922 0.679-2.683c0.061-0.125 0.125-0.251 0.201-0.381v0c0.093-0.16 0.189-0.304 0.285-0.434h3.371c0.097 0.13 0.19 0.272 0.285 0.434c0.076 0.13 0.143 0.255 0.201 0.381C14.537 6.944 14.774 7.871 14.853 8.869zM9.249 6.032c-0.374 0.82-0.612 1.797-0.694 2.837h-0.033l-0.082 0.065c-0.474 0.381-0.906 0.835-1.284 1.345c-0.163 0.039-0.307 0.059-0.441 0.059c-1.244 0-2.377-1.366-2.882-3.478c-0.088-0.37-0.454-0.682-0.918-1.077c-0.865-0.737-2.05-1.745-2.05-3.628c0-0.774 0.238-1.558 0.69-1.558c0.659 0 1.764 0.969 3.043 2.089C5.915 3.838 7.549 5.271 9.249 6.032zM21.142 5.844L21.142 5.844L21.142 5.844L21.142 5.844zM10.294 7.228v-1.414c0-0.119 0.097-0.216 0.216-0.216h0.163c0.119 0 0.216 0.097 0.216 0.216v1.414c0 0.119-0.097 0.216-0.216 0.216h-0.163C10.39 7.444 10.294 7.346 10.294 7.228zM10.294 8.082v-0.156c0-0.119 0.097-0.216 0.216-0.216h0.163c0.119 0 0.216 0.097 0.216 0.216v0.156c0 0.119-0.097 0.216-0.216 0.216h-0.163C10.39 8.298 10.294 8.2 10.294 8.082z" />
</g>
<g class="root" id="boundary" data-name="Boundary">
	<path d="M11.877 8.834c0.502 0 0.962 0.06 1.377 0.18c0.414 0.121 0.77 0.299 1.065 0.533c0.295 0.235 0.524 0.524 0.689 0.869c0.163 0.345 0.246 0.735 0.246 1.171c0 0.59-0.161 1.082-0.484 1.476c-0.323 0.394-0.768 0.7-1.336 0.918v0.066c0.623 0.163 1.14 0.464 1.549 0.902c0.411 0.438 0.616 1.001 0.616 1.688c0 0.48-0.095 0.907-0.288 1.28c-0.191 0.372-0.453 0.686-0.786 0.942c-0.334 0.257-0.72 0.453-1.164 0.59c-0.442 0.137-0.915 0.205-1.417 0.205c-0.852 0-1.564-0.143-2.132-0.427c-0.568-0.284-1.038-0.634-1.41-1.049l0.902-1.214c0.317 0.317 0.678 0.588 1.082 0.812c0.405 0.224 0.869 0.335 1.393 0.335c0.568 0 1.03-0.139 1.386-0.418c0.356-0.279 0.533-0.664 0.533-1.157c0-0.273-0.049-0.519-0.147-0.737c-0.099-0.218-0.266-0.405-0.5-0.557c-0.235-0.152-0.55-0.271-0.942-0.352c-0.392-0.082-0.885-0.123-1.476-0.123v-1.377c0.513 0 0.942-0.04 1.287-0.123c0.345-0.082 0.623-0.196 0.836-0.345c0.213-0.147 0.367-0.324 0.458-0.533c0.093-0.207 0.139-0.431 0.139-0.673c0-0.436-0.137-0.779-0.409-1.025c-0.273-0.246-0.651-0.368-1.131-0.368c-0.416 0-0.79 0.09-1.124 0.271c-0.334 0.18-0.658 0.418-0.975 0.713l-0.968-1.164c0.447-0.394 0.926-0.711 1.434-0.951C10.689 8.955 11.254 8.834 11.877 8.834zM23.353 12.649l-0.629-0.629v11.61H1.278V12.018L0.649 12.649L0 12l3.522-3.522V1.324h3.751V4.73L12 0l12 12L23.353 12.649zM4.438 7.562L6.356 5.646V2.24H4.438V7.562zM21.808 11.104l-9.808-9.808L2.194 11.102v11.611h19.613V11.104z" />
</g>
<g class="root" id="cockroaches" data-name="Cockroaches">
	<path d="M8.848 20.197c-0.113 0.045-0.167 0.176-0.118 0.289c0.193 0.441 0.405 0.84 0.634 1.191v0.048h0.033c0.225 0.34 0.466 0.636 0.716 0.879l-0.2 0.209l0.434 0.414l0.228-0.239c0.024 0.017 0.051 0.03 0.074 0.048l-0.313 0.562c-0.059 0.104-0.022 0.237 0.085 0.296l0.144 0.078c0.104 0.059 0.237 0.022 0.296-0.085l0.322-0.579c0.268 0.103 0.542 0.158 0.819 0.158c0.181 0 0.359-0.022 0.536-0.063l0.185 0.402c0.051 0.109 0.179 0.157 0.289 0.106l0.148-0.068c0.109-0.051 0.157-0.179 0.106-0.289l-0.167-0.366c0.035-0.017 0.07-0.035 0.104-0.054l0.422 0.318l0.359-0.479l-0.266-0.2c1.038-0.881 1.876-2.567 2.332-4.789c0.475-0.784 0.858-1.7 1.128-2.704l1.592 0.81c0.091 0.045 0.138 0.15 0.111 0.251l-1.444 5.373c-0.024 0.089 0.01 0.183 0.087 0.235l1.165 0.803c0.098 0.068 0.235 0.044 0.303-0.057l0.094-0.135c0.068-0.098 0.044-0.235-0.057-0.303l-0.817-0.564c-0.077-0.052-0.111-0.146-0.087-0.235l1.459-5.434c0.026-0.1-0.019-0.205-0.111-0.251l-2.151-1.095c0.141-0.655 0.237-1.341 0.28-2.046l2.29-0.704c0.07-0.022 0.146-0.007 0.202 0.042l1.959 1.63c0.091 0.077 0.231 0.065 0.307-0.028l0.104-0.126c0.077-0.091 0.065-0.228-0.028-0.307L20.225 11.316c-0.057-0.048-0.132-0.063-0.202-0.042l-2.399 0.736c0.002-0.083 0.002-0.165 0.002-0.248c0-1.276-0.167-2.508-0.492-3.662L19.733 5.268c0.061-0.065 0.155-0.087 0.237-0.057l0.923 0.353c0.113 0.044 0.237-0.013 0.28-0.126l0.059-0.152c0.044-0.113-0.013-0.237-0.126-0.28l-1.302-0.496c-0.083-0.033-0.179-0.009-0.237 0.057l-2.638 2.874c-0.019-0.054-0.039-0.111-0.061-0.172c-0.451-1.245-1.095-2.314-1.856-3.087l-0.016-0.016c-0.103-0.1-0.202-0.193-0.307-0.286l-0.085-0.074H9.412c-0.009-0.045-0.016-0.094-0.016-0.139c0-0.109 0.022-0.216 0.065-0.315l0.057-0.129l-0.065-0.126c-0.037-0.074-0.057-0.148-0.057-0.225c0-0.305 0.274-0.544 0.59-0.488c0.17 0.03 0.305 0.158 0.373 0.318l0.068 0.164h3.142l0.068-0.164c0.065-0.158 0.202-0.286 0.373-0.318c0.313-0.059 0.59 0.183 0.59 0.488c0 0.074-0.019 0.15-0.057 0.225l0.533 0.272c0.124-0.244 0.155-0.505 0.087-0.771c-0.106-0.414-0.455-0.738-0.875-0.805c-0.431-0.07-0.838 0.111-1.078 0.451c0.286-0.843 0.93-1.644 1.836-1.644c0.322 0 0.907 0.253 1.583 0.547c1.176 0.509 2.638 1.142 4.171 1.142c1.123 0 2.059-0.376 2.791-1.116c0.087-0.087 0.077-0.231-0.016-0.312l-0.126-0.113c-0.085-0.077-0.213-0.068-0.294 0.013c-0.618 0.625-1.391 0.93-2.355 0.93c-1.409 0-2.808-0.608-3.934-1.093C16.097 0.263 15.492 0 15.043 0c-1.284 0-2.158 1.141-2.466 2.264h-1.156C11.11 1.141 10.237 0 8.952 0c-0.446 0-1.054 0.263-1.82 0.594c-1.125 0.488-2.525 1.093-3.934 1.093c-0.965 0-1.737-0.305-2.355-0.93C0.763 0.679 0.635 0.671 0.55 0.747L0.438 0.843c-0.109 0.096-0.118 0.239-0.033 0.327c0.731 0.742 1.67 1.116 2.791 1.116c1.533 0 2.995-0.634 4.171-1.142c0.677-0.294 1.261-0.547 1.583-0.547c0.904 0 1.55 0.799 1.836 1.644C10.55 1.9 10.145 1.722 9.714 1.789c-0.374 0.059-0.695 0.324-0.836 0.675c-0.103 0.257-0.104 0.524-0.013 0.773c-0.044 0.138-0.068 0.28-0.068 0.427c0 0.15 0.028 0.298 0.077 0.441c-0.237 0.233-0.466 0.495-0.679 0.779c-0.544 0.727-0.986 1.593-1.324 2.577L4.211 4.563c-0.061-0.065-0.155-0.087-0.237-0.057l-1.302 0.496c-0.113 0.044-0.167 0.167-0.126 0.28l0.059 0.152c0.044 0.113 0.167 0.167 0.28 0.126l0.923-0.353c0.083-0.033 0.179-0.009 0.237 0.057l2.623 2.858c-0.32 1.148-0.483 2.37-0.483 3.635c0 0.087 0.002 0.172 0.004 0.259l-2.434-0.747c-0.07-0.022-0.146-0.007-0.202 0.042L1.344 13.153c-0.091 0.077-0.104 0.213-0.028 0.307l0.104 0.126c0.077 0.091 0.213 0.104 0.307 0.028l1.959-1.63c0.057-0.048 0.132-0.063 0.202-0.042l2.323 0.712c0.044 0.695 0.138 1.371 0.277 2.02l-2.179 1.11c-0.091 0.045-0.138 0.15-0.111 0.251l1.459 5.434c0.024 0.089-0.01 0.183-0.087 0.235l-0.817 0.564c-0.098 0.068-0.124 0.205-0.054 0.303l0.094 0.135c0.068 0.098 0.205 0.124 0.303 0.057l1.165-0.803c0.077-0.052 0.111-0.146 0.087-0.235L4.902 16.349c-0.026-0.1 0.019-0.205 0.111-0.251l1.618-0.823c0.292 1.09 0.721 2.09 1.273 2.941c0.655 1.01 1.465 1.761 2.342 2.175l0.225 0.106l0.146-0.202c0.098-0.135 0.19-0.279 0.279-0.425h1.888v-0.531c0.185 0.353 0.385 0.651 0.603 0.895l0.157 0.174l0.207-0.109c0.486-0.259 0.939-0.614 1.35-1.049c-0.228 0.723-0.503 1.354-0.81 1.876H13.367c-0.12 0-0.218 0.098-0.218 0.218v0.164c0 0.12 0.098 0.218 0.218 0.218h0.522c-0.566 0.736-1.215 1.148-1.891 1.148c-0.657 0-1.304-0.405-1.874-1.148h1.966c0.12 0 0.218-0.098 0.218-0.218v-0.164c0-0.12-0.098-0.218-0.218-0.218H9.726c-0.157-0.266-0.305-0.556-0.444-0.875c-0.048-0.109-0.172-0.164-0.283-0.118L8.848 20.197zM10.278 19.733c-0.69-0.385-1.337-1.021-1.872-1.844c-1.047-1.611-1.624-3.788-1.624-6.128c0-0.869 0.08-1.724 0.242-2.543c0.759 1.505 2.55 2.55 4.556 2.643l0 3.455C11.404 17.215 10.98 18.661 10.278 19.733zM11.218 19.272c0.32-0.67 0.566-1.437 0.738-2.318c0.222 0.945 0.483 1.711 0.792 2.318H11.218zM13.678 19.649c-0.651-0.855-1.134-2.368-1.479-4.625l-0.022-0.144l0-3.02c2.055-0.094 3.859-1.167 4.593-2.712c0.17 0.84 0.254 1.72 0.254 2.614C17.026 15.269 15.683 18.425 13.678 19.649zM14.177 4.404c0.15 0.068 0.294 0.141 0.428 0.219c0.044 0.045 0.087 0.094 0.131 0.141l0.085 0.094c0.024 0.026 0.051 0.054 0.074 0.083c0.051 0.059 0.098 0.122 0.146 0.185l0.077 0.098c0.022 0.026 0.044 0.052 0.063 0.08c0.07 0.096 0.135 0.196 0.202 0.296l0.033 0.045c0.013 0.017 0.024 0.035 0.035 0.052c0.087 0.138 0.17 0.279 0.251 0.425c0.01 0.022 0.022 0.044 0.033 0.065l0.028 0.054c0.059 0.109 0.115 0.218 0.17 0.333c0.016 0.035 0.033 0.07 0.048 0.104l0.059 0.131c0.037 0.08 0.071 0.161 0.106 0.244c0.017 0.042 0.033 0.085 0.051 0.126l0.054 0.139c0.03 0.078 0.061 0.155 0.089 0.235c0.017 0.048 0.033 0.096 0.048 0.144l0.045 0.138c0.022 0.068 0.045 0.135 0.065 0.205c-0.28 1.842-2.262 3.231-4.615 3.231c-2.286 0-4.258-1.341-4.598-3.124c0.017-0.063 0.037-0.124 0.057-0.185l0.051-0.158c0.017-0.057 0.035-0.111 0.052-0.165c0.026-0.074 0.052-0.144 0.078-0.216l0.059-0.157c0.019-0.052 0.037-0.103 0.059-0.152c0.028-0.07 0.059-0.139 0.089-0.207l0.065-0.148c0.022-0.048 0.042-0.096 0.063-0.144c0.033-0.068 0.068-0.135 0.1-0.2l0.071-0.144c0.022-0.044 0.044-0.085 0.065-0.126c0.037-0.07 0.078-0.138 0.118-0.202l0.077-0.126c0.022-0.037 0.044-0.074 0.065-0.109c0.045-0.071 0.094-0.139 0.141-0.209l0.078-0.113c0.019-0.028 0.039-0.059 0.059-0.087c0.061-0.083 0.124-0.158 0.187-0.237l0.061-0.077c0.017-0.022 0.033-0.044 0.051-0.063c0.103-0.12 0.207-0.235 0.312-0.34l0.037-0.035c0.096-0.052 0.196-0.1 0.305-0.15H14.177zM8.452 8.181l-0.148-0.068c-0.109-0.051-0.158-0.179-0.109-0.287l1.132-2.495c0.051-0.109 0.179-0.158 0.287-0.109l0.148 0.068c0.109 0.051 0.158 0.179 0.109 0.287l-1.132 2.495C8.689 8.183 8.561 8.231 8.452 8.181z" />
</g>
<g class="root" id="complete" data-name="complete">
	<path d="M12 0A12.013 12.013-4.991 0 0 0 12a12.013 12.013 0 0 0 12 12a12.013 12.013 0 0 0 12-12A12.013 12.013-4.991 0 0 12 0Zm6.654 9.555l-7.664 7.663a1.262 1.262 0 0 1-0.886 0.367v0.519l-0.011-0.519a1.262 1.262 0 0 1-0.89-0.383l-3.866-4.006a1.254 1.254 0 0 1 0.032-1.771a1.247 1.247 0 0 1 0.869-0.351a1.242 1.242 0 0 1 0.902 0.383l2.981 3.089L16.879 7.785a1.246 1.246 0 0 1 0.886-0.367a1.246 1.246 0 0 1 0.886 0.367a1.255 1.255 0 0 1 0 1.773Z" />
</g>
<g class="root" id="customized_treatment_pla" data-name="Customized Treatment Plans">
	<path d="M4.169 5.813h-0.556V1.262h3.421v1.527h-0.556V1.818H4.169V5.813zM12.832 18.828h-0.506v-0.556h0.506v-5.522h7.071v5.522h0.506v0.556h-0.506v0.326H12.832V18.828zM13.573 18.272h5.589v-4.781H13.573V18.272zM23.605 12.393l-0.952-0.952v11.998H10.607V13.568H4.169v9.871H1.345V11.439l-0.952 0.952L0 12L12 0l12 12L23.605 12.393zM22.099 10.884l-10.099-10.099L1.901 10.883v11.998h1.712V13.012h7.547v9.871h10.936V10.884zM7.72 19.325h1.44v-0.556h-1.44V19.325z" />
</g>
<g class="root" id="date" data-name="date">
	<path id="Path_166" class="cls-1" transform="translate(0 0)" d="M23.16 3.057a2.886 2.886 0 0 0-2.138-0.891H18.884V1.4A1.158 1.158 0 0 0 17.815 0.242H16.889a1.158 1.158 0 0 0-1.158 1.158v0.766H8.302V1.4A1.194 1.194 0 0 0 7.126 0.242H6.289a1.176 1.176 0 0 0-1.158 1.176v0.748H3.064A3.064 3.064 0 0 0 0 5.213H0v15.463A3.046 3.046 0 0 0 3.047 23.758H16.889a3.171 3.171 0 0 0 2.245-0.944l3.919-3.919a3.118 3.118 0 0 0 0.944-2.245V5.248A2.957 2.957 0 0 0 23.16 3.057ZM1.907 20.658V8.312H22.126V16.044H18.474a2.138 2.138 0 0 0-2.138 2.138h0v3.563H3.064A1.176 1.176 0 0 1 1.907 20.658Z" />
</g>
<g class="root" id="datetime" data-name="datetime">
	<path d="M19.06 1.412H17.648v-0.706a0.706 0.706 0 0 0-0.706-0.705a0.706 0.706 0 0 0-0.705 0.705v0.706H7.76v-0.706a0.706 0.706 0 0 0-0.705-0.705a0.706 0.706 0 0 0-0.706 0.705v0.706H4.941a4.234 4.234 0 0 0-4.235 4.235v14.118A4.234 4.234-19.81 0 0 4.941 24H19.06a4.234 4.234 0 0 0 4.235-4.235v-14.118A4.234 4.234-19.81 0 0 19.06 1.412ZM12.001 19.765a7.06 7.06 0 0 1-4.991-2.068a7.061 7.061 0 0 1-2.068-4.991a7.06 7.06 0 0 1 2.068-4.991a7.061 7.061 0 0 1 4.991-2.068a7.06 7.06 0 0 1 4.991 2.068a7.061 7.061 0 0 1 2.068 4.991a7.06 7.06 0 0 1-2.068 4.991A7.061 7.061-19.81 0 1 12.001 19.765Zm3.53-7.059a0.708 0.708 0 0 1-0.208 0.498a0.704 0.704 0 0 1-0.498 0.207H12.001a0.704 0.704 0 0 1-0.705-0.705v-3.53a0.705 0.705 0 0 1 0.705-0.705a0.705 0.705 0 0 1 0.705 0.705v2.824h2.118a0.705 0.705 0 0 1 0.706 0.705Z" />
</g>
<g class="root" id="globe" data-name="globe">
	<path d="M12 21.549a9.36 9.36 0 0 1-5.052-1.464l0.48-2.256a2.671 2.671 0 0 0-0.18-1.644l-0.732-1.584a0.587 0.587 0 0 0-0.456-0.336l-2.652-0.372a0.319 0.319 0 0 1-0.204-0.528l0.456-0.564a0.632 0.632 0 0 1 0.528-0.204l0.996 0.156a0.856 0.856 0 0 0 0.348-0.024l1.344-0.3a0.253 0.253 0 0 0 0.12-0.048l0.888-0.432a0.566 0.566 0 0 0 0.324-0.432l0.36-2.652a0.564 0.564 0 0 0-0.36-0.612l-0.456-0.168a0.6 0.6 0 0 1-0.396-0.528a0.586 0.586 0 0 1 0.528-0.612l0.66-0.048a0.583 0.583 0 0 0 0.528-0.612l-0.048-0.804l-0.084-1.596a0.536 0.536 0 0 0-0.372-0.504l-0.36-0.12a9.394 9.394 0 0 1 3.768-0.756a8.304 8.304 0 0 1 2.124 0.252l0.072 1.416v0.048l-0.18 1.764a0.258 0.258 0 0 0 0.048 0.18l0.204 0.3a0.253 0.253 0 0 0 0.384 0.048l0.528-0.48a0.277 0.277 0 0 1 0.432 0.132l0.024 0.072a0.24 0.24 0 0 0 0.228 0.18l0.6 0.024a0.161 0.161 0 0 0 0.108-0.024l0.504-0.204a0.246 0.246 0 0 1 0.324 0.324l-0.276 0.912a0.232 0.232 0 0 1-0.228 0.18l-0.672 0.024h-0.084l-0.852-0.252a0.454 0.454 0 0 0-0.18 0l-0.408 0.18a0.298 0.298 0 0 1-0.204 0l-0.528-0.252a0.258 0.258 0 0 0-0.228 0.024l-0.684 0.48a0.226 0.226 0 0 0-0.096 0.204l0.096 0.78a0.215 0.215 0 0 1-0.144 0.252l-0.504 0.228a0.26 0.26 0 0 0-0.084 0.408l0.36 0.324a0.346 0.346 0 0 0 0.228 0.072l0.648-0.144a0.329 0.329 0 0 1 0.156 0.024l0.3 0.12a5.488 5.488 0 0 1 0.48 0.36a0.272 0.272 0 0 0 0.384-0.048a0.34 0.34 0 0 1 0.18-0.132l0.504-0.048a0.208 0.208 0 0 0 0.144-0.072l0.06-0.06a0.24 0.24 0 0 1 0.396 0.108l0.252 0.708c0.024 0.024 0.024 0.048 0.048 0.072l0.288 0.384a0.274 0.274 0 0 1-0.024 0.348l-0.708 0.66a0.26 0.26 0 0 1-0.36 0l-0.684-0.636c-0.024-0.024-0.048-0.024-0.072-0.048l-0.96-0.408c-0.024 0-0.048-0.024-0.072-0.024l-1.272-0.12h-0.096l-1.056 0.3a1.015 1.015 0 0 0-0.708 0.684l-0.252 0.78a0.922 0.922 0 0 0 0.048 0.756l0.396 0.864a1.1 1.1 0 0 0 0.864 0.6l0.96 0.108c0.024 0 0.072 0.024 0.096 0.024l0.54 0.3a0.247 0.247 0 0 1 0.12 0.204l0.072 0.96a2.771 2.771 0 0 0 0.288 0.96l0.456 0.852a0.277 0.277 0 0 0 0.072 0.108l0.756 0.552a0.308 0.308 0 0 0 0.432-0.072l0.252-0.336c0.024-0.048 0.048-0.072 0.072-0.12l0.552-1.392a0.072 0.072 0 0 1 0.036-0.072l0.168-2.004c0-0.024 0.036-0.048 0.036-0.072l0.396-0.828a0.284 0.284 0 0 1 0.252-0.156l1.368 0.18a0.36 0.36 0 0 0 0.228-0.084l0.252-0.276a0.272 0.272 0 0 0 0.024-0.324l-0.66-0.864a0.275 0.275 0 0 1 0.156-0.408l0.252-0.048c0.048 0 0.432-0.024 0.552-0.048h0.048l0.612 0.096a0.264 0.264 0 0 1 0.252 0.288l-0.156 1.74a0.157 0.157 0 0 0 0.036 0.12l0.48 1.248a9.574 9.574 0 0 1-8.772 5.784h0Zm0-21.549a12 12 0 1 0 12 12A12 12-5645.373 0 0 12 0Z" />
</g>
<g class="root" id="home" data-name="home">
	<path style="stroke-width: 2;" d="M23.871 13.328l-11.548-11.974a0.437 0.437 0 0 0-0.32-0.137h0a0.443 0.443 0 0 0-0.328 0.133l-11.548 11.98a0.448 0.448 0 0 0 0.008 0.635a0.472 0.472 0 0 0 0.328 0.121a0.448 0.448 0 0 0 0.312-0.136l1.501-1.557V22.331a0.456 0.456 0 0 0 0.456 0.449h6.332a0.448 0.448 0 0 0 0.448-0.449V15.363h4.968v6.969a0.456 0.456 0 0 0 0.456 0.449h6.332a0.456 0.456 0 0 0 0.456-0.449V12.39l1.493 1.553a0.464 0.464 0 0 0 0.32 0.139h0.008a0.445 0.445 0 0 0 0.328-0.755h0Zm-8.935 1.137h-5.871a0.448 0.448 0 0 0-0.448 0.448v6.972h-5.439V11.452l8.816-9.151l8.824 9.151V21.883h-5.439v-6.972a0.448 0.448 0 0 0-0.448-0.448h0Z" />
</g>
<g class="root" id="inspection" data-name="Inspection">
	<path class="st0" d="M10.9 13.305h1.812v1.363H7.161V13.305h2.058V7.247H7.522v-1.044c0.463-0.088 0.862-0.191 1.196-0.311c0.334-0.12 0.645-0.267 0.935-0.442h1.246V13.305zM18.135 10.057c0.002 2.207-0.848 4.286-2.39 5.853c-1.552 1.58-3.615 2.45-5.81 2.45c-0.002 0-0.005 0-0.006 0c-2.165 0-4.207-0.849-5.751-2.394c-1.574-1.574-2.441-3.67-2.441-5.905c0-2.209 0.849-4.288 2.39-5.857c1.549-1.578 3.611-2.447 5.805-2.449c0.002 0 0.003 0 0.005 0c2.188 0 4.246 0.865 5.793 2.436C17.28 5.759 18.134 7.842 18.135 10.057zM17.325 10.057c-0.002-2.001-0.773-3.881-2.17-5.296c-1.395-1.416-3.248-2.194-5.218-2.194c-0.002 0-0.003 0-0.005 0c-1.974 0-3.831 0.784-5.226 2.206c-1.392 1.416-2.159 3.293-2.159 5.288c0 2.018 0.781 3.912 2.202 5.332c1.392 1.39 3.231 2.157 5.179 2.157c0.002 0 0.003 0 0.006 0c1.975 0 3.834-0.784 5.233-2.207l0 0C16.56 13.927 17.327 12.05 17.325 10.057zM23.256 23.428c-0.379 0.376-0.864 0.572-1.364 0.572c-0.256 0-0.514-0.052-0.765-0.157l-0.075-0.031l-4.499-4.559l1.019-1.032l-0.831-0.843c-1.852 1.77-4.257 2.742-6.806 2.742c-0.003 0-0.005 0-0.006 0c-2.646 0-5.139-1.047-7.017-2.949C1.036 15.269 0.002 12.744 0 10.062c0-2.674 1.027-5.195 2.896-7.1C4.774 1.052 7.271 0 9.926 0c0.003 0 0.008 0 0.011 0c2.646 0 5.139 1.047 7.019 2.948v0c1.878 1.901 2.912 4.426 2.912 7.111c0 2.51-0.906 4.884-2.56 6.738l0.836 0.848l1.019-1.032l4.505 4.565l0.031 0.075C24.01 22.015 23.841 22.849 23.256 23.428zM19.057 10.059c0-2.47-0.951-4.792-2.677-6.54v0C14.654 1.771 12.366 0.81 9.937 0.81c-0.003 0-0.006 0-0.011 0c-2.437 0-4.729 0.966-6.453 2.721C1.755 5.281 0.81 7.602 0.81 10.062c0.002 2.468 0.953 4.79 2.679 6.539c1.724 1.747 4.011 2.708 6.44 2.708c0.002 0 0.005 0 0.006 0c2.439 0 4.734-0.967 6.461-2.724C18.113 14.838 19.059 12.519 19.057 10.059zM18.281 19.848l1.468-1.488l-0.587-0.595l-1.468 1.488L18.281 19.848zM22.974 21.628l-2.656-2.69l-1.468 1.488l2.661 2.698c0.418 0.147 0.852 0.049 1.175-0.271C22.947 22.595 23.151 22.143 22.974 21.628z" />
</g>
<g class="root" id="location_pin" data-name="location-pin">
	<path d="M12.134 0.001a9.118 9.118 0 0 0-1.521 0.107a8.949 8.949 0 0 0-7.558 8.705C2.974 13.756 8.757 20.897 11.859 24c3.908-3.908 9.01-9.97 9.087-14.912l-5.109-0.08h0a3.959 3.959 0 0 1-1.395 2.187a3.959 3.959 0 0 1-2.451 0.852a3.959 3.959 0 0 1-2.792-1.161a3.959 3.959 0 0 1-1.154-2.795a3.959 3.959 0 0 1 1.16-2.792a3.959 3.959 0 0 1 2.795-1.154a3.959 3.959 0 0 1 2.793 1.16a3.952 3.952 0 0 1 1.154 2.795l-3.952 0l3.952 0h0a3.866 3.866 0 0 1-0.112 0.907l5.107 0.077a8.95 8.95 0 0 0-8.813-9.083Z" />
</g>
<g class="root" id="mosquitos" data-name="Mosquitos">
	<path d="M11.219 10.302v-0.367c0-0.115 0.093-0.208 0.208-0.208h0.156c0.115 0 0.208 0.093 0.208 0.208v0.367c0 0.115-0.093 0.208-0.208 0.208h-0.156C11.312 10.509 11.219 10.419 11.219 10.302zM11.427 9.231h0.156c0.115 0 0.208-0.093 0.208-0.208v-1.702c0-0.115-0.093-0.208-0.208-0.208h-0.156c-0.115 0-0.208 0.093-0.208 0.208v1.702C11.219 9.138 11.312 9.231 11.427 9.231zM11.07 21.347c0.095-0.056 0.214-0.027 0.278 0.062c0.17 0.247 0.4 0.481 0.657 0.481c0.209 0 0.442-0.174 0.66-0.494h-0.666c-0.115 0-0.208-0.093-0.208-0.208v-0.156c0-0.115 0.093-0.208 0.208-0.208h0.975c0.139-0.315 0.264-0.685 0.367-1.097H10.663c0.035 0.137 0.071 0.27 0.11 0.397c0.033 0.106-0.027 0.22-0.133 0.256l-0.148 0.05c-0.11 0.037-0.231-0.023-0.264-0.133c-0.256-0.84-0.421-1.855-0.481-2.951l-0.025-0.689c0-1.064 0.093-2.107 0.274-3.04l-0.901 1.224l0.423 6.093c0.012 0.173-0.04 0.344-0.143 0.483l-1.576 2.1c-0.068 0.091-0.199 0.11-0.291 0.042l-0.125-0.093c-0.091-0.068-0.11-0.199-0.042-0.291l1.576-2.1c0.021-0.029 0.033-0.065 0.029-0.1l-0.438-6.302l1.453-1.974l-1.639 1.36c-0.023 0.018-0.04 0.043-0.048 0.073l-2.218 7.342c-0.033 0.11-0.091 0.209-0.173 0.292L3.783 23.932c-0.079 0.083-0.212 0.085-0.292 0.004l-0.112-0.108c-0.083-0.079-0.085-0.212-0.004-0.292l2.104-2.173c0.012-0.021 0.023-0.04 0.035-0.06l2.218-7.342c0.042-0.137 0.12-0.256 0.231-0.347l0.635-0.527c-0.74 0.249-1.471 0.38-2.133 0.38C5.344 13.467 3.202 12.608 3.202 11.259c0-0.689 0.635-1.424 2.416-1.424c1.675 0 3.013 0.481 4.711 1.092l0.073 0.025c-0.217-0.541-0.334-1.175-0.334-1.844c0-0.455 0.056-0.898 0.164-1.32l-2.229-0.704c-0.307-0.098-0.513-0.386-0.505-0.707l0.104-3.911c0.002-0.073-0.048-0.134-0.118-0.151l-1.93-0.425c-0.112-0.025-0.183-0.134-0.158-0.247l0.033-0.151c0.025-0.112 0.134-0.183 0.247-0.158l1.93 0.425c0.339 0.075 0.574 0.378 0.566 0.724l-0.104 3.911c-0.002 0.066 0.042 0.126 0.106 0.148l2.235 0.706c0.125-0.307 0.281-0.573 0.461-0.789c-0.118-0.17-0.199-0.364-0.239-0.564c-0.101-0.035-0.191-0.091-0.264-0.164c-0.349-0.35-0.259-0.988 0.203-1.451c0.222-0.222 0.494-0.365 0.76-0.403c-0.125-0.166-0.256-0.317-0.388-0.455c-0.076-0.076-0.075-0.201-0.002-0.282l0.104-0.115c0.081-0.09 0.22-0.09 0.303-0.004c0.129 0.131 0.256 0.274 0.375 0.43L11.711 0.208c0-0.115 0.091-0.208 0.208-0.208l0.156 0c0.115 0 0.208 0.091 0.208 0.208l0.015 3.252c0.123-0.158 0.251-0.305 0.382-0.438c0.085-0.085 0.222-0.085 0.303 0.004l0.106 0.115c0.073 0.081 0.075 0.206-0.002 0.282c-0.134 0.137-0.266 0.291-0.39 0.457c0.264 0.042 0.53 0.183 0.745 0.4c0.463 0.463 0.552 1.1 0.203 1.451c-0.06 0.06-0.134 0.108-0.226 0.148l-0.073 0.032l-0.222-0.525l0.073-0.032c0.032-0.012 0.042-0.023 0.046-0.025c0.09-0.09 0.056-0.384-0.203-0.643c-0.257-0.257-0.555-0.292-0.643-0.203c-0.004 0.004-0.012 0.012-0.025 0.042l-0.076 0.166h-0.183c-0.051 0-0.104 0.004-0.156 0.012l-0.222 0.035l-0.087-0.208c-0.012-0.032-0.021-0.043-0.027-0.048c-0.09-0.09-0.384-0.054-0.643 0.203c-0.12 0.12-0.203 0.261-0.234 0.397c-0.025 0.108-0.012 0.201 0.032 0.247c0.027 0.027 0.071 0.042 0.129 0.043l0.266 0.008l0.01 0.266c0.008 0.226 0.1 0.44 0.257 0.604h1.519l0.085 0.087c0.222 0.231 0.411 0.535 0.563 0.909l2.223-0.701c0.065-0.021 0.106-0.081 0.106-0.148l-0.104-3.911c-0.008-0.344 0.228-0.649 0.566-0.724l1.93-0.425c0.112-0.025 0.222 0.046 0.247 0.158l0.033 0.151c0.025 0.112-0.046 0.222-0.158 0.247l-1.93 0.425c-0.071 0.015-0.12 0.079-0.118 0.151l0.104 3.911c0.008 0.32-0.199 0.61-0.505 0.707l-2.216 0.699c0.11 0.423 0.164 0.867 0.164 1.324c0 0.668-0.115 1.299-0.33 1.839l0.054-0.018c1.698-0.61 3.037-1.092 4.711-1.092c1.781 0 2.416 0.735 2.416 1.424c0 1.349-2.142 2.21-3.261 2.21c-0.662 0-1.393-0.131-2.133-0.38l0.635 0.527c0.11 0.091 0.189 0.209 0.231 0.347l2.218 7.342v0c0.007 0.023 0.018 0.043 0.035 0.06l2.104 2.173c0.079 0.083 0.076 0.214-0.004 0.292l-0.112 0.108c-0.083 0.079-0.214 0.076-0.292-0.004l-2.104-2.173c-0.079-0.083-0.139-0.183-0.173-0.292L15.719 14.125c-0.008-0.029-0.025-0.054-0.048-0.073l-1.639-1.36l1.453 1.974l-0.438 6.302c-0.002 0.035 0.008 0.073 0.029 0.101l1.576 2.1c0.068 0.091 0.05 0.222-0.042 0.291l-0.125 0.093c-0.091 0.068-0.222 0.05-0.291-0.042l-1.576-2.1c-0.104-0.139-0.154-0.309-0.143-0.483l0.423-6.093l-0.855-1.162c0.158 0.845 0.241 1.793 0.241 2.764c0 3.432-0.98 6.022-2.281 6.022c-0.292 0-0.718-0.133-1.133-0.737c-0.068-0.1-0.04-0.237 0.083-0.309L11.07 21.347zM10.135 11.462c-1.644-0.591-2.943-1.058-4.517-1.058c-1.121 0-1.844 0.334-1.844 0.853c0 0.845 1.677 1.639 2.69 1.639c1.219 0 2.748-0.523 3.936-1.341L10.135 11.462zM12.611 17.49c0.115 0 0.208 0.093 0.208 0.208v0.156c0 0.115-0.093 0.208-0.208 0.208H10.376c0.04 0.384 0.093 0.754 0.159 1.097h2.932c0.162-0.834 0.245-1.75 0.245-2.719l0-0.048H11.346c-0.115 0-0.208-0.093-0.208-0.208v-0.156c0-0.115 0.093-0.208 0.208-0.208h2.356c-0.015-0.375-0.042-0.745-0.081-1.097H10.406c-0.043 0.365-0.075 0.735-0.091 1.097h0.328V16.393h-0.104c-0.095 0.1-0.148 0.154-0.242 0.253l0.023 0.674c0.068 0.066 0.108 0.104 0.176 0.17H12.611zM12.856 11.182c0.328-0.525 0.515-1.278 0.515-2.075c0-0.921-0.256-1.795-0.668-2.291h-1.396c-0.413 0.496-0.671 1.37-0.671 2.291c0 0.797 0.187 1.551 0.516 2.075H12.856zM13.545 14.153c-0.154-0.996-0.398-1.822-0.712-2.401h-1.654c-0.291 0.546-0.535 1.395-0.696 2.401H13.545zM20.221 11.259c0-0.519-0.724-0.853-1.844-0.853c-1.576 0-2.874 0.467-4.517 1.058l-0.261 0.093c1.189 0.818 2.719 1.341 3.936 1.341C18.544 12.897 20.221 12.103 20.221 11.259z" />
</g>
<g class="root" id="nesting_sites" data-name="Nesting Sites">
	<path d="M22.618 8.625c0.188-0.4 0.285-0.821 0.285-1.252c0-1.65-1.342-2.995-2.995-2.995c-0.195 0-0.396 0.023-0.607 0.071c-0.593-1.449-1.996-2.402-3.583-2.402c-0.383 0-0.762 0.057-1.131 0.172C13.902 0.863 12.516 0 10.979 0C9.371 0 7.916 0.974 7.277 2.421c-0.473-0.408-1.07-0.634-1.702-0.634c-1.451 0-2.632 1.181-2.632 2.632c0 0.203 0.027 0.41 0.077 0.616c-1.03 0.417-1.793 1.336-2.004 2.433C0.377 7.945 0 8.688 0 9.488c0 1.39 1.131 2.521 2.521 2.521c0.609 0 1.187-0.218 1.646-0.616c0.029 0.002 0.057 0.004 0.086 0.004c0.415 0 0.825-0.082 1.223-0.243c0.35 0.214 0.741 0.327 1.145 0.327c1.028 0 1.897-0.704 2.138-1.679c0 0 0 0 0 0c0.754 0 1.468-0.255 2.044-0.727c0.58 0.741 1.455 1.175 2.404 1.175c0.614 0 1.206-0.184 1.719-0.536c0.178 0.038 0.358 0.063 0.534 0.075c0.245 1.344 1.397 2.329 2.785 2.329c0.559 0 1.091-0.163 1.558-0.475c0.389 0.44 0.947 0.695 1.545 0.695c1.143 0 2.075-0.93 2.075-2.075C23.428 9.62 23.125 9.017 22.618 8.625zM21.353 11.708c-0.494 0-0.951-0.251-1.217-0.674l-0.193-0.304l-0.274 0.23c-0.413 0.346-0.903 0.528-1.42 0.528c-1.154 0-2.098-0.873-2.197-2.031l-0.029-0.337l-0.316 0.05c-0.251 0-0.511-0.034-0.771-0.098l-0.144-0.036l-0.119 0.09c-0.431 0.325-0.936 0.496-1.462 0.496c-0.854 0-1.631-0.442-2.084-1.183l-0.211-0.348l-0.283 0.291c-0.498 0.511-1.162 0.792-1.872 0.792c-0.04 0-0.08-0.006-0.119-0.01c-0.038-0.004-0.075-0.01-0.115-0.013l-0.306-0.025l-0.031 0.306c-0.084 0.81-0.756 1.422-1.566 1.422c-0.331 0-0.653-0.107-0.93-0.308l-0.149-0.109l-0.168 0.077c-0.366 0.17-0.743 0.255-1.125 0.255c-0.023 0-0.046-0.004-0.069-0.008c-0.034-0.004-0.067-0.008-0.103-0.013l-0.14-0.01l-0.101 0.098c-0.356 0.35-0.825 0.54-1.321 0.54C1.478 11.381 0.628 10.531 0.628 9.488c0-0.634 0.318-1.225 0.85-1.577l0.117-0.077l0.021-0.138c0.153-1.022 0.892-1.87 1.885-2.163l0.325-0.096l-0.119-0.316c-0.088-0.237-0.134-0.473-0.134-0.702c0-1.106 0.898-2.004 2.004-2.004c0.616 0 1.189 0.285 1.577 0.781l0.377 0.486l0.172-0.591C8.123 1.642 9.471 0.628 10.979 0.628c1.382 0 2.62 0.825 3.154 2.105l0.119 0.285l0.287-0.113c0.381-0.151 0.779-0.226 1.181-0.226c1.413 0 2.655 0.905 3.089 2.249l0.096 0.297l0.297-0.094c0.264-0.084 0.49-0.121 0.708-0.121c1.305 0 2.366 1.062 2.366 2.366c0 0.415-0.113 0.819-0.337 1.198l-0.163 0.276l0.281 0.157c0.461 0.258 0.745 0.739 0.745 1.256C22.8 11.059 22.151 11.708 21.353 11.708zM16.166 11.639c-0.184-0.163-0.341-0.337-0.471-0.517l-0.209-0.293L13.088 13.075l-0.157-2.517l-0.249-0.04c-0.599-0.094-1.164-0.354-1.631-0.752l-0.475-0.404L10.261 14.189c-0.505-0.549-0.972-1.06-1.39-1.527c-0.209-0.237-0.419-0.469-0.624-0.697l-0.419-0.465l-0.207 0.09c-0.193 0.084-0.387 0.14-0.58 0.172l-0.498 0.082l0.614 0.859c0.197 0.276 0.402 0.563 0.605 0.848c1.009 1.418 1.991 2.854 2.268 3.26l0.057 0.084l-0.461 7.105l0.366-0.036c1.156-0.111 2.276-0.111 3.409-0.004l0.366 0.036l-0.528-8.46L16.396 11.844L16.166 11.639zM12.598 15.318l0.498 7.985c-0.932-0.069-1.849-0.069-2.796 0.002l0.431-6.672l-0.111-0.103c-0.015-0.015-0.031-0.025-0.044-0.036c-0.006-0.008-0.015-0.019-0.021-0.027l-0.008-0.013l0 0c-0.279-0.408-1.261-1.849-2.276-3.273c-0.205-0.285-0.408-0.57-0.605-0.846l-0.052-0.073c0.015-0.004 0.027-0.008 0.042-0.015l0.121 0.136c0.205 0.228 0.415 0.461 0.624 0.697c0.557 0.618 1.194 1.315 1.895 2.071l0.496 0.536l0.331-5.095c0.375 0.232 0.783 0.4 1.21 0.496l0.209 3.355l2.863-2.678c0.038 0.044 0.08 0.088 0.119 0.13L12.598 15.318z" />
</g>
<g class="root" id="new_1" data-name="New 1">
	<path d="M12 0C5.384 0 0 5.384 0 12s5.384 12 12 12s12-5.384 12-12S18.618 0 12 0zM12 22.914C5.983 22.914 1.088 18.017 1.088 12S5.983 1.088 12 1.088s10.912 4.895 10.912 10.912S18.017 22.914 12 22.914zM13.266 16.262h2.378v1.788H8.358v-1.788h2.702V8.31H8.835v-1.368c0.609-0.115 1.131-0.25 1.569-0.409c0.437-0.159 0.846-0.352 1.227-0.581h1.636V16.262z" />
</g>
<g class="root" id="new_2" data-name="New 2">
	<path d="M12 0C5.384 0 0 5.384 0 12s5.384 12 12 12s12-5.384 12-12S18.618 0 12 0zM12 22.914C5.983 22.914 1.088 18.017 1.088 12S5.983 1.088 12 1.088s10.912 4.895 10.912 10.912S18.017 22.914 12 22.914zM13.17 16.299h2.967v1.864h-8.18v-1.275c0.838-0.811 1.595-1.56 2.273-2.245c0.679-0.685 1.255-1.318 1.732-1.901c0.476-0.583 0.84-1.129 1.094-1.636c0.255-0.507 0.381-0.99 0.381-1.447c0-0.646-0.172-1.157-0.513-1.532c-0.342-0.374-0.838-0.561-1.484-0.561c-0.47 0-0.896 0.133-1.284 0.4c-0.387 0.265-0.746 0.583-1.075 0.951l-1.218-1.218c0.557-0.596 1.131-1.055 1.721-1.379c0.59-0.324 1.303-0.485 2.141-0.485c0.583 0 1.109 0.089 1.579 0.265c0.47 0.178 0.868 0.429 1.199 0.751c0.328 0.324 0.587 0.714 0.77 1.17c0.183 0.457 0.276 0.964 0.276 1.523c0 0.533-0.117 1.075-0.352 1.627c-0.235 0.553-0.553 1.109-0.951 1.675s-0.866 1.144-1.399 1.74c-0.533 0.596-1.096 1.212-1.693 1.845c0.318-0.026 0.659-0.054 1.027-0.085C12.55 16.316 12.879 16.299 13.17 16.299z" />
</g>
<g class="root" id="new_3" data-name="New 3">
	<path d="M12 0C5.384 0 0 5.384 0 12s5.384 12 12 12s12-5.384 12-12S18.618 0 12 0zM12 22.914C5.983 22.914 1.088 18.017 1.088 12S5.983 1.088 12 1.088s10.912 4.895 10.912 10.912S18.017 22.914 12 22.914zM15.463 12.818c0.476 0.507 0.714 1.16 0.714 1.96c0 0.559-0.111 1.053-0.333 1.484c-0.222 0.431-0.526 0.796-0.914 1.094c-0.387 0.298-0.838 0.526-1.351 0.685c-0.513 0.159-1.062 0.237-1.645 0.237c-0.99 0-1.814-0.165-2.474-0.494c-0.659-0.328-1.205-0.735-1.636-1.218l1.046-1.408c0.368 0.368 0.785 0.681 1.255 0.942c0.47 0.261 1.007 0.389 1.616 0.389c0.659 0 1.194-0.161 1.608-0.485c0.411-0.324 0.618-0.77 0.618-1.342c0-0.318-0.057-0.603-0.172-0.855c-0.113-0.255-0.307-0.47-0.581-0.646c-0.272-0.178-0.637-0.313-1.094-0.409s-1.027-0.144-1.712-0.144v-1.599c0.596 0 1.094-0.048 1.492-0.144s0.722-0.228 0.97-0.4s0.424-0.376 0.533-0.618c0.107-0.241 0.161-0.5 0.161-0.779c0-0.507-0.159-0.903-0.476-1.188s-0.755-0.429-1.312-0.429c-0.483 0-0.916 0.104-1.303 0.313c-0.387 0.209-0.764 0.485-1.131 0.827l-1.123-1.351c0.52-0.457 1.075-0.825 1.664-1.103c0.59-0.278 1.247-0.418 1.969-0.418c0.583 0 1.116 0.07 1.597 0.209c0.481 0.139 0.894 0.346 1.236 0.618c0.342 0.272 0.609 0.609 0.798 1.007c0.189 0.4 0.285 0.853 0.285 1.36c0 0.685-0.187 1.255-0.561 1.712c-0.374 0.457-0.892 0.811-1.551 1.066v0.076C14.389 11.963 14.987 12.311 15.463 12.818z" />
</g>
<g class="root" id="new_4" data-name="New 4">
	<path d="M12 0C5.384 0 0 5.384 0 12s5.384 12 12 12c6.618 0 12-5.384 12-12S18.618 0 12 0zM12 22.914C5.983 22.914 1.088 18.017 1.088 12S5.983 1.088 12 1.088s10.912 4.895 10.912 10.912S18.017 22.914 12 22.914zM14.939 5.952H12.333L7.54 13.447v1.484h5.345v3.12h2.054V14.93h1.523v-1.693h-1.523V5.952zM12.914 9.244c-0.02 0.483-0.028 0.901-0.028 1.255v2.739h-3.176l2.206-3.368c0.178-0.328 0.348-0.646 0.513-0.951c0.165-0.305 0.324-0.616 0.476-0.931h0.076C12.955 8.343 12.933 8.761 12.914 9.244z" />
</g>
<g class="root" id="phone" data-name="Phone">
	<path d="M21.594 17.916c-1.164-0.432-2.28-0.912-3.408-1.44-1.068-0.528-2.148-1.056-3.168-1.68l-1.776 3.216a23.269 23.269 0 0 1-7.092-9.924l3.456-0.72a42.32 42.32 0 0 1-0.888-7.368l-4.164 0.144l-2.148 0.048a26.015 26.015 0 0 0 17.088 23.808l0.708-2.064Z" />
</g>
<g class="root" id="rodents" data-name="Rodents">
	<path d="M7.978 3.21V3.048c0-0.119 0.097-0.216 0.216-0.216h0.431c0.119 0 0.216 0.097 0.216 0.216v0.163c0 0.119-0.097 0.216-0.216 0.216h-0.431C8.073 3.426 7.978 3.329 7.978 3.21zM10.053 3.048v0.163c0 0.119 0.097 0.216 0.216 0.216h0.431c0.119 0 0.216-0.097 0.216-0.216V3.048c0-0.119-0.097-0.216-0.216-0.216h-0.431C10.151 2.832 10.053 2.93 10.053 3.048zM19.673 7.474c-0.078-0.106-0.234-0.123-0.327-0.03c-0.474 0.477-0.588 1.232-0.253 1.847c1.546 2.837 1.596 6.194 0.131 8.986c-1.524 2.908-4.48 4.802-7.719 5.087c2.456-1.371 4.271-5.093 4.271-9.337c0-1.129-0.212-2.467-0.63-3.979c-0.033-0.117-0.154-0.183-0.268-0.151L14.719 9.946c-0.114 0.033-0.18 0.151-0.147 0.266c0.405 1.46 0.607 2.742 0.607 3.819c0 5.035-2.619 9.291-5.721 9.305l-0.059-0.007l0 0.007c-3.088-0.042-5.687-4.283-5.687-9.302c0-1.505 0.374-3.386 1.072-5.451c0.411 0.227 0.832 0.272 1.098 0.272c0.171 0 0.339-0.017 0.497-0.052c0.832-0.182 1.496-0.829 1.747-1.674c0.036-0.123-0.042-0.251-0.166-0.277l-0.16-0.033c-0.108-0.022-0.216 0.042-0.246 0.147c-0.19 0.638-0.685 1.12-1.302 1.254c-0.495 0.108-1.175 0-1.576-0.489c-0.489-0.595-0.333-1.462 0.022-2.013c0.441-0.692 1.348-1.036 2.25-0.855l0.08 0.016l0.117-0.584l-0.08-0.016c-0.138-0.028-0.277-0.045-0.415-0.054C7.781 2.071 8.912 0.595 9.448 0.595c0.4 0 1.475 1.27 2.718 3.626c-0.097 0.009-0.195 0.019-0.292 0.036l-0.08 0.016l0.106 0.586l0.08-0.016c0.906-0.166 1.806 0.192 2.236 0.893c0.344 0.558 0.486 1.427-0.013 2.013c-0.411 0.483-1.091 0.579-1.584 0.463c-0.614-0.145-1.1-0.638-1.28-1.278c-0.03-0.106-0.137-0.169-0.244-0.151l-0.16 0.028c-0.125 0.022-0.206 0.149-0.171 0.275c0.235 0.849 0.889 1.507 1.717 1.704c0.169 0.042 0.355 0.061 0.538 0.061c0.382 0 1.105-0.093 1.636-0.716c0.692-0.813 0.521-1.974 0.067-2.711c-0.398-0.647-1.094-1.068-1.879-1.183C11.761 2.143 10.345 0 9.448 0C8.48 0 7.054 2.149 5.991 4.257c-0.742 0.121-1.403 0.526-1.792 1.135c-0.465 0.728-0.657 1.887 0.022 2.711c0.033 0.039 0.067 0.078 0.102 0.114C3.545 10.456 3.119 12.51 3.119 14.03c0 5.354 2.887 9.879 6.307 9.896c0.402 0.048 0.813 0.074 1.218 0.074c3.797 0 7.371-2.138 9.106-5.447c1.555-2.967 1.505-6.534-0.137-9.547c-0.203-0.374-0.14-0.829 0.137-1.124c0.071-0.076 0.08-0.19 0.019-0.275L19.673 7.474zM6.067 9.849h-0.163c-0.119 0-0.216 0.097-0.216 0.216v1.427c0 0.119 0.097 0.216 0.216 0.216h0.163c0.119 0 0.216-0.097 0.216-0.216v-1.427C6.283 9.944 6.185 9.849 6.067 9.849zM5.904 13.185h0.163c0.119 0 0.216-0.097 0.216-0.216v-0.532c0-0.119-0.097-0.216-0.216-0.216h-0.163c-0.119 0-0.216 0.097-0.216 0.216v0.532C5.688 13.087 5.783 13.185 5.904 13.185z" />
</g>
<g class="root" id="savings" data-name="Savings">
	<path d="M4.513 11.42c0.164 0.093 0.335 0.188 0.511 0.297l-0.439 0.722c-0.166-0.102-0.33-0.192-0.485-0.28c-0.447-0.252-0.869-0.492-1.275-0.886l-0.093-0.09l-0.211-0.99l0.827-0.178l0.157 0.734C3.805 11.018 4.135 11.206 4.513 11.42zM0.625 12.78L0 13.35c0.29 0.316 0.601 0.615 0.926 0.886l0.542-0.651C1.171 13.339 0.888 13.068 0.625 12.78zM1.601 14.747c1.513 1.043 3.199 1.632 4.876 1.703l0.036-0.846c-1.518-0.064-3.052-0.601-4.432-1.553L1.601 14.747zM6.596 8.605c-0.128-0.2-0.266-0.401-0.409-0.608c-0.373-0.542-0.758-1.102-0.936-1.663l0.285-0.568c0.375-0.176 0.751-0.321 1.803-0.321v-0.846c-1.316 0-1.788 0.223-2.244 0.439l-0.183 0.088l-0.558 1.116l0.038 0.152c0.19 0.758 0.653 1.43 1.1 2.081c0.135 0.197 0.268 0.39 0.39 0.582L6.596 8.605zM10.507 4.442l0.306-0.226c0.202 0.055 0.335 0.1 0.499 0.154c0.143 0.048 0.309 0.102 0.558 0.178l0.247-0.81c-0.24-0.074-0.401-0.126-0.542-0.171c-0.228-0.076-0.399-0.131-0.746-0.221l-0.195-0.05l-0.838 0.618l-0.045 0.116c-0.204 0.542-0.299 1.128-0.299 1.841h0.846C10.303 5.313 10.37 4.855 10.507 4.442zM18.003 9.992c0.354 0.777 0.349 1.522 0.342 2.304l-0.002 0.344c0 0.39-0.045 0.781-0.131 1.159c-0.463 1.416-1.138 3.698-1.138 4.342v1.693c0.701 0 1.271 0.57 1.271 1.271v1.693h-0.846v-1.693c0-0.233-0.19-0.423-0.423-0.423H11.149c-0.233 0-0.423 0.19-0.423 0.423v1.693H9.88v-1.693c0-0.701 0.57-1.271 1.271-1.271v-0.482c0-0.109-0.038-0.211-0.107-0.278c-0.967-0.983-1.164-2.268-1.164-3.893c0-0.252-0.04-0.485-0.131-0.777l-0.112-0.361c-0.755 0.185-1.556 0.292-2.294 0.292c-2.867 0-5.387-1.104-7.092-3.111l-0.188-0.221l2.544-4.665c-0.164-0.549-0.28-1.114-0.337-1.693l-0.029-0.295l0.266-0.128c2.073-1.012 3.339-1.299 5.914-1.313c0.188-0.52 0.409-1.017 0.675-1.48L9.22 1.202l0.259 0.014c1.211 0.064 3.57 0.532 5.052 1.508c0.378-0.299 0.777-0.577 1.195-0.824l0.183-0.109l0.197 0.083C18.791 3.014 20.77 8.042 20.853 8.256l0.171 0.442l-0.458 0.121C19.628 9.063 18.777 9.455 18.003 9.992zM11.405 9.249c0.235 0.204 0.418 0.473 0.513 0.791l0.185 0.615l0 0l0.732 2.42c0.114 0.368 0.325 0.748 1.012 0.824c1.435-3.042 3.415-4.933 6.037-5.762c-0.511-1.176-2.062-4.432-3.916-5.391C13.628 4.202 11.982 6.551 11.405 9.249zM8.61 6.928c0 0.805 0.185 1.658 0.432 2.47c0.311-0.347 0.76-0.568 1.261-0.568c0.109 0 0.216 0.014 0.321 0.033c0.504-2.149 1.634-4.083 3.23-5.565C12.659 2.599 10.859 2.185 9.695 2.081C8.975 3.435 8.61 5.064 8.61 6.928zM3.142 4.85c0.437 3.197 2.743 5.933 5.79 6.942l-0.242-0.779c-0.007-0.026-0.012-0.05-0.017-0.076l0 0c-0.449-1.218-0.907-2.646-0.907-4.011c0-1.14 0.133-2.199 0.39-3.173C5.992 3.786 4.871 4.035 3.142 4.85zM9.384 13.234l-0.145-0.466c-2.803-0.727-5.109-2.772-6.246-5.372L1.083 10.89c1.539 1.677 3.748 2.596 6.258 2.596C7.999 13.486 8.707 13.396 9.384 13.234zM17.309 10.531c-1.116 0.967-2.047 2.285-2.812 3.976l-0.112 0.249h-0.273c-1.093 0-1.793-0.485-2.085-1.437l-0.551-1.824l0 0l-0.366-1.211c-0.109-0.361-0.432-0.606-0.805-0.606c-0.466 0-0.846 0.38-0.846 0.846c0 0.071 0.014 0.147 0.04 0.242l1.059 3.382c0.116 0.375 0.171 0.694 0.171 1.031c0 1.722 0.249 2.615 0.922 3.299c0.221 0.226 0.349 0.542 0.349 0.872v0.482h4.232v-1.693c0-0.986 1.05-4.206 1.169-4.57c0.062-0.28 0.1-0.606 0.1-0.931l0.002-0.352C17.504 11.629 17.507 11.078 17.309 10.531zM13.942 7.351c0.444-0.774 0.933-1.575 1.62-2.173l0.625-0.107c0.38 0.38 0.829 0.986 1.311 1.767v0.506c-0.544 0.387-1.425 1.055-2.244 1.867l0.596 0.601c0.874-0.865 1.824-1.56 2.313-1.9l0.183-0.126v-1.188l-0.062-0.102c-0.62-1.019-1.183-1.758-1.677-2.197l-0.152-0.135l-1.259 0.216l-0.088 0.071c-0.841 0.696-1.399 1.603-1.898 2.475L13.942 7.351zM23.686 8.439l-0.846 0.337l0.314 0.786l0.846-0.337L23.686 8.439zM20.302 9.793l0.314 0.786l1.693-0.677l-0.314-0.786L20.302 9.793zM13.687 8.833c-0.466 0-0.846 0.38-0.846 0.846c0 0.466 0.38 0.846 0.846 0.846s0.846-0.38 0.846-0.846C14.535 9.211 14.155 8.833 13.687 8.833z" />
</g>
<g class="root" id="savings_2" data-name="Savings 2">
	<path d="M9.742 21.031c-0.415 0-0.752-0.337-0.752-0.752s0.337-0.752 0.752-0.752s0.752 0.337 0.752 0.752S10.158 21.031 9.742 21.031zM15.763 19.527c-0.415 0-0.752 0.337-0.752 0.752s0.337 0.752 0.752 0.752c0.415 0 0.752-0.337 0.752-0.752S16.178 19.527 15.763 19.527zM12.753 21.826c-1.187 0-2.296 0.64-2.894 1.671c-0.094 0.161-0.038 0.364 0.123 0.457c0.054 0.031 0.112 0.045 0.167 0.045c0.116 0 0.228-0.06 0.29-0.167c0.478-0.826 1.366-1.339 2.314-1.339s1.836 0.513 2.314 1.339c0.094 0.161 0.297 0.214 0.457 0.123c0.161-0.094 0.214-0.297 0.123-0.457C15.049 22.466 13.94 21.826 12.753 21.826zM23.745 23.99c-0.027 0.007-0.054 0.009-0.078 0.009c-0.152 0-0.288-0.103-0.326-0.257c-0.179-0.743-0.627-1.966-1.073-2.874c-0.466 1.084-1.004 1.821-1.058 1.892c-0.065 0.089-0.167 0.134-0.268 0.134c-0.069 0-0.141-0.022-0.199-0.067c-0.147-0.109-0.179-0.319-0.069-0.469c0.029-0.038 2.787-3.816 1.018-6.915c-0.29-0.509-0.886-0.794-1.674-0.803c-0.011 0-0.022 0-0.033 0c-0.895 0-2.069 0.395-3.017 1.241c-0.018 0.02-0.038 0.038-0.06 0.054c-0.328 0.303-0.629 0.661-0.879 1.076c-0.096 0.158-0.301 0.21-0.46 0.114c-0.158-0.096-0.21-0.301-0.114-0.46c0.19-0.317 0.406-0.602 0.638-0.859c-1.018-0.306-2.075-0.462-3.151-0.462c-0.792 0-1.571 0.087-2.33 0.25c0 0 0 0-0.002 0c-0.415 0.089-0.826 0.203-1.227 0.341c0.19 0.223 0.366 0.464 0.524 0.73c0.096 0.158 0.045 0.364-0.114 0.46c-0.158 0.096-0.364 0.045-0.46-0.114c-0.223-0.37-0.486-0.694-0.774-0.975c-0.011-0.011-0.022-0.02-0.031-0.031c-0.971-0.933-2.214-1.366-3.151-1.366c-0.011 0-0.022 0-0.033 0c-0.788 0.009-1.383 0.295-1.674 0.803c-1.77 3.102 0.991 6.877 1.018 6.915c0.109 0.147 0.08 0.357-0.069 0.469c-0.06 0.045-0.129 0.067-0.199 0.067c-0.103 0-0.203-0.047-0.268-0.134c-0.042-0.058-0.413-0.562-0.801-1.341c-0.317 0.743-0.663 1.727-0.808 2.323c-0.038 0.154-0.174 0.257-0.326 0.257c-0.027 0-0.051-0.002-0.078-0.009c-0.181-0.042-0.29-0.223-0.248-0.404c0.192-0.801 0.712-2.211 1.093-2.981c-0.596-1.504-0.991-3.575 0.103-5.492c0.408-0.714 1.227-1.129 2.247-1.14c0.013 0 0.027 0 0.042 0c1.076 0 2.419 0.453 3.499 1.439c0.377-0.141 0.761-0.263 1.149-0.364c-0.158-0.368-0.241-0.763-0.241-1.165c0-0.091 0.007-0.183 0.016-0.277c-0.237-0.109-0.455-0.272-0.634-0.484L6.199 9.698c-1.37-0.067-3.079-1.018-3.843-3.006h-0.558v0.794c0 0.185-0.15 0.335-0.335 0.335H0.335c-0.185 0-0.335-0.15-0.335-0.335s0.15-0.335 0.335-0.335h0.794V0.669H0.335C0.15 0.669 0 0.52 0 0.335S0.15 0 0.335 0h1.129c0.185 0 0.335 0.15 0.335 0.335v0.417h9.651c0.683 0 1.341 0.324 1.756 0.866l2.885 3.751c0.245 0.319 0.382 0.719 0.382 1.122v4.945c0 0.643-0.366 1.201-0.919 1.473c0.107 0.306 0.167 0.631 0.167 0.973c0 0.37-0.071 0.739-0.208 1.082c0.377 0.085 0.752 0.192 1.12 0.315c1.053-0.895 2.325-1.308 3.349-1.308c0.013 0 0.029 0 0.042 0c1.022 0.011 1.841 0.426 2.247 1.14c0.962 1.685 0.772 3.488 0.308 4.92c0.565 0.977 1.183 2.615 1.41 3.555C24.035 23.767 23.923 23.948 23.745 23.99zM9.676 12.686c0.203 0.243 0.486 0.388 0.799 0.415c0.31 0.027 0.616-0.067 0.855-0.268c0.239-0.201 0.384-0.482 0.411-0.794c0.027-0.312-0.067-0.616-0.268-0.855l-2.734-3.102c-0.054-0.06-0.085-0.141-0.085-0.221v-1.506c0-0.6 0.489-1.087 1.087-1.087h2.258c0.103 0 0.199 0.047 0.261 0.125l1.506 1.881c0.047 0.06 0.074 0.134 0.074 0.21v3.637c0.591 0.234 1.091 0.654 1.426 1.185c0.326-0.163 0.54-0.493 0.54-0.872V6.491c0-0.257-0.087-0.511-0.243-0.714L12.677 2.026c-0.29-0.377-0.75-0.605-1.227-0.605H1.799v4.599h0.794c0.145 0 0.272 0.091 0.317 0.23c0.734 2.2 2.575 2.783 3.445 2.783c0.096 0 0.19 0.042 0.252 0.116L9.676 12.686zM12.143 10.979c0.201-0.042 0.404-0.065 0.609-0.065c0.143 0 0.281 0.013 0.417 0.033V7.603l-1.332-1.665h-2.098c-0.23 0-0.417 0.187-0.417 0.417v1.379l2.655 3.012C12.041 10.82 12.094 10.898 12.143 10.979zM12.94 14.676c0.64 0 1.274 0.054 1.899 0.156c0.136-0.299 0.212-0.623 0.212-0.951c0-1.267-1.031-2.298-2.298-2.298c-0.125 0-0.248 0.013-0.368 0.033c0.027 0.156 0.036 0.319 0.022 0.482c-0.042 0.491-0.272 0.935-0.649 1.25c-0.344 0.288-0.763 0.431-1.18 0.431c-0.04 0-0.078-0.004-0.118-0.007c-0.002 0.038-0.004 0.076-0.004 0.112c0 0.353 0.085 0.696 0.241 1.011C11.429 14.75 12.179 14.676 12.94 14.676z" />
</g>
<g class="root" id="search" data-name="search">
	<path d="M23.234 21.861L17.522 15.92c1.468-1.746 2.274-3.942 2.274-6.23c0-5.343-4.347-9.69-9.69-9.69s-9.69 4.347-9.69 9.69s4.347 9.69 9.69 9.69c2.006 0 3.918-0.604 5.552-1.754l5.756 5.986c0.24 0.25 0.564 0.387 0.91 0.387c0.328 0 0.639-0.126 0.876-0.352C23.7 23.164 23.716 22.364 23.234 21.861zM10.104 2.529c3.95 0 7.163 3.213 7.163 7.163s-3.213 7.163-7.163 7.163s-7.163-3.213-7.163-7.163S6.156 2.529 10.104 2.529z" />
</g>
<g class="root" id="spiders" data-name="Spiders">
	<path d="M10.876 14.377v1.409c0 0.12-0.098 0.218-0.218 0.218h-0.164c-0.12 0-0.218-0.098-0.218-0.218v-1.409c0-0.12 0.098-0.218 0.218-0.218h0.164C10.778 14.159 10.876 14.255 10.876 14.377zM10.495 17.29h0.164c0.12 0 0.218-0.098 0.218-0.218v-0.335c0-0.12-0.098-0.218-0.218-0.218h-0.164c-0.12 0-0.218 0.098-0.218 0.218v0.335C10.277 17.194 10.375 17.29 10.495 17.29zM8.778 16.698c0.115 0.035 0.181 0.157 0.146 0.272c-0.113 0.381-0.218 0.723-0.318 1.036c-0.042 0.132-0.077 0.274-0.103 0.44h6.982c-0.028-0.165-0.061-0.307-0.103-0.44c-0.257-0.805-0.492-1.615-0.721-2.396c-0.244-0.834-0.47-1.607-0.707-2.344c-1.324-0.004-2.612-0.004-3.934 0c-0.199 0.617-0.385 1.256-0.601 2.004c-0.033 0.115-0.155 0.183-0.27 0.15l-0.157-0.045c-0.115-0.033-0.183-0.157-0.148-0.272c0.218-0.753 0.418-1.437 0.627-2.081c-0.03-0.024-0.03-0.024-0.061-0.048l-3.02 1.757c-0.017 0.017-0.033 0.033-0.051 0.051l-1.715 3.165c-0.004 0.013-0.009 0.026-0.013 0.039l-0.486 2.741c-0.022 0.118-0.135 0.199-0.253 0.176l-0.161-0.028c-0.118-0.022-0.199-0.135-0.176-0.253l0.486-2.741c0.013-0.077 0.039-0.15 0.077-0.219l1.715-3.165c0.063-0.118 0.158-0.216 0.274-0.283l2.965-1.726c-0.176-0.28-0.315-0.583-0.416-0.901H6.405c-0.026 0-0.051 0.009-0.071 0.022l-2.321 1.563c-0.12 0.08-0.261 0.124-0.408 0.124H0.527c-0.12 0-0.218-0.098-0.218-0.218v-0.164c0-0.12 0.098-0.218 0.218-0.218h3.081c0.026 0 0.052-0.009 0.071-0.022l2.318-1.563c0.122-0.08 0.261-0.124 0.408-0.124h2.09c-0.037-0.253-0.052-0.512-0.042-0.773l-1.996-0.37c-0.253-0.045-0.462-0.225-0.55-0.463l-0.738-2.003c-0.01-0.026-0.028-0.051-0.052-0.065L2.29 5.559c-0.103-0.063-0.132-0.199-0.07-0.3l0.087-0.139c0.063-0.103 0.199-0.132 0.3-0.07l2.828 1.757c0.138 0.085 0.242 0.213 0.298 0.366l0.738 2.003c0.016 0.044 0.052 0.074 0.098 0.083l1.957 0.364c0.051-0.277 0.124-0.538 0.222-0.799c0.071-0.19 0.155-0.383 0.251-0.59l-1.796-1.72c-0.141-0.138-0.225-0.329-0.225-0.527V3.373c-0.004-0.019-0.009-0.039-0.016-0.061l-0.893-1.726c-0.054-0.106-0.013-0.237 0.094-0.294l0.146-0.077c0.106-0.054 0.237-0.013 0.294 0.094l0.893 1.726c0.054 0.104 0.083 0.218 0.083 0.335v2.614c0 0.035 0.016 0.07 0.039 0.094l1.665 1.595c0.179-0.32 0.383-0.644 0.611-0.968l-1.245-1.061c-0.226-0.192-0.313-0.498-0.219-0.782l0.86-2.63c0.002-0.017 0.004-0.033 0.007-0.051l-0.144-1.909C9.143 0.157 9.235 0.053 9.355 0.044l0.164-0.013c0.12-0.009 0.225 0.08 0.233 0.2l0.144 1.909c0.007 0.096-0.004 0.192-0.035 0.28l-0.86 2.63c-0.017 0.051 0 0.104 0.039 0.139l1.215 1.034c0.065-0.083 0.131-0.167 0.2-0.253l0-1.036c0-0.341 0.17-0.67 0.466-0.836c0.364-0.205 0.788-0.132 1.069 0.122c0.279-0.254 0.704-0.324 1.069-0.122c0.298 0.165 0.466 0.496 0.466 0.838l0 0.348h-0.599v-0.387c0-0.176-0.144-0.318-0.318-0.318s-0.318 0.144-0.318 0.318v0.695h-0.599v-0.695c0-0.176-0.144-0.318-0.318-0.318c-0.176 0-0.318 0.144-0.318 0.318v0.942h2.367l0.089 0.109c0.071 0.087 0.141 0.176 0.209 0.263l1.235-1.052c0.039-0.035 0.057-0.089 0.039-0.139l-0.86-2.63c-0.03-0.091-0.042-0.185-0.035-0.28l0.144-1.909c0.009-0.12 0.113-0.209 0.233-0.2l0.164 0.013c0.12 0.009 0.209 0.113 0.2 0.233L14.694 2.16c0.002 0.017 0.004 0.033 0.007 0.051l0.86 2.63c0.091 0.28 0.004 0.59-0.219 0.782l-1.264 1.078c0.228 0.324 0.435 0.651 0.614 0.968l1.685-1.613c0.026-0.024 0.039-0.059 0.039-0.094v-2.612c0-0.118 0.028-0.231 0.083-0.335l0.893-1.726c0.054-0.106 0.187-0.148 0.294-0.094l0.146 0.077c0.106 0.054 0.148 0.187 0.094 0.294l-0.893 1.726c-0.004 0.019-0.009 0.039-0.016 0.061v2.612c0 0.199-0.08 0.39-0.225 0.527l-1.813 1.74c0.098 0.209 0.181 0.405 0.254 0.599c0.096 0.253 0.167 0.507 0.218 0.775l1.975-0.367c0.045-0.009 0.083-0.039 0.098-0.083l0.738-2.003c0.057-0.152 0.161-0.28 0.298-0.366l2.828-1.757c0.103-0.063 0.237-0.033 0.3 0.07l0.087 0.139c0.063 0.103 0.033 0.237-0.07 0.3l-2.828 1.757c-0.024 0.016-0.044 0.037-0.052 0.065l-0.738 2.003c-0.087 0.239-0.298 0.418-0.55 0.463l-2.011 0.374c0.013 0.259 0 0.518-0.035 0.768h2.1c0.146 0 0.287 0.044 0.408 0.124l2.321 1.563c0.022 0.016 0.045 0.022 0.071 0.022h3.081c0.12 0 0.218 0.098 0.218 0.218v0.164c0 0.12-0.098 0.218-0.218 0.218H20.382c-0.146 0-0.287-0.044-0.408-0.124l-2.321-1.563c-0.022-0.016-0.048-0.022-0.071-0.022H15.347c-0.098 0.318-0.235 0.62-0.409 0.904l2.965 1.724c0.115 0.068 0.211 0.165 0.274 0.283l1.715 3.165c0.037 0.07 0.063 0.144 0.077 0.219l0.486 2.741c0.022 0.118-0.059 0.231-0.176 0.253l-0.161 0.028c-0.118 0.022-0.231-0.059-0.253-0.176L19.379 17.96c-0.004-0.013-0.009-0.026-0.013-0.039l-1.715-3.165c-0.017-0.017-0.033-0.033-0.051-0.051l-3.015-1.755c-0.042 0.033-0.042 0.033-0.085 0.068c0.257 0.788 0.498 1.62 0.733 2.422c0.216 0.738 0.46 1.576 0.716 2.384c0.381 1.197 0.17 2.471-0.579 3.496c-0.557 0.762-1.332 1.296-2.242 1.543v0.919c0 0.12-0.098 0.218-0.218 0.218h-0.164c-0.12 0-0.218-0.098-0.218-0.218v-0.801c-0.364 0.045-0.707 0.045-1.071 0v0.775c0 0.12-0.098 0.218-0.218 0.218h-0.164c-0.12 0-0.218-0.098-0.218-0.218v-0.893c-0.914-0.246-1.689-0.779-2.248-1.546c-0.749-1.023-0.96-2.297-0.579-3.496c0.098-0.312 0.202-0.649 0.315-1.026c0.035-0.115 0.155-0.183 0.27-0.148L8.778 16.698zM11.662 10.929l-2.107-2.471c-0.094 0.196-0.176 0.39-0.246 0.576c-0.496 1.315-0.263 2.672 0.627 3.633c0.69-0.002 1.371-0.004 2.051-0.004c0.681 0 1.36 0.002 2.051 0.004c0.893-0.96 1.128-2.316 0.629-3.633c-0.094-0.246-0.207-0.503-0.338-0.762l-0.344 0.392c-0.078 0.089-0.218 0.1-0.307 0.019l-0.122-0.109c-0.089-0.078-0.1-0.218-0.019-0.307l0.488-0.556c-0.253-0.422-0.544-0.838-0.89-1.271H10.846c-0.392 0.488-0.716 0.96-0.991 1.444l1.816 2.129c0.087 0.1 0.242 0.103 0.329 0.002l0.521-0.592c0.078-0.089 0.218-0.1 0.307-0.019l0.122 0.109c0.089 0.078 0.1 0.218 0.019 0.307l-0.975 1.11C11.904 11.031 11.749 11.031 11.662 10.929zM10.889 21.082c-0.12 0-0.218-0.098-0.218-0.218v-0.164c0-0.12 0.098-0.218 0.218-0.218h4.293c0.228-0.453 0.347-0.936 0.35-1.437H8.455c0.007 0.692 0.228 1.357 0.643 1.923c0.675 0.921 1.731 1.45 2.898 1.45c1.119 0 2.133-0.486 2.811-1.337H10.889z" />
</g>
<g class="root" id="target" data-name="Target">
	<path d="M12.836 15.072h2.12v1.333H9.111V15.493c0.598-0.58 1.14-1.114 1.624-1.604c0.485-0.489 0.897-0.942 1.237-1.36c0.34-0.416 0.601-0.807 0.781-1.168c0.182-0.362 0.273-0.708 0.273-1.033c0-0.462-0.123-0.827-0.367-1.095c-0.245-0.268-0.598-0.402-1.06-0.402c-0.335 0-0.641 0.096-0.918 0.285c-0.277 0.19-0.532 0.418-0.768 0.679l-0.87-0.87c0.398-0.426 0.808-0.754 1.231-0.985c0.421-0.231 0.931-0.346 1.529-0.346c0.416 0 0.792 0.064 1.129 0.19c0.335 0.128 0.62 0.306 0.856 0.537c0.236 0.231 0.419 0.51 0.55 0.837c0.131 0.327 0.198 0.689 0.198 1.087c0 0.381-0.084 0.768-0.252 1.162c-0.167 0.394-0.394 0.794-0.679 1.197c-0.285 0.403-0.618 0.818-0.999 1.243c-0.381 0.426-0.784 0.866-1.21 1.318c0.226-0.018 0.472-0.038 0.735-0.061C12.391 15.083 12.627 15.072 12.836 15.072zM24 12.398h-1.138c-0.099 2.754-1.215 5.33-3.175 7.288c-2.016 2.018-4.637 3.072-7.288 3.167v1.146h-0.797v-1.146c-2.651-0.097-5.273-1.152-7.294-3.17C2.292 17.666 1.238 15.045 1.141 12.398H0v-0.797h1.141c0.096-2.651 1.151-5.271 3.169-7.289C6.33 2.295 8.952 1.242 11.601 1.144V0h0.797v1.144c2.651 0.096 5.271 1.151 7.288 3.167v0c1.959 1.959 3.076 4.535 3.175 7.289h1.138V12.398zM12.398 1.941v1.814c1.981 0.094 3.932 0.896 5.442 2.404v0c1.466 1.466 2.313 3.386 2.41 5.442h1.816c-0.099-2.541-1.133-4.917-2.941-6.725C17.261 3.014 14.844 2.037 12.398 1.941zM18.007 12.398v-0.797h1.444c-0.097-1.844-0.859-3.564-2.176-4.879c-1.353-1.352-3.102-2.074-4.877-2.168v1.439h-0.797v-1.439c-1.776 0.094-3.526 0.816-4.881 2.169c-1.353 1.353-2.077 3.102-2.169 4.879h1.443v0.797h-1.441c0.094 1.774 0.816 3.523 2.168 4.876c1.355 1.353 3.105 2.077 4.882 2.171v-1.438h0.797v1.438c1.777-0.094 3.526-0.816 4.877-2.169c1.315-1.313 2.079-3.033 2.176-4.877H18.007zM1.938 11.601h1.814c0.094-1.981 0.896-3.934 2.405-5.442c1.509-1.508 3.464-2.308 5.443-2.404V1.941c-2.445 0.096-4.863 1.073-6.728 2.934C3.011 6.738 2.034 9.156 1.938 11.601zM11.601 22.057V20.243c-1.981-0.096-3.934-0.897-5.445-2.405c-1.506-1.508-2.308-3.46-2.404-5.439H1.938c0.096 2.444 1.073 4.858 2.933 6.722C6.736 20.983 9.156 21.96 11.601 22.057zM22.063 12.398h-1.816c-0.097 2.056-0.944 3.975-2.41 5.44c-1.508 1.508-3.46 2.31-5.442 2.405v1.814c2.447-0.096 4.863-1.073 6.725-2.934C20.932 17.315 21.966 14.94 22.063 12.398z" />
</g>
<g class="root" id="termites" data-name="Termites">
	<path d="M9.307 19.262h0.538c0.12 0 0.217 0.097 0.217 0.217v0.163c0 0.12-0.097 0.217-0.217 0.217H9.307c-0.12 0-0.217-0.097-0.217-0.217v-0.163C9.09 19.36 9.186 19.262 9.307 19.262zM10.511 19.479v0.163c0 0.12 0.097 0.217 0.217 0.217h0.161c0.12 0 0.217-0.097 0.217-0.217v-0.163c0-0.12-0.097-0.217-0.217-0.217h-0.161C10.609 19.262 10.511 19.36 10.511 19.479zM14.003 8.411c-0.088-0.065-0.12-0.187-0.062-0.282c0.243-0.408 0.354-0.878 0.312-1.364c-0.052-0.629-0.386-1.204-0.875-1.605l-0.143-0.12l0.126-0.219c0.036-0.065 0.141-0.276 0.126-0.594c-0.172 0.206-0.369 0.377-0.594 0.521l-0.115 0.074l-0.13-0.039c-0.434-0.132-0.895-0.132-1.329 0l-0.13 0.039l-0.115-0.074c-0.226-0.143-0.421-0.314-0.594-0.521c-0.016 0.319 0.088 0.529 0.126 0.594l0.126 0.219l-0.147 0.121c-0.468 0.386-0.794 0.93-0.863 1.534c-0.134 1.18 0.64 2.205 1.709 2.474h1.577c0.573 0 1.052 0.395 1.187 0.927h1.13c0.082 0 0.158-0.048 0.195-0.123l2.301-4.773c0.036-0.076 0.113-0.123 0.195-0.123h1.87c0.12 0 0.217 0.097 0.217 0.217v0.163c0 0.12-0.097 0.217-0.217 0.217h-1.497c-0.082 0-0.158 0.048-0.195 0.123L15.89 10.571c-0.036 0.076-0.113 0.123-0.195 0.123h-1.505c-0.061 0.243-0.195 0.462-0.386 0.626c0.169 0.147 0.295 0.337 0.363 0.547l1.442-0.421c0.078-0.024 0.163 0 0.219 0.059l3.292 3.486c0.042 0.043 0.097 0.068 0.158 0.068h0.606c0.12 0 0.217 0.097 0.217 0.217v0.163c0 0.12-0.097 0.217-0.217 0.217h-0.863c-0.061 0-0.117-0.024-0.158-0.068L15.642 12.181c-0.056-0.059-0.141-0.082-0.219-0.059l-1.219 0.356c-0.039 0.206-0.13 0.395-0.26 0.551L16.703 14.272c0.056 0.026 0.1 0.074 0.117 0.132l2.405 7.689c0.013 0.042 0.036 0.078 0.071 0.104l0.803 0.644c0.094 0.076 0.108 0.213 0.033 0.305l-0.102 0.126c-0.076 0.094-0.213 0.108-0.305 0.033l-0.944-0.757c-0.033-0.026-0.059-0.062-0.071-0.104L16.33 14.84c-0.019-0.059-0.061-0.108-0.117-0.132l-1.275-0.574c0.724 1.032 1.154 2.431 1.154 3.915c0 3.226-1.883 5.952-4.112 5.952c-1.432 0-2.787-1.147-3.541-2.993l-0.03-0.076l0.554-0.226l0.03 0.076c0.017 0.043 0.036 0.085 0.056 0.126h4.55c0.12 0 0.217 0.097 0.217 0.217v0.163c0 0.12-0.097 0.217-0.217 0.217H9.345c0.161 0.279 0.334 0.534 0.525 0.759h0.807v0.597h-0.187c0.464 0.351 0.976 0.542 1.492 0.542c0.525 0 1.032-0.198 1.491-0.542h-1.948c-0.12 0-0.217-0.097-0.217-0.217v-0.163c0-0.12 0.097-0.217 0.217-0.217h2.57c0.191-0.226 0.366-0.482 0.525-0.759h-0.139v-0.597h0.438c0.143-0.33 0.262-0.678 0.356-1.048H11.985c-0.12 0-0.217-0.097-0.217-0.217v-0.163c0-0.12 0.097-0.217 0.217-0.217h3.41c0.042-0.252 0.071-0.508 0.087-0.768h-0.236c-0.12 0-0.217-0.097-0.217-0.217v-0.163c0-0.12 0.097-0.217 0.217-0.217h0.247c-0.007-0.356-0.042-0.703-0.097-1.041H9.835c-0.12 0-0.217-0.097-0.217-0.217v-0.163c0-0.12 0.097-0.217 0.217-0.217h5.429c-0.323-1.208-0.963-2.223-1.812-2.789h-0.449h-2.046h-0.366l-0.217 0.097c-0.357 0.265-0.675 0.612-0.944 1.019h3.738c0.12 0 0.217 0.097 0.217 0.217v0.163c0 0.12-0.097 0.217-0.217 0.217H9.093c-0.161 0.334-0.295 0.694-0.397 1.074h0.293v0.597h-0.421c-0.059 0.338-0.091 0.687-0.097 1.041h5.127c0.12 0 0.217 0.097 0.217 0.217v0.163c0 0.12-0.097 0.217-0.217 0.217H8.48c0.03 0.516 0.115 1.028 0.253 1.525l0.022 0.078l-0.574 0.161L8.158 20.182c-0.193-0.692-0.291-1.41-0.291-2.134c0-1.453 0.412-2.82 1.109-3.845l-1.19 0.536c-0.056 0.026-0.1 0.074-0.117 0.132L5.288 22.477c-0.013 0.042-0.036 0.078-0.071 0.104L4.275 23.338c-0.094 0.076-0.23 0.061-0.305-0.033l-0.102-0.126c-0.076-0.094-0.061-0.23 0.033-0.305l0.803-0.644c0.033-0.026 0.059-0.062 0.071-0.104l2.405-7.689c0.019-0.059 0.061-0.108 0.117-0.132l2.75-1.239c-0.165-0.184-0.276-0.418-0.305-0.677l-1.167-0.34c-0.078-0.024-0.163 0-0.219 0.059L5.138 15.512c-0.042 0.043-0.097 0.068-0.158 0.068H4.116c-0.12 0-0.217-0.097-0.217-0.217v-0.163c0-0.12 0.097-0.217 0.217-0.217h0.606c0.061 0 0.117-0.024 0.158-0.068L8.173 11.43c0.056-0.059 0.141-0.082 0.219-0.059l1.433 0.418c0.071-0.178 0.184-0.338 0.331-0.468c-0.21-0.182-0.351-0.432-0.401-0.704h-1.451c-0.082 0-0.158-0.048-0.195-0.123L5.808 5.722c-0.036-0.076-0.113-0.123-0.195-0.123h-1.497c-0.12 0-0.217-0.097-0.217-0.217v-0.163c0-0.12 0.097-0.217 0.217-0.217H5.989c0.082 0 0.158 0.048 0.195 0.123L8.483 9.899c0.036 0.076 0.113 0.123 0.195 0.123h1.112c0.111-0.345 0.371-0.623 0.703-0.757c-0.831-0.44-1.39-1.258-1.39-2.301c0-0.729 0.282-1.432 0.776-1.961c-0.458-0.425-0.848-0.909-1.158-1.445c-0.744-1.288-0.859-2.559-0.842-3.316c0.002-0.123 0.108-0.217 0.23-0.21l0.163 0.009c0.117 0.007 0.206 0.104 0.204 0.221c-0.013 0.687 0.091 1.835 0.762 2.995c0.184 0.319 0.403 0.616 0.644 0.892c0.019-0.253 0.087-0.519 0.201-0.772l0.259-0.571l0.279 0.56c0.175 0.354 0.386 0.609 0.658 0.807c0.458-0.115 0.939-0.115 1.399 0c0.271-0.195 0.479-0.453 0.658-0.807l0.279-0.56l0.259 0.571c0.106 0.234 0.172 0.475 0.195 0.711c0.233-0.269 0.442-0.555 0.62-0.863c0.672-1.161 0.776-2.308 0.762-2.995c-0.002-0.117 0.087-0.215 0.204-0.221L15.817 0c0.121-0.007 0.227 0.087 0.23 0.21c0.017 0.757-0.097 2.028-0.842 3.316c-0.311 0.536-0.701 1.019-1.156 1.442c0.514 0.534 0.809 1.249 0.809 1.995c0 0.525-0.139 1.028-0.406 1.473c-0.065 0.111-0.21 0.143-0.334 0.056L14.003 8.411zM13.003 12.877c0.386 0 0.694-0.351 0.616-0.753c-0.059-0.297-0.337-0.503-0.64-0.503h-0.169c-0.12 0-0.217-0.097-0.217-0.217v-0.163c0-0.12 0.097-0.217 0.217-0.217h0.193c0.386 0 0.694-0.351 0.616-0.753c-0.059-0.297-0.337-0.503-0.64-0.503l-2.021 0c-0.386 0-0.694 0.351-0.616 0.753c0.059 0.297 0.337 0.503 0.64 0.503l0.733 0c0.12 0 0.217 0.097 0.217 0.217v0.163c0 0.12-0.097 0.217-0.217 0.217l-0.733 0c-0.304 0-0.583 0.204-0.64 0.503c-0.078 0.401 0.227 0.753 0.616 0.753H13.003z" />
</g>
<g class="root" id="ticks" data-name="Ticks">
	<path d="M3.236 6.689c0.497 0 1.179-0.083 1.723-0.302c0.229 0.099 0.471 0.194 0.727 0.29c1.03 0.393 2.199 0.839 2.738 1.895c0.254 0.497 0.685 1.262 1.305 2.093c0.058 0.078 0.147 0.118 0.234 0.118c0.062 0 0.121-0.02 0.175-0.058c0.128-0.097 0.156-0.281 0.06-0.409c-0.627-0.84-1.054-1.621-1.253-2.01c-0.641-1.256-1.977-1.766-3.051-2.174c-0.102-0.039-0.203-0.078-0.302-0.116C7.018 4.94 7.384 3.571 7.326 2.947c0.804-0.106 1.577-0.175 2.32-0.204c-0.331 1.114-0.13 1.697 0.065 2.263c0.148 0.429 0.289 0.833 0.168 1.524c-0.028 0.159 0.079 0.31 0.238 0.338c0.018 0.004 0.034 0.006 0.051 0.006c0.14 0 0.262-0.1 0.288-0.241c0.147-0.84-0.034-1.359-0.19-1.815c-0.19-0.55-0.354-1.029 0.001-2.086c0.732-0.011 1.434 0.016 2.104 0.081c-0.525 0.897-0.414 1.744-0.304 2.567c0.114 0.868 0.224 1.688-0.437 2.574c-0.097 0.128-0.07 0.312 0.06 0.409c0.053 0.039 0.114 0.058 0.175 0.058c0.09 0 0.178-0.041 0.234-0.118c0.802-1.077 0.666-2.099 0.546-3.001C12.529 4.435 12.433 3.689 13.018 2.88c0.749 0.102 1.453 0.257 2.122 0.46c-0.814 1.093-0.767 2.045-0.719 2.969c0.042 0.84 0.083 1.634-0.534 2.562c-0.09 0.134-0.053 0.316 0.081 0.405c0.049 0.034 0.106 0.049 0.162 0.049c0.095 0 0.187-0.046 0.243-0.13c0.725-1.089 0.677-2.017 0.633-2.915c-0.048-0.939-0.086-1.754 0.727-2.745c0.643 0.233 1.244 0.515 1.804 0.846c-0.983 1.216-1.004 2.185-1.021 3.041c-0.013 0.638-0.021 1.19-0.445 1.773c-0.095 0.13-0.067 0.314 0.065 0.409c0.051 0.037 0.113 0.056 0.171 0.056c0.09 0 0.18-0.042 0.236-0.12c0.534-0.733 0.546-1.431 0.558-2.106c0.016-0.812 0.034-1.651 0.934-2.738c0.622 0.419 1.19 0.906 1.7 1.459c-0.715 0.617-0.88 1.343-1.026 1.988c-0.144 0.64-0.269 1.191-0.901 1.592c-0.135 0.086-0.176 0.268-0.09 0.403c0.056 0.088 0.149 0.135 0.247 0.135c0.053 0 0.107-0.014 0.156-0.046c0.835-0.53 0.999-1.255 1.157-1.956c0.137-0.606 0.268-1.183 0.837-1.674c0.532 0.652 0.997 1.387 1.39 2.203c-0.168 0.134-0.333 0.282-0.492 0.424c-0.445 0.402-0.867 0.781-1.307 0.828c-0.161 0.018-0.276 0.162-0.259 0.323c0.016 0.149 0.142 0.261 0.29 0.261c0.011 0 0.021 0 0.032-0.001c0.627-0.067 1.14-0.529 1.637-0.976c0.114-0.104 0.233-0.208 0.351-0.307c0.148 0.349 0.283 0.71 0.409 1.085c-0.171 0.511-1.355 3.424-6.025 3.438c-0.254 0.001-0.513-0.016-0.765-0.049c-0.161-0.021-0.307 0.092-0.328 0.25c-0.021 0.161 0.092 0.307 0.25 0.328c0.271 0.037 0.548 0.055 0.823 0.055c0.007 0 0.014 0 0.021 0c5.539-0.018 6.603-3.913 6.613-3.954l0.021-0.083l-0.027-0.081c-1.441-4.441-5.353-9.41-15.804-7.938c-0.203-0.099-0.481-0.152-0.833-0.152c-0.774 0-1.937 0.255-2.788 0.826c-1.293 0.867-1.62 2.717-1.438 3.137C2.052 6.607 2.713 6.689 3.236 6.689zM3.646 3.568c0.746-0.5 1.799-0.727 2.461-0.727c0.259 0 0.423 0.032 0.52 0.063c0.032 0.037 0.072 0.063 0.116 0.081c0.06 0.285-0.156 1.646-1.685 2.696c-0.361 0.248-1.112 0.423-1.826 0.423c-0.479 0-0.74-0.081-0.814-0.128C2.392 5.705 2.591 4.276 3.646 3.568zM0.582 8.1c-0.023 0.142-0.148 0.245-0.289 0.245c-0.016 0-0.032-0.001-0.048-0.004c-0.159-0.027-0.268-0.176-0.241-0.335c0.189-1.162 1.121-1.51 1.159-1.524c0.152-0.055 0.319 0.023 0.374 0.176c0.055 0.152-0.023 0.317-0.173 0.374C1.334 7.041 0.713 7.289 0.582 8.1zM1.678 7.131c0.058-0.152 0.227-0.226 0.377-0.168c0.149 0.058 0.226 0.227 0.168 0.377c-0.12 0.31-0.295 0.93-0.121 1.594c0.041 0.156-0.053 0.316-0.21 0.356c-0.025 0.007-0.049 0.008-0.074 0.008c-0.13 0-0.248-0.088-0.282-0.219C1.377 8.472 1.428 7.779 1.678 7.131zM5.848 7.26c0.037-0.156-0.06-0.316-0.217-0.352c-0.156-0.037-0.316 0.06-0.352 0.217c-0.257 1.08-0.694 1.587-0.908 1.589c-0.028 0-0.06-0.007-0.095-0.042c-0.065-0.069-0.275-0.384-0.213-1.556c0.008-0.161-0.114-0.3-0.276-0.307c-0.161-0.007-0.3 0.114-0.307 0.276c-0.055 1.021 0.069 1.67 0.374 1.991c0.19 1.11 0.987 1.914 1.649 2.191c0.164 0.069 0.3 0.095 0.41 0.095c0.141 0 0.241-0.042 0.309-0.09c0.095-0.067 0.213-0.197 0.241-0.441c0.062-0.53-0.347-1.345-1.124-2.25C5.547 8.237 5.721 7.791 5.848 7.26zM5.883 10.773c-0.264-0.023-1.078-0.537-1.378-1.491c0.159-0.03 0.314-0.114 0.46-0.243C5.775 10.004 5.922 10.608 5.883 10.773zM5.421 11.64c0.07 0.144 0.011 0.321-0.135 0.391c-0.615 0.3-2.072 1.366-3.189 3.262c-0.055 0.092-0.152 0.144-0.252 0.144c-0.051 0-0.102-0.013-0.148-0.041c-0.14-0.083-0.185-0.261-0.104-0.4c1.033-1.752 2.506-3.036 3.438-3.49C5.174 11.434 5.351 11.494 5.421 11.64zM1.502 12.754c-0.056 0.081-0.148 0.123-0.238 0.123c-0.058 0-0.118-0.018-0.169-0.055c-0.133-0.093-0.162-0.275-0.069-0.407c0.641-0.906 2.227-1.641 3.112-1.644c0 0 0 0 0.001 0c0.161 0 0.293 0.13 0.293 0.29c0 0.162-0.13 0.293-0.29 0.293C3.411 11.36 2.024 12.019 1.502 12.754zM9.155 13.27c0.295-0.121 0.416-0.471 0.361-1.038c-0.042-0.441-0.19-0.981-0.416-1.524c-0.083-0.199-0.173-0.386-0.268-0.565c0.018-0.014 0.034-0.028 0.051-0.044c0.118-0.111 0.123-0.296 0.014-0.412c-0.111-0.118-0.296-0.123-0.412-0.014c-0.123 0.114-0.25 0.175-0.377 0.175c-0.453 0-0.957-0.802-0.957-1.952c0-0.055 0.001-0.109 0.004-0.164c0.007-0.162-0.118-0.297-0.281-0.304c-0.162-0.007-0.297 0.118-0.304 0.281c-0.004 0.062-0.004 0.125-0.004 0.189c0 0.661 0.148 1.253 0.391 1.7c0 0.006-0.001 0.011-0.001 0.018c-0.008 0.472 0.148 1.133 0.429 1.81c0.226 0.543 0.504 1.029 0.784 1.371c0.283 0.345 0.55 0.518 0.793 0.518C9.024 13.31 9.092 13.296 9.155 13.27zM8.921 12.708c-0.175-0.093-0.608-0.565-0.999-1.51c-0.127-0.307-0.226-0.61-0.293-0.887c0.149 0.078 0.31 0.12 0.478 0.12c0.069 0 0.137-0.007 0.206-0.021c0.088 0.166 0.171 0.34 0.248 0.523C8.951 11.876 8.977 12.518 8.921 12.708zM11.98 19.991c-0.058 0.076-0.144 0.116-0.234 0.116c-0.062 0-0.123-0.02-0.176-0.058c-1.81-1.366-2.529-3.059-2.795-3.946c-0.086-0.289-0.088-0.725-0.046-0.988l0.219-1.353c0.027-0.161 0.176-0.268 0.335-0.241c0.159 0.027 0.268 0.176 0.241 0.335l-0.219 1.353c-0.035 0.219-0.021 0.558 0.028 0.727c0.247 0.819 0.911 2.382 2.587 3.648C12.05 19.679 12.076 19.862 11.98 19.991zM15.758 16.014c-0.164-0.504-0.478-1.101-0.88-1.683c-0.402-0.581-0.849-1.08-1.26-1.411c-0.051-0.271-0.137-0.527-0.197-0.682c-0.264-0.691-0.671-1.29-1.091-1.604c-0.271-0.203-0.564-0.304-0.873-0.304c-0.654 0-1.239 0.488-1.458 0.946c-0.304 0.64 0.114 1.537 1.045 2.231c0.431 0.323 0.908 0.543 1.331 0.626c0.178 0.436 0.448 0.925 0.774 1.396c0.403 0.581 0.853 1.085 1.265 1.417c0.347 0.278 0.647 0.417 0.894 0.417c0.12 0 0.227-0.034 0.321-0.099C15.92 17.062 15.962 16.641 15.758 16.014zM11.395 13.037c-0.768-0.572-1.019-1.193-0.867-1.51c0.118-0.248 0.495-0.615 0.93-0.615c0.178 0 0.354 0.063 0.522 0.189c0.772 0.577 1.223 2.129 1.071 2.379c-0.069 0.092-0.229 0.106-0.319 0.106C12.36 13.585 11.848 13.376 11.395 13.037zM15.292 16.776c-0.213-0.006-0.929-0.52-1.663-1.582c-0.245-0.354-0.457-0.718-0.613-1.054c0.261-0.058 0.414-0.192 0.502-0.31c0.032-0.042 0.056-0.092 0.076-0.142c0.269 0.271 0.548 0.608 0.802 0.974C15.132 15.725 15.363 16.573 15.292 16.776zM21.972 21.686c-0.048 0.109-0.155 0.175-0.268 0.175c-0.039 0-0.079-0.007-0.116-0.025c-3.199-1.399-5.539-3.878-5.637-3.984c-0.111-0.118-0.104-0.303 0.014-0.412c0.118-0.111 0.303-0.104 0.412 0.014c0.023 0.025 2.36 2.499 5.445 3.847C21.971 21.365 22.038 21.538 21.972 21.686zM23.994 17.567c-0.028 0.14-0.149 0.234-0.285 0.234c-0.02 0-0.039-0.001-0.058-0.006c-3.42-0.698-6.229-2.63-6.347-2.714c-0.133-0.092-0.166-0.275-0.072-0.407c0.092-0.133 0.275-0.166 0.407-0.074c0.028 0.02 2.83 1.949 6.129 2.621C23.925 17.256 24.028 17.411 23.994 17.567zM3.308 4.754c-0.055-0.056-0.086-0.13-0.086-0.208c0-0.078 0.032-0.152 0.086-0.208c0.107-0.107 0.303-0.107 0.414 0c0.055 0.056 0.085 0.13 0.085 0.208c0 0.078-0.03 0.152-0.085 0.206c-0.056 0.056-0.13 0.086-0.208 0.086C3.439 4.838 3.363 4.808 3.308 4.754z" />
</g>
<g class="root" id="wood_destroying_insect" data-name="Wood Destroying Insect">
	<path d="M21.285 10.524c-0.049-0.157-0.215-0.241-0.373-0.191l-1.752 0.56c-0.025 0.008-0.049 0.02-0.073 0.036L16.64 12.538l-3.033-0.022c-0.03-0.112-0.083-0.22-0.165-0.318c-0.04-0.047-0.085-0.091-0.134-0.134c0.259-0.397 0.441-0.85 0.502-1.177l1.621-0.429c0.079-0.022 0.146-0.073 0.186-0.146l1.042-1.939l2.809-1.574c0.142-0.079 0.194-0.261 0.115-0.403c-0.079-0.142-0.261-0.194-0.403-0.115l-2.885 1.615c-0.049 0.028-0.089 0.07-0.117 0.119l-1.022 1.902l-1.417 0.373c-0.032-0.062-0.067-0.123-0.115-0.178c-0.267-0.324-0.759-0.542-1.329-0.599v-0.275c0.008 0 0.014 0.002 0.022 0.002c0.149 0.017 0.301 0.038 0.52 0.016c0.633-0.065 1.164-0.452 1.386-0.987c0.346-0.115 0.595-0.475 0.595-0.908c0-0.332-0.146-0.633-0.391-0.808c-0.125-0.089-0.267-0.133-0.41-0.136c-0.093-0.176-0.196-0.34-0.31-0.494l3.136-0.326c0.144-0.016 0.255-0.13 0.265-0.275c0.16-2.458 0.16-2.458 1.169-4.911c0.062-0.152-0.009-0.324-0.162-0.388c-0.152-0.063-0.324 0.009-0.388 0.162c-0.998 2.434-1.044 2.561-1.196 4.848l-2.964 0.308c0.112-0.53-0.024-1.143-0.389-1.566c-0.107-0.125-0.294-0.138-0.419-0.03s-0.138 0.294-0.032 0.419c0.233 0.27 0.328 0.679 0.265 1.024c-0.245-0.196-0.522-0.384-0.85-0.569c-0.091-0.051-0.202-0.051-0.293 0c-0.328 0.186-0.605 0.373-0.848 0.569c-0.063-0.344 0.032-0.753 0.265-1.024c0.107-0.125 0.093-0.31-0.032-0.419s-0.31-0.093-0.419 0.03c-0.365 0.423-0.502 1.036-0.389 1.566l-2.966-0.308c-0.152-2.287-0.196-2.414-1.194-4.848c-0.062-0.152-0.236-0.223-0.388-0.162c-0.152 0.062-0.223 0.236-0.162 0.388c1.008 2.453 1.008 2.453 1.169 4.911c0.009 0.144 0.123 0.261 0.265 0.275l3.136 0.326c-0.115 0.154-0.217 0.32-0.31 0.497c-0.144 0.006-0.285 0.047-0.41 0.136c-0.245 0.174-0.391 0.476-0.391 0.808c0 0.435 0.249 0.792 0.595 0.908c0.221 0.534 0.755 0.921 1.388 0.987c0.071 0.008 0.134 0.009 0.191 0.009c0.125 0 0.228-0.012 0.328-0.025c0.008 0 0.016-0.002 0.022-0.002v0.275c-0.568 0.057-1.061 0.275-1.329 0.599c-0.046 0.057-0.083 0.117-0.112 0.178l-1.416-0.373l-1.022-1.902c-0.028-0.049-0.067-0.091-0.117-0.119l-2.885-1.615c-0.142-0.079-0.324-0.03-0.403 0.115c-0.081 0.142-0.03 0.324 0.115 0.403l2.809 1.574l1.042 1.939c0.04 0.073 0.107 0.125 0.186 0.146l1.619 0.429c0.062 0.326 0.244 0.779 0.502 1.177c-0.049 0.041-0.095 0.087-0.133 0.133c-0.081 0.099-0.134 0.206-0.166 0.318L7.361 12.538l-2.448-1.612c-0.022-0.016-0.047-0.025-0.073-0.036l-1.752-0.56c-0.157-0.049-0.323 0.036-0.373 0.191c-0.049 0.157 0.036 0.323 0.191 0.373l1.712 0.547l2.49 1.639c0.049 0.032 0.104 0.049 0.165 0.049c0 0 0.002 0 0.002 0l3.149-0.022c0.085 0.36 0.259 0.848 0.506 1.264l-3.11 1.327c-0.078 0.033-0.136 0.096-0.165 0.176l-1.256 3.613L3.799 22.357c-0.111 0.12-0.101 0.308 0.02 0.419c0.057 0.051 0.128 0.078 0.199 0.078c0.081 0 0.162-0.033 0.22-0.096l2.642-2.914c0.028-0.03 0.047-0.063 0.062-0.101l1.234-3.547l3.124-1.333c0.125 0.127 0.261 0.225 0.407 0.285v0.55c-1.267 0.157-2.294 1.293-2.491 2.823c0 0 0 0 0 0.002c-0.022 0.17-0.033 0.344-0.033 0.522c0 0.747 0.115 1.449 0.344 2.09c0 0 0 0 0 0s0 0 0 0c0 0 0 0 0 0c0 0 0 0 0 0c0.716 2.021 2.284 2.801 2.349 2.835c0.041 0.02 0.085 0.03 0.13 0.03s0.089-0.009 0.13-0.03c0.067-0.032 1.636-0.815 2.349-2.835c0 0 0 0 0 0c0 0 0 0 0 0c0 0 0 0 0 0s0 0 0 0c0.228-0.641 0.344-1.344 0.344-2.09c0-0.176-0.012-0.352-0.033-0.522c0 0 0 0 0-0.002c-0.199-1.53-1.224-2.669-2.491-2.823v-0.55c0.146-0.059 0.281-0.158 0.407-0.285l3.124 1.333l1.234 3.547c0.014 0.038 0.033 0.073 0.062 0.101l2.642 2.914c0.059 0.065 0.138 0.096 0.22 0.096c0.071 0 0.142-0.025 0.199-0.078c0.12-0.111 0.13-0.297 0.02-0.419L17.601 19.488l-1.256-3.613c-0.028-0.079-0.087-0.142-0.165-0.176l-3.112-1.327c0.245-0.415 0.419-0.903 0.505-1.264l3.152 0.022c0 0 0.002 0 0.002 0c0.057 0 0.115-0.017 0.165-0.049l2.49-1.639l1.712-0.547C21.248 10.846 21.335 10.679 21.285 10.524zM13.036 12.805c-0.046 0.356-0.32 1.077-0.625 1.493c-0.016 0.016-0.03 0.036-0.041 0.057c-0.125 0.157-0.251 0.259-0.37 0.259c-0.119 0-0.245-0.103-0.37-0.259c-0.012-0.02-0.025-0.038-0.041-0.054c-0.304-0.415-0.579-1.139-0.625-1.495c0-0.002 0-0.002 0-0.004c-0.004-0.033-0.006-0.063-0.006-0.089c0-0.043 0.02-0.089 0.059-0.134c0.014-0.016 0.028-0.032 0.043-0.047c0.016 0.016 0.033 0.03 0.049 0.046c0.017 0.016 0.033 0.032 0.051 0.047c0.022 0.017 0.043 0.036 0.065 0.054c0.249 0.199 0.512 0.304 0.775 0.304c0.265 0 0.526-0.107 0.775-0.307c0.022-0.017 0.041-0.033 0.063-0.051c0.017-0.016 0.033-0.032 0.051-0.047c0.016-0.016 0.032-0.03 0.049-0.046c0.016 0.016 0.032 0.032 0.046 0.047c0.038 0.046 0.057 0.091 0.057 0.134c0 0.025-0.002 0.055-0.006 0.089C13.036 12.801 13.036 12.803 13.036 12.805zM13.996 7.72c-0.004 0-0.009 0-0.014 0c-0.095-0.006-0.198-0.119-0.221-0.283c-0.004-0.024-0.006-0.047-0.006-0.073c0-0.186 0.096-0.318 0.191-0.35c0.008-0.002 0.024-0.008 0.046-0.008c0.024 0 0.057 0.008 0.093 0.033c0.07 0.049 0.142 0.16 0.142 0.324C14.23 7.571 14.107 7.718 13.996 7.72zM9.914 7.04c0.036-0.025 0.067-0.033 0.093-0.033c0.022 0 0.04 0.006 0.049 0.009c0.091 0.032 0.19 0.165 0.19 0.348c0 0.206-0.119 0.35-0.228 0.356c-0.004 0-0.009 0-0.014 0c-0.109-0.002-0.231-0.15-0.231-0.356C9.771 7.2 9.844 7.089 9.914 7.04zM11.608 8.655c-0.13 0.016-0.236 0.03-0.388 0.014c-0.348-0.036-0.65-0.214-0.821-0.467c0.017-0.012 0.036-0.025 0.051-0.038c0.008-0.006 0.017-0.012 0.025-0.02c0.04-0.032 0.075-0.065 0.109-0.103c0.006-0.008 0.012-0.016 0.02-0.024c0.028-0.032 0.051-0.067 0.075-0.104c0.008-0.012 0.014-0.022 0.02-0.033c0.025-0.046 0.049-0.093 0.067-0.142c0.002-0.006 0.004-0.014 0.006-0.02c0.016-0.046 0.028-0.091 0.038-0.138c0.002-0.014 0.006-0.03 0.008-0.043c0.008-0.055 0.016-0.112 0.016-0.17c0-0.065-0.008-0.13-0.017-0.191C10.815 7.154 10.811 7.138 10.807 7.121c-0.012-0.047-0.025-0.095-0.041-0.138c-0.006-0.014-0.009-0.028-0.016-0.04c-0.024-0.055-0.051-0.109-0.085-0.158c-0.006-0.008-0.012-0.016-0.017-0.022c-0.03-0.041-0.062-0.079-0.096-0.115c-0.006-0.006-0.009-0.012-0.016-0.017c0.136-0.247 0.304-0.482 0.542-0.718c0.002-0.002 0.004-0.004 0.008-0.006c0.004-0.004 0.008-0.008 0.012-0.012c0.228-0.221 0.516-0.443 0.902-0.674c0.388 0.231 0.676 0.452 0.906 0.676c0.002 0.002 0.006 0.004 0.008 0.008c0.002 0.002 0.002 0.002 0.004 0.004c0.002 0.002 0.004 0.004 0.006 0.004c0.239 0.236 0.407 0.471 0.544 0.72c-0.006 0.006-0.012 0.014-0.017 0.02c-0.033 0.033-0.063 0.07-0.091 0.107c-0.008 0.009-0.014 0.017-0.022 0.028c-0.032 0.047-0.059 0.101-0.083 0.157c-0.006 0.014-0.009 0.028-0.016 0.041c-0.017 0.043-0.03 0.091-0.041 0.138c-0.004 0.017-0.008 0.033-0.012 0.054c-0.012 0.063-0.017 0.127-0.017 0.191c0 0.059 0.006 0.115 0.016 0.17c0.002 0.014 0.006 0.03 0.008 0.043c0.009 0.047 0.022 0.095 0.038 0.138c0.002 0.006 0.004 0.014 0.006 0.02c0.02 0.049 0.041 0.096 0.067 0.142c0.006 0.012 0.014 0.022 0.02 0.033c0.024 0.038 0.047 0.071 0.075 0.104c0.006 0.008 0.012 0.016 0.017 0.024c0.033 0.038 0.07 0.071 0.109 0.103c0.008 0.006 0.017 0.012 0.025 0.02c0.017 0.012 0.033 0.025 0.051 0.038c-0.17 0.253-0.471 0.431-0.819 0.467c-0.152 0.016-0.257 0.002-0.388-0.014c-0.107-0.014-0.229-0.028-0.389-0.028c-0.002 0-0.004 0-0.006 0C11.838 8.625 11.717 8.641 11.608 8.655zM12 10.093c0.579 0 1.003 0.199 1.164 0.397c0.051 0.063 0.078 0.125 0.078 0.183c0 0.221-0.233 0.845-0.585 1.28c-0.223 0.278-0.457 0.431-0.658 0.431c-0.032 0-0.065-0.006-0.099-0.012c-0.178-0.04-0.373-0.183-0.562-0.419c-0.352-0.433-0.584-1.056-0.584-1.28c0-0.059 0.025-0.12 0.078-0.183C10.997 10.294 11.42 10.093 12 10.093zM10.254 18.713c0.028-0.004 0.054-0.008 0.081-0.012c0.154-0.024 0.312-0.043 0.473-0.059c0.028-0.002 0.055-0.006 0.083-0.008c0.165-0.016 0.332-0.028 0.502-0.036c0.02-0.002 0.041-0.002 0.063-0.002c0.18-0.008 0.362-0.014 0.546-0.014c0.183 0 0.365 0.006 0.546 0.014c0.02 0 0.041 0.002 0.062 0.002c0.17 0.008 0.338 0.022 0.502 0.036c0.028 0.002 0.055 0.006 0.083 0.008c0.16 0.016 0.318 0.036 0.473 0.059c0.028 0.004 0.054 0.008 0.081 0.012c0.154 0.024 0.307 0.051 0.451 0.083c0.008 0.002 0.016 0.004 0.024 0.006c0.006 0.079 0.008 0.16 0.008 0.239c0 0.615-0.085 1.196-0.255 1.73c-0.071 0.012-0.141 0.025-0.214 0.038c-0.057 0.009-0.115 0.02-0.174 0.028c-0.127 0.017-0.255 0.032-0.386 0.046c-0.04 0.004-0.079 0.009-0.119 0.012c-0.708 0.063-1.463 0.063-2.171 0c-0.036-0.004-0.071-0.008-0.109-0.012c-0.134-0.014-0.265-0.028-0.395-0.046c-0.057-0.008-0.112-0.017-0.168-0.025c-0.073-0.012-0.146-0.024-0.217-0.038c-0.168-0.534-0.255-1.114-0.255-1.73c0-0.081 0.002-0.16 0.008-0.239c0.008-0.002 0.016-0.004 0.024-0.006C9.947 18.764 10.099 18.739 10.254 18.713zM12 23.359c-0.323-0.196-1.169-0.792-1.72-1.944c0.157 0.022 0.318 0.041 0.481 0.057c0.07 0.006 0.138 0.012 0.207 0.017c0.093 0.008 0.186 0.014 0.281 0.02c0.089 0.006 0.18 0.009 0.269 0.014c0.07 0.002 0.141 0.004 0.21 0.004c0.091 0.002 0.18 0.006 0.27 0.006c0.091 0 0.182-0.004 0.273-0.006c0.07-0.002 0.138-0.002 0.207-0.004c0.091-0.004 0.182-0.008 0.27-0.014c0.093-0.006 0.186-0.012 0.278-0.02c0.07-0.006 0.141-0.012 0.21-0.017c0.162-0.016 0.324-0.033 0.481-0.057C13.17 22.562 12.319 23.164 12 23.359zM14.117 18.175c-0.016-0.002-0.032-0.004-0.047-0.008c-0.142-0.025-0.286-0.049-0.435-0.07c-0.02-0.002-0.041-0.004-0.062-0.008c-0.141-0.017-0.283-0.033-0.427-0.047c-0.025-0.002-0.051-0.006-0.079-0.008c-0.154-0.014-0.312-0.024-0.471-0.032c-0.033-0.002-0.067-0.002-0.101-0.004c-0.165-0.006-0.331-0.009-0.497-0.009c-0.166 0-0.332 0.004-0.497 0.009c-0.033 0.002-0.067 0.002-0.101 0.004c-0.158 0.008-0.316 0.017-0.471 0.032c-0.025 0.002-0.054 0.006-0.079 0.008c-0.144 0.014-0.286 0.03-0.427 0.047c-0.02 0.002-0.041 0.004-0.062 0.008c-0.149 0.02-0.293 0.043-0.435 0.07c-0.016 0.002-0.032 0.004-0.047 0.008c0.297-1.111 1.151-1.904 2.116-1.906c0 0 0.002 0 0.002 0s0.002 0 0.002 0C12.966 16.269 13.821 17.063 14.117 18.175z" />
</g>
</svg>