<svg viewBox="0 0 24 24" data-use="/cms/svg/site/nst3xcjc347.24.svg#nesting_sites"><path d="M22.618 8.625c0.188-0.4 0.285-0.821 0.285-1.252c0-1.65-1.342-2.995-2.995-2.995c-0.195 0-0.396 0.023-0.607 0.071c-0.593-1.449-1.996-2.402-3.583-2.402c-0.383 0-0.762 0.057-1.131 0.172C13.902 0.863 12.516 0 10.979 0C9.371 0 7.916 0.974 7.277 2.421c-0.473-0.408-1.07-0.634-1.702-0.634c-1.451 0-2.632 1.181-2.632 2.632c0 0.203 0.027 0.41 0.077 0.616c-1.03 0.417-1.793 1.336-2.004 2.433C0.377 7.945 0 8.688 0 9.488c0 1.39 1.131 2.521 2.521 2.521c0.609 0 1.187-0.218 1.646-0.616c0.029 0.002 0.057 0.004 0.086 0.004c0.415 0 0.825-0.082 1.223-0.243c0.35 0.214 0.741 0.327 1.145 0.327c1.028 0 1.897-0.704 2.138-1.679c0 0 0 0 0 0c0.754 0 1.468-0.255 2.044-0.727c0.58 0.741 1.455 1.175 2.404 1.175c0.614 0 1.206-0.184 1.719-0.536c0.178 0.038 0.358 0.063 0.534 0.075c0.245 1.344 1.397 2.329 2.785 2.329c0.559 0 1.091-0.163 1.558-0.475c0.389 0.44 0.947 0.695 1.545 0.695c1.143 0 2.075-0.93 2.075-2.075C23.428 9.62 23.125 9.017 22.618 8.625zM21.353 11.708c-0.494 0-0.951-0.251-1.217-0.674l-0.193-0.304l-0.274 0.23c-0.413 0.346-0.903 0.528-1.42 0.528c-1.154 0-2.098-0.873-2.197-2.031l-0.029-0.337l-0.316 0.05c-0.251 0-0.511-0.034-0.771-0.098l-0.144-0.036l-0.119 0.09c-0.431 0.325-0.936 0.496-1.462 0.496c-0.854 0-1.631-0.442-2.084-1.183l-0.211-0.348l-0.283 0.291c-0.498 0.511-1.162 0.792-1.872 0.792c-0.04 0-0.08-0.006-0.119-0.01c-0.038-0.004-0.075-0.01-0.115-0.013l-0.306-0.025l-0.031 0.306c-0.084 0.81-0.756 1.422-1.566 1.422c-0.331 0-0.653-0.107-0.93-0.308l-0.149-0.109l-0.168 0.077c-0.366 0.17-0.743 0.255-1.125 0.255c-0.023 0-0.046-0.004-0.069-0.008c-0.034-0.004-0.067-0.008-0.103-0.013l-0.14-0.01l-0.101 0.098c-0.356 0.35-0.825 0.54-1.321 0.54C1.478 11.381 0.628 10.531 0.628 9.488c0-0.634 0.318-1.225 0.85-1.577l0.117-0.077l0.021-0.138c0.153-1.022 0.892-1.87 1.885-2.163l0.325-0.096l-0.119-0.316c-0.088-0.237-0.134-0.473-0.134-0.702c0-1.106 0.898-2.004 2.004-2.004c0.616 0 1.189 0.285 1.577 0.781l0.377 0.486l0.172-0.591C8.123 1.642 9.471 0.628 10.979 0.628c1.382 0 2.62 0.825 3.154 2.105l0.119 0.285l0.287-0.113c0.381-0.151 0.779-0.226 1.181-0.226c1.413 0 2.655 0.905 3.089 2.249l0.096 0.297l0.297-0.094c0.264-0.084 0.49-0.121 0.708-0.121c1.305 0 2.366 1.062 2.366 2.366c0 0.415-0.113 0.819-0.337 1.198l-0.163 0.276l0.281 0.157c0.461 0.258 0.745 0.739 0.745 1.256C22.8 11.059 22.151 11.708 21.353 11.708zM16.166 11.639c-0.184-0.163-0.341-0.337-0.471-0.517l-0.209-0.293L13.088 13.075l-0.157-2.517l-0.249-0.04c-0.599-0.094-1.164-0.354-1.631-0.752l-0.475-0.404L10.261 14.189c-0.505-0.549-0.972-1.06-1.39-1.527c-0.209-0.237-0.419-0.469-0.624-0.697l-0.419-0.465l-0.207 0.09c-0.193 0.084-0.387 0.14-0.58 0.172l-0.498 0.082l0.614 0.859c0.197 0.276 0.402 0.563 0.605 0.848c1.009 1.418 1.991 2.854 2.268 3.26l0.057 0.084l-0.461 7.105l0.366-0.036c1.156-0.111 2.276-0.111 3.409-0.004l0.366 0.036l-0.528-8.46L16.396 11.844L16.166 11.639zM12.598 15.318l0.498 7.985c-0.932-0.069-1.849-0.069-2.796 0.002l0.431-6.672l-0.111-0.103c-0.015-0.015-0.031-0.025-0.044-0.036c-0.006-0.008-0.015-0.019-0.021-0.027l-0.008-0.013l0 0c-0.279-0.408-1.261-1.849-2.276-3.273c-0.205-0.285-0.408-0.57-0.605-0.846l-0.052-0.073c0.015-0.004 0.027-0.008 0.042-0.015l0.121 0.136c0.205 0.228 0.415 0.461 0.624 0.697c0.557 0.618 1.194 1.315 1.895 2.071l0.496 0.536l0.331-5.095c0.375 0.232 0.783 0.4 1.21 0.496l0.209 3.355l2.863-2.678c0.038 0.044 0.08 0.088 0.119 0.13L12.598 15.318z"></path></svg>