<svg viewBox="0 0 24 24" data-use="/cms/svg/site/nst3xcjc347.24.svg#mosquitos"><path d="M11.219 10.302v-0.367c0-0.115 0.093-0.208 0.208-0.208h0.156c0.115 0 0.208 0.093 0.208 0.208v0.367c0 0.115-0.093 0.208-0.208 0.208h-0.156C11.312 10.509 11.219 10.419 11.219 10.302zM11.427 9.231h0.156c0.115 0 0.208-0.093 0.208-0.208v-1.702c0-0.115-0.093-0.208-0.208-0.208h-0.156c-0.115 0-0.208 0.093-0.208 0.208v1.702C11.219 9.138 11.312 9.231 11.427 9.231zM11.07 21.347c0.095-0.056 0.214-0.027 0.278 0.062c0.17 0.247 0.4 0.481 0.657 0.481c0.209 0 0.442-0.174 0.66-0.494h-0.666c-0.115 0-0.208-0.093-0.208-0.208v-0.156c0-0.115 0.093-0.208 0.208-0.208h0.975c0.139-0.315 0.264-0.685 0.367-1.097H10.663c0.035 0.137 0.071 0.27 0.11 0.397c0.033 0.106-0.027 0.22-0.133 0.256l-0.148 0.05c-0.11 0.037-0.231-0.023-0.264-0.133c-0.256-0.84-0.421-1.855-0.481-2.951l-0.025-0.689c0-1.064 0.093-2.107 0.274-3.04l-0.901 1.224l0.423 6.093c0.012 0.173-0.04 0.344-0.143 0.483l-1.576 2.1c-0.068 0.091-0.199 0.11-0.291 0.042l-0.125-0.093c-0.091-0.068-0.11-0.199-0.042-0.291l1.576-2.1c0.021-0.029 0.033-0.065 0.029-0.1l-0.438-6.302l1.453-1.974l-1.639 1.36c-0.023 0.018-0.04 0.043-0.048 0.073l-2.218 7.342c-0.033 0.11-0.091 0.209-0.173 0.292L3.783 23.932c-0.079 0.083-0.212 0.085-0.292 0.004l-0.112-0.108c-0.083-0.079-0.085-0.212-0.004-0.292l2.104-2.173c0.012-0.021 0.023-0.04 0.035-0.06l2.218-7.342c0.042-0.137 0.12-0.256 0.231-0.347l0.635-0.527c-0.74 0.249-1.471 0.38-2.133 0.38C5.344 13.467 3.202 12.608 3.202 11.259c0-0.689 0.635-1.424 2.416-1.424c1.675 0 3.013 0.481 4.711 1.092l0.073 0.025c-0.217-0.541-0.334-1.175-0.334-1.844c0-0.455 0.056-0.898 0.164-1.32l-2.229-0.704c-0.307-0.098-0.513-0.386-0.505-0.707l0.104-3.911c0.002-0.073-0.048-0.134-0.118-0.151l-1.93-0.425c-0.112-0.025-0.183-0.134-0.158-0.247l0.033-0.151c0.025-0.112 0.134-0.183 0.247-0.158l1.93 0.425c0.339 0.075 0.574 0.378 0.566 0.724l-0.104 3.911c-0.002 0.066 0.042 0.126 0.106 0.148l2.235 0.706c0.125-0.307 0.281-0.573 0.461-0.789c-0.118-0.17-0.199-0.364-0.239-0.564c-0.101-0.035-0.191-0.091-0.264-0.164c-0.349-0.35-0.259-0.988 0.203-1.451c0.222-0.222 0.494-0.365 0.76-0.403c-0.125-0.166-0.256-0.317-0.388-0.455c-0.076-0.076-0.075-0.201-0.002-0.282l0.104-0.115c0.081-0.09 0.22-0.09 0.303-0.004c0.129 0.131 0.256 0.274 0.375 0.43L11.711 0.208c0-0.115 0.091-0.208 0.208-0.208l0.156 0c0.115 0 0.208 0.091 0.208 0.208l0.015 3.252c0.123-0.158 0.251-0.305 0.382-0.438c0.085-0.085 0.222-0.085 0.303 0.004l0.106 0.115c0.073 0.081 0.075 0.206-0.002 0.282c-0.134 0.137-0.266 0.291-0.39 0.457c0.264 0.042 0.53 0.183 0.745 0.4c0.463 0.463 0.552 1.1 0.203 1.451c-0.06 0.06-0.134 0.108-0.226 0.148l-0.073 0.032l-0.222-0.525l0.073-0.032c0.032-0.012 0.042-0.023 0.046-0.025c0.09-0.09 0.056-0.384-0.203-0.643c-0.257-0.257-0.555-0.292-0.643-0.203c-0.004 0.004-0.012 0.012-0.025 0.042l-0.076 0.166h-0.183c-0.051 0-0.104 0.004-0.156 0.012l-0.222 0.035l-0.087-0.208c-0.012-0.032-0.021-0.043-0.027-0.048c-0.09-0.09-0.384-0.054-0.643 0.203c-0.12 0.12-0.203 0.261-0.234 0.397c-0.025 0.108-0.012 0.201 0.032 0.247c0.027 0.027 0.071 0.042 0.129 0.043l0.266 0.008l0.01 0.266c0.008 0.226 0.1 0.44 0.257 0.604h1.519l0.085 0.087c0.222 0.231 0.411 0.535 0.563 0.909l2.223-0.701c0.065-0.021 0.106-0.081 0.106-0.148l-0.104-3.911c-0.008-0.344 0.228-0.649 0.566-0.724l1.93-0.425c0.112-0.025 0.222 0.046 0.247 0.158l0.033 0.151c0.025 0.112-0.046 0.222-0.158 0.247l-1.93 0.425c-0.071 0.015-0.12 0.079-0.118 0.151l0.104 3.911c0.008 0.32-0.199 0.61-0.505 0.707l-2.216 0.699c0.11 0.423 0.164 0.867 0.164 1.324c0 0.668-0.115 1.299-0.33 1.839l0.054-0.018c1.698-0.61 3.037-1.092 4.711-1.092c1.781 0 2.416 0.735 2.416 1.424c0 1.349-2.142 2.21-3.261 2.21c-0.662 0-1.393-0.131-2.133-0.38l0.635 0.527c0.11 0.091 0.189 0.209 0.231 0.347l2.218 7.342v0c0.007 0.023 0.018 0.043 0.035 0.06l2.104 2.173c0.079 0.083 0.076 0.214-0.004 0.292l-0.112 0.108c-0.083 0.079-0.214 0.076-0.292-0.004l-2.104-2.173c-0.079-0.083-0.139-0.183-0.173-0.292L15.719 14.125c-0.008-0.029-0.025-0.054-0.048-0.073l-1.639-1.36l1.453 1.974l-0.438 6.302c-0.002 0.035 0.008 0.073 0.029 0.101l1.576 2.1c0.068 0.091 0.05 0.222-0.042 0.291l-0.125 0.093c-0.091 0.068-0.222 0.05-0.291-0.042l-1.576-2.1c-0.104-0.139-0.154-0.309-0.143-0.483l0.423-6.093l-0.855-1.162c0.158 0.845 0.241 1.793 0.241 2.764c0 3.432-0.98 6.022-2.281 6.022c-0.292 0-0.718-0.133-1.133-0.737c-0.068-0.1-0.04-0.237 0.083-0.309L11.07 21.347zM10.135 11.462c-1.644-0.591-2.943-1.058-4.517-1.058c-1.121 0-1.844 0.334-1.844 0.853c0 0.845 1.677 1.639 2.69 1.639c1.219 0 2.748-0.523 3.936-1.341L10.135 11.462zM12.611 17.49c0.115 0 0.208 0.093 0.208 0.208v0.156c0 0.115-0.093 0.208-0.208 0.208H10.376c0.04 0.384 0.093 0.754 0.159 1.097h2.932c0.162-0.834 0.245-1.75 0.245-2.719l0-0.048H11.346c-0.115 0-0.208-0.093-0.208-0.208v-0.156c0-0.115 0.093-0.208 0.208-0.208h2.356c-0.015-0.375-0.042-0.745-0.081-1.097H10.406c-0.043 0.365-0.075 0.735-0.091 1.097h0.328V16.393h-0.104c-0.095 0.1-0.148 0.154-0.242 0.253l0.023 0.674c0.068 0.066 0.108 0.104 0.176 0.17H12.611zM12.856 11.182c0.328-0.525 0.515-1.278 0.515-2.075c0-0.921-0.256-1.795-0.668-2.291h-1.396c-0.413 0.496-0.671 1.37-0.671 2.291c0 0.797 0.187 1.551 0.516 2.075H12.856zM13.545 14.153c-0.154-0.996-0.398-1.822-0.712-2.401h-1.654c-0.291 0.546-0.535 1.395-0.696 2.401H13.545zM20.221 11.259c0-0.519-0.724-0.853-1.844-0.853c-1.576 0-2.874 0.467-4.517 1.058l-0.261 0.093c1.189 0.818 2.719 1.341 3.936 1.341C18.544 12.897 20.221 12.103 20.221 11.259z"></path></svg>