<svg xmlns="http://www.w3.org/2000/svg" width="95" height="42" viewBox="0 0 95 42" fill="none"><path d="M72.0896 6.49295L79.9524 15.3719L71.7085 24.8701H77.9251L82.9753 18.9736L87.9302 24.8701H94.3933L86.0311 15.4077L93.7362 6.59399L87.5557 6.57769L83.0049 11.806L78.5429 6.49295H72.0896Z" fill="#EAB749"></path><path d="M70.095 6.48642H65.3306V17.3667C65.3436 17.7474 65.2793 18.1268 65.1414 18.4823C65.0035 18.8378 64.7949 19.1622 64.5281 19.4361C64.2612 19.7099 63.9415 19.9277 63.588 20.0765C63.2344 20.2252 62.8544 20.3019 62.4704 20.3019C62.0864 20.3019 61.7063 20.2252 61.3528 20.0765C60.9993 19.9277 60.6796 19.7099 60.4127 19.4361C60.1459 19.1622 59.9373 18.8378 59.7994 18.4823C59.6615 18.1268 59.5971 17.7474 59.6102 17.3667V6.48642H54.79V17.3667C54.803 17.7474 54.7386 18.1268 54.6007 18.4823C54.4629 18.8378 54.2543 19.1622 53.9874 19.4361C53.7205 19.7099 53.4008 19.9277 53.0473 20.0765C52.6938 20.2252 52.3137 20.3019 51.9297 20.3019C51.5457 20.3019 51.1657 20.2252 50.8122 20.0765C50.4587 19.9277 50.1389 19.7099 49.8721 19.4361C49.6052 19.1622 49.3966 18.8378 49.2587 18.4823C49.1208 18.1268 49.0565 17.7474 49.0695 17.3667V6.48642H44.3051V17.3667C44.2855 18.3655 44.4693 19.358 44.8456 20.2847C45.2219 21.2114 45.7829 22.0532 46.495 22.7596C47.2072 23.466 48.0557 24.0226 48.9898 24.3958C49.924 24.7691 50.9245 24.9515 51.9314 24.932C53.7375 24.9452 55.4877 24.3109 56.86 23.1458L57.1524 22.8687C57.3594 23.035 57.5073 23.1458 57.5073 23.1458C58.8792 24.3114 60.6296 24.9458 62.4359 24.932C63.4425 24.9511 64.4426 24.7684 65.3764 24.3949C66.3102 24.0214 67.1583 23.4648 67.8701 22.7584C68.5818 22.052 69.1425 21.2104 69.5186 20.2839C69.8947 19.3575 70.0785 18.3652 70.0588 17.3667L70.095 6.48642Z" fill="#EAB749"></path><path d="M36.5542 8.24331C35.4929 7.22309 34.0373 6.61356 32.0921 6.61356C29.6451 6.61356 27.2983 7.57785 25.5681 9.29432C23.8378 11.0108 22.8657 13.3388 22.8657 15.7663C22.8657 18.1937 23.8378 20.5217 25.5681 22.2382C27.2983 23.9547 29.6451 24.919 32.0921 24.919C34.0373 24.919 35.4929 24.3192 36.5542 23.2892V24.919H41.3185V6.47665H36.5542V8.24331ZM32.0921 20.2481C31.2274 20.2484 30.3808 20.002 29.6533 19.5382C28.9258 19.0745 28.3482 18.4129 27.9892 17.6325C27.6302 16.852 27.5051 15.9857 27.6287 15.1366C27.7524 14.2876 28.1196 13.4918 28.6865 12.844C29.2535 12.1963 29.9962 11.724 30.8263 11.4834C31.6563 11.2429 32.5386 11.2442 33.3679 11.4873C34.1972 11.7304 34.9385 12.205 35.5035 12.8544C36.0684 13.5039 36.4331 14.3008 36.5542 15.1502V16.4084C36.4001 17.4737 35.8642 18.4482 35.0447 19.1534C34.2252 19.8586 33.177 20.2472 32.0921 20.2481Z" fill="#EAB749"></path><path d="M20.2304 13.4422C20.2304 13.4162 10.1267 6.62985 10.1267 6.62659L4.86948 10.1729V0H0.0197137L0 24.8636V24.8994C0 24.8994 0 24.919 0 24.932H4.84648C4.84648 24.8799 4.84648 24.8277 4.84648 24.7788V15.7695L10.1037 12.0341L15.3609 15.7695V24.7723C15.3609 24.8212 15.3609 24.8734 15.3609 24.9255H20.2008V24.8929L20.2304 13.4422Z" fill="#EAB749"></path><path d="M5.30038 41.9777C4.78018 41.9937 4.26281 41.896 3.78491 41.6915C3.40521 41.525 3.08101 41.2549 2.85007 40.9126C2.63265 40.577 2.52079 40.1849 2.52871 39.786H3.98941C3.98792 39.952 4.03623 40.1147 4.12818 40.2533C4.23162 40.4145 4.38185 40.5408 4.55908 40.6156C4.79776 40.7112 5.05412 40.7556 5.31134 40.746C5.54857 40.7523 5.78497 40.7155 6.00882 40.6373C6.1757 40.5786 6.32251 40.4744 6.43242 40.3367C6.52952 40.2083 6.58089 40.0516 6.57849 39.8911C6.58041 39.7918 6.55656 39.6936 6.50924 39.6061C6.46192 39.5185 6.39272 39.4445 6.30827 39.3912C6.03858 39.2424 5.73667 39.1603 5.4282 39.1521L4.93156 39.1195C4.35217 39.09 3.79829 38.8737 3.35401 38.5036C3.15821 38.3277 3.00375 38.1113 2.90153 37.8697C2.7993 37.6281 2.75182 37.3671 2.76243 37.1053C2.74699 36.7229 2.84908 36.345 3.05517 36.0215C3.26126 35.698 3.56161 35.4443 3.91638 35.294C4.75913 34.9584 5.70134 34.9662 6.53832 35.3158C6.8912 35.4788 7.18825 35.7407 7.39283 36.0693C7.59776 36.4053 7.70165 36.7924 7.69227 37.185H6.23158C6.23234 37.0301 6.19205 36.8777 6.11472 36.7431C6.03238 36.6041 5.91211 36.4911 5.7678 36.417C5.58785 36.3321 5.39002 36.2911 5.19083 36.2975C5.00294 36.2908 4.81588 36.3254 4.64307 36.3989C4.50476 36.4591 4.38866 36.5604 4.31076 36.6887C4.23828 36.813 4.20164 36.9546 4.20486 37.0981C4.2049 37.2759 4.27578 37.4465 4.40206 37.5726C4.58229 37.7308 4.8151 37.8172 5.05572 37.8153L5.56331 37.8588C6.00371 37.8922 6.43554 37.9975 6.84142 38.1704C7.18241 38.3175 7.47927 38.5496 7.70323 38.8442C7.91944 39.1474 8.02973 39.5126 8.01728 39.8838C8.02565 40.2775 7.90943 40.6639 7.68497 40.9887C7.44784 41.3123 7.12394 41.5633 6.75012 41.7132C6.28573 41.8959 5.78884 41.9834 5.28943 41.9704" fill="#333333"></path><path d="M8.72949 41.8005V36.8882H9.88709V39.0111H9.80676C9.79604 38.5831 9.86028 38.1566 9.99665 37.7504C10.1025 37.4454 10.3017 37.1807 10.5663 36.9933C10.8445 36.8158 11.1705 36.7261 11.5012 36.7361H11.5632C11.8952 36.7246 12.2228 36.8144 12.5017 36.9933C12.7664 37.1807 12.9655 37.4454 13.0714 37.7504C13.214 38.1552 13.2809 38.5824 13.2686 39.0111H12.9034C12.8912 38.5824 12.958 38.1552 13.1006 37.7504C13.2079 37.4451 13.4083 37.1805 13.6739 36.9933C13.952 36.8153 14.2781 36.7256 14.6088 36.7361H14.6709C15.005 36.7257 15.3346 36.8153 15.6167 36.9933C15.8857 37.1796 16.0899 37.4441 16.201 37.7504C16.3467 38.1545 16.4148 38.5821 16.4018 39.0111V41.8149H14.9411V38.9169C14.9507 38.6843 14.8769 38.4559 14.733 38.2721C14.6597 38.1867 14.5675 38.1194 14.4636 38.0754C14.3597 38.0314 14.2469 38.0119 14.1341 38.0185C14.019 38.0134 13.9041 38.0338 13.798 38.0783C13.6919 38.1228 13.5971 38.1902 13.5206 38.2757C13.3626 38.4627 13.2817 38.7021 13.2942 38.9459V41.8041H11.8335V38.906C11.8436 38.6728 11.7684 38.4437 11.6217 38.2612C11.5488 38.1764 11.4572 38.1093 11.3539 38.0654C11.2507 38.0214 11.1386 38.0016 11.0264 38.0076C10.9097 38.0024 10.7932 38.0227 10.6853 38.0672C10.5774 38.1116 10.4807 38.1791 10.402 38.2648C10.2456 38.4527 10.1649 38.6915 10.1756 38.935V41.7932L8.72949 41.8005Z" fill="#333333"></path><path d="M18.8417 41.9236C18.5186 41.9314 18.1979 41.867 17.9032 41.7352C17.6438 41.619 17.4242 41.4302 17.2715 41.1918C17.1157 40.9366 17.0372 40.6424 17.0451 40.3441C17.0321 40.026 17.1315 39.7133 17.3263 39.4602C17.5332 39.2164 17.8073 39.0377 18.115 38.9458C18.4934 38.8303 18.8877 38.7741 19.2836 38.7792H20.3463V39.5798H19.2763C19.0649 39.5654 18.856 39.6314 18.692 39.7645C18.623 39.8278 18.5688 39.9054 18.5335 39.9918C18.4981 40.0782 18.4824 40.1713 18.4875 40.2644C18.4839 40.3542 18.5004 40.4436 18.5358 40.5263C18.5711 40.6089 18.6245 40.6828 18.692 40.7426C18.856 40.8757 19.0649 40.9418 19.2763 40.9274C19.4265 40.9288 19.5755 40.9005 19.7145 40.8441C19.8493 40.7811 19.9614 40.6787 20.0359 40.5506C20.13 40.3729 20.18 40.1754 20.1819 39.9746L20.5252 40.3369C20.507 40.64 20.4223 40.9355 20.2769 41.2027C20.1453 41.4313 19.95 41.6175 19.7145 41.7388C19.4438 41.8723 19.1439 41.9371 18.8417 41.9272V41.9236ZM20.4266 41.804V40.355H20.1819V38.7719C20.1986 38.5648 20.1331 38.3595 19.9993 38.1996C19.92 38.1317 19.8277 38.0804 19.7279 38.0487C19.6282 38.017 19.523 38.0054 19.4187 38.0148H18.8965L18.2209 38.0366C17.9872 38.0366 17.7754 38.0583 17.5892 38.0692V36.8556C17.7353 36.8556 17.9032 36.8302 18.0895 36.8194C18.2757 36.8085 18.4546 36.7976 18.6701 36.7904H19.2288C19.666 36.7787 20.1013 36.8513 20.5106 37.0041C20.8382 37.1319 21.1159 37.3604 21.303 37.6562C21.4976 37.9967 21.5925 38.3844 21.5769 38.7756V41.7968L20.4266 41.804Z" fill="#333333"></path><path d="M22.5654 41.8005V36.8882H23.7267V39.0111H23.6975C23.6598 38.4366 23.818 37.8662 24.1466 37.3918C24.3028 37.2023 24.5021 37.0522 24.7281 36.954C24.9541 36.8557 25.2003 36.8121 25.4467 36.8267H25.6365V38.0764H25.2714C25.104 38.0657 24.9362 38.088 24.7776 38.1421C24.619 38.1962 24.4728 38.281 24.3475 38.3916C24.2319 38.5136 24.1431 38.658 24.0865 38.8158C24.03 38.9735 24.0069 39.1411 24.0188 39.3081V41.815L22.5654 41.8005Z" fill="#333333"></path><path d="M25.9473 36.8883H29.5077V37.9497H25.9473V36.8883ZM28.8102 41.8874C28.3978 41.9007 27.9865 41.8368 27.5978 41.699C27.2997 41.5828 27.0571 41.3589 26.9186 41.0723C26.7563 40.7003 26.6813 40.2964 26.6995 39.8914V35.5443H28.0507V39.9312C28.0443 40.0278 28.0575 40.1247 28.0894 40.2162C28.1214 40.3076 28.1716 40.3918 28.2369 40.4637C28.3085 40.5277 28.3922 40.5769 28.4831 40.6086C28.5739 40.6403 28.6702 40.6539 28.7664 40.6485H29.4968V41.8729L28.8102 41.8874Z" fill="#333333"></path><path d="M32.1992 35.1855H33.6855V41.8004H32.1992V35.1855ZM33.5029 39.9202V38.6451H34.6897C34.8962 38.6492 35.1005 38.6032 35.2849 38.5111C35.442 38.4214 35.569 38.2878 35.6501 38.1271C35.7405 37.9511 35.7856 37.7557 35.7816 37.5583C35.7865 37.3573 35.7414 37.1582 35.6501 36.9787C35.569 36.8179 35.442 36.6844 35.2849 36.5947C35.1005 36.5026 34.8962 36.4566 34.6897 36.4607H33.5029V35.1855H34.6167C35.1183 35.1709 35.617 35.2661 36.0774 35.4645C36.4588 35.6307 36.7808 35.9072 37.0013 36.2578C37.2234 36.6287 37.3349 37.0546 37.3226 37.4859V37.6308C37.3338 38.0585 37.2223 38.4806 37.0013 38.848C36.7808 39.1986 36.4588 39.4751 36.0774 39.6413C35.6176 39.8414 35.1185 39.9367 34.6167 39.9202H33.5029Z" fill="#333333"></path><path d="M40.2366 41.9779C39.853 41.9866 39.472 41.9137 39.1191 41.7642C38.809 41.6312 38.5322 41.432 38.3085 41.1809C38.093 40.9403 37.9257 40.6613 37.8155 40.3586C37.7038 40.0607 37.647 39.7454 37.6475 39.4276V39.2465C37.646 38.9227 37.7028 38.6013 37.8155 38.2974C37.9244 37.9981 38.0906 37.7226 38.3048 37.4859C38.5253 37.2403 38.7969 37.045 39.1009 36.9135C39.447 36.7676 39.8204 36.696 40.1964 36.7034C40.6717 36.6903 41.1403 36.8163 41.5439 37.0657C41.9006 37.2942 42.1893 37.6131 42.3801 37.9894C42.5752 38.3762 42.6753 38.8032 42.6723 39.2356V39.721H38.2902V38.9023H41.774L41.2956 39.2899C41.3015 39.031 41.2594 38.7731 41.1714 38.5292C41.1025 38.3371 40.9749 38.1712 40.8062 38.0546C40.6214 37.9373 40.4047 37.8791 40.1854 37.888C39.9594 37.8803 39.7361 37.9382 39.5428 38.0546C39.3618 38.174 39.2227 38.3461 39.1447 38.5473C39.0477 38.8042 39.0018 39.0773 39.0096 39.3515C39.0031 39.6144 39.0465 39.8761 39.1374 40.1231C39.2121 40.33 39.3516 40.5077 39.5354 40.6303C39.7429 40.7434 39.9749 40.8048 40.2115 40.8092C40.4482 40.8136 40.6823 40.7609 40.8939 40.6557C41.0448 40.5749 41.1653 40.4478 41.2372 40.2934H42.57C42.5002 40.6164 42.3538 40.9182 42.1428 41.1737C41.9281 41.4337 41.6556 41.6408 41.3467 41.7787C41.0021 41.9305 40.6282 42.0059 40.2512 41.9996" fill="#333333"></path><path d="M45.4041 41.9598C44.819 41.9932 44.2383 41.8409 43.7462 41.5251C43.5517 41.3857 43.3929 41.203 43.2825 40.9916C43.1722 40.7801 43.1134 40.546 43.1108 40.3079H44.3999C44.4162 40.393 44.4499 40.4738 44.4989 40.5455C44.5478 40.6171 44.6111 40.6781 44.6847 40.7245C44.9029 40.8599 45.1582 40.9245 45.4151 40.9093C45.6332 40.9175 45.8501 40.8727 46.0468 40.7789C46.1188 40.7484 46.1805 40.6981 46.2245 40.6339C46.2685 40.5696 46.2931 40.4942 46.2952 40.4166C46.2954 40.3476 46.2777 40.2797 46.2438 40.2194C46.2099 40.1591 46.1609 40.1085 46.1016 40.0725C45.8934 39.962 45.6621 39.9013 45.426 39.895L45.0353 39.8515C44.547 39.831 44.0773 39.66 43.6915 39.3625C43.5443 39.2324 43.4278 39.0719 43.3502 38.8922C43.2726 38.7125 43.2357 38.5181 43.2423 38.3228C43.2314 38.0111 43.3238 37.7044 43.5052 37.4497C43.6925 37.2076 43.946 37.024 44.2356 36.9208C44.5754 36.7956 44.9357 36.7342 45.2982 36.7397C45.8472 36.7142 46.3904 36.8613 46.8502 37.1599C47.0441 37.2968 47.2013 37.4785 47.3082 37.6894C47.4152 37.9003 47.4685 38.1339 47.4637 38.3699H46.1673C46.1576 38.2886 46.1304 38.2103 46.0876 38.1403C46.0447 38.0703 45.9873 38.0102 45.919 37.9641C45.7306 37.8394 45.506 37.7796 45.28 37.7939C45.0936 37.7834 44.9082 37.8275 44.7468 37.9207C44.6857 37.9544 44.6348 38.0038 44.5995 38.0637C44.5641 38.1236 44.5457 38.1918 44.546 38.2612C44.545 38.3243 44.5606 38.3866 44.5914 38.4419C44.6221 38.4972 44.6669 38.5435 44.7213 38.5764C44.8956 38.6629 45.0855 38.7146 45.28 38.7285L45.6707 38.7647C46.1842 38.7939 46.6785 38.9687 47.0949 39.2683C47.2591 39.3974 47.3903 39.5631 47.4778 39.7519C47.5654 39.9407 47.6068 40.1474 47.5988 40.355C47.6068 40.663 47.5118 40.9649 47.3286 41.2136C47.131 41.4698 46.8636 41.6646 46.5581 41.7751C46.1845 41.9128 45.788 41.9792 45.3895 41.9707" fill="#333333"></path><path d="M47.8726 36.8883H51.433V37.9497H47.8726V36.8883ZM50.7355 41.8874C50.3218 41.9011 49.9093 41.8372 49.5195 41.699C49.2227 41.5807 48.9807 41.3574 48.8403 41.0723C48.6811 40.6994 48.6075 40.296 48.6248 39.8914V35.5443H49.976V39.9312C49.9696 40.0278 49.9827 40.1247 50.0147 40.2162C50.0467 40.3076 50.0969 40.3918 50.1622 40.4637C50.2331 40.5287 50.3167 40.5786 50.4077 40.6104C50.4988 40.6421 50.5954 40.6551 50.6917 40.6485H51.4221V41.8729L50.7355 41.8874Z" fill="#333333"></path><path d="M57.1586 41.9779C56.6277 41.9916 56.1007 41.8851 55.6175 41.6664C55.2092 41.474 54.8488 41.1944 54.5622 40.8477C54.2945 40.5255 54.089 40.157 53.956 39.7609C53.8285 39.3899 53.762 39.0009 53.7588 38.6089V38.4133C53.7604 38.002 53.8282 37.5935 53.9596 37.2034C54.0911 36.8043 54.3008 36.435 54.5768 36.1166C54.8636 35.7855 55.2201 35.5209 55.6212 35.3414C56.0899 35.1358 56.5987 35.0356 57.1111 35.048C57.6581 35.0373 58.2003 35.1513 58.6959 35.3812C59.1365 35.5885 59.5143 35.9071 59.7915 36.305C60.069 36.7153 60.2362 37.1891 60.2771 37.6816H58.7799C58.7469 37.4346 58.6458 37.2014 58.4878 37.0078C58.3303 36.8209 58.13 36.6743 57.9035 36.5803C57.6495 36.4787 57.3776 36.4282 57.1038 36.4318C56.8334 36.4275 56.565 36.478 56.315 36.5803C56.0918 36.6746 55.8951 36.8213 55.7417 37.0078C55.5779 37.2019 55.4539 37.4259 55.3765 37.6671C55.2934 37.9432 55.2527 38.2302 55.256 38.5184C55.2532 38.803 55.2938 39.0863 55.3765 39.3588C55.4536 39.6013 55.5776 39.8265 55.7417 40.0217C55.9021 40.211 56.1064 40.3589 56.3369 40.4528C56.5927 40.5571 56.8675 40.6077 57.1439 40.6014C57.5563 40.6152 57.9626 40.4998 58.3052 40.2717C58.4599 40.1658 58.5909 40.0295 58.6902 39.8712C58.7894 39.7129 58.8548 39.536 58.8822 39.3516H60.3976C60.3459 39.8314 60.1741 40.2908 59.898 40.6881C59.6219 41.0853 59.2501 41.4079 58.8165 41.6265C58.3063 41.8774 57.7424 42.0017 57.1732 41.9888" fill="#333333"></path><path d="M63.6561 41.978C63.2609 41.9856 62.868 41.918 62.4985 41.7787C62.1761 41.6526 61.8829 41.4628 61.6367 41.2208C61.4062 40.989 61.2238 40.7145 61.0999 40.413C60.9796 40.1071 60.9189 39.7814 60.9209 39.453V39.2465C60.9189 38.9125 60.9835 38.5813 61.1108 38.2721C61.2368 37.9669 61.4231 37.6897 61.6586 37.457C61.9075 37.2183 62.2016 37.0312 62.5241 36.9063C63.2593 36.6368 64.0675 36.6368 64.8027 36.9063C65.1223 37.0304 65.4131 37.2178 65.6573 37.457C65.8928 37.6897 66.079 37.9669 66.205 38.2721C66.3306 38.5818 66.3951 38.9126 66.3949 39.2465V39.453C66.3958 39.7816 66.3338 40.1074 66.2123 40.413C66.0911 40.7142 65.9111 40.9887 65.6828 41.2208C65.4383 41.4631 65.1462 41.653 64.8247 41.7787C64.4515 41.9186 64.0549 41.9862 63.6561 41.978ZM63.6561 40.7571C63.9049 40.7657 64.1509 40.7028 64.3645 40.576C64.5537 40.4544 64.7014 40.2789 64.7881 40.0725C64.8897 39.8445 64.9396 39.5972 64.9342 39.348C64.9391 39.0926 64.888 38.8392 64.7845 38.6053C64.6906 38.4001 64.5399 38.2255 64.3499 38.1018C64.1396 37.983 63.9018 37.9205 63.6598 37.9205C63.4177 37.9205 63.1799 37.983 62.9696 38.1018C62.7776 38.2252 62.6245 38.3997 62.5277 38.6053C62.4315 38.835 62.3819 39.0812 62.3819 39.3298C62.3819 39.5785 62.4315 39.8247 62.5277 40.0544C62.6162 40.263 62.7681 40.4391 62.9623 40.5579C63.1728 40.6825 63.4147 40.7453 63.6598 40.739" fill="#333333"></path><path d="M67.1978 41.8005V36.8882H68.3554V39.0002H68.275C68.2635 38.5731 68.329 38.1474 68.4686 37.7432C68.5779 37.4338 68.7872 37.169 69.0638 36.9897C69.3545 36.8132 69.6909 36.7251 70.0315 36.7361H70.0972C70.347 36.7208 70.5969 36.7636 70.8271 36.8611C71.0572 36.9586 71.2612 37.1081 71.4228 37.2976C71.7648 37.7975 71.9257 38.3978 71.8793 39.0002V41.8149H70.4186V38.9169C70.4292 38.6815 70.3467 38.4514 70.1885 38.2757C70.1076 38.1913 70.0093 38.1253 69.9002 38.0821C69.7912 38.039 69.674 38.0198 69.5568 38.0257C69.436 38.0204 69.3155 38.0402 69.2029 38.0838C69.0903 38.1275 68.9882 38.1941 68.9031 38.2793C68.8178 38.367 68.7515 38.471 68.7082 38.585C68.6648 38.699 68.6454 38.8205 68.6511 38.9422V41.8113L67.1978 41.8005Z" fill="#333333"></path><path d="M72.2695 36.8883H75.8336V37.9497H72.2695V36.8883ZM75.1325 41.8874C74.72 41.9007 74.3087 41.8368 73.9201 41.699C73.6233 41.5807 73.3814 41.3574 73.2409 41.0723C73.0785 40.7003 73.0036 40.2964 73.0218 39.8914V35.5443H74.3729V39.9312C74.366 40.0276 74.3786 40.1243 74.41 40.2158C74.4414 40.3072 74.4908 40.3915 74.5555 40.4637C74.6276 40.5281 74.7118 40.5776 74.8034 40.6093C74.8949 40.641 74.9919 40.6544 75.0887 40.6485H75.819V41.8729L75.1325 41.8874Z" fill="#333333"></path><path d="M76.5171 41.8005V36.8882H77.6783V39.0111H77.6491C77.6114 38.4366 77.7696 37.8662 78.0983 37.3918C78.2545 37.2023 78.4537 37.0522 78.6797 36.954C78.9057 36.8557 79.152 36.8121 79.3983 36.8267H79.5882V38.0764H79.223C79.0557 38.0657 78.8878 38.088 78.7292 38.1421C78.5706 38.1962 78.4244 38.281 78.2991 38.3916C78.1842 38.5139 78.0961 38.6585 78.0401 38.8162C77.9842 38.9739 77.9617 39.1414 77.9741 39.3081V41.815L76.5171 41.8005Z" fill="#333333"></path><path d="M82.5095 41.9779C82.1144 41.9856 81.7214 41.9179 81.352 41.7787C81.0282 41.6578 80.7325 41.4729 80.4828 41.2353C80.2522 41.0043 80.0709 40.7295 79.9497 40.4275C79.8282 40.1218 79.7662 39.7961 79.7671 39.4675V39.261C79.7669 38.9271 79.8314 38.5963 79.957 38.2865C80.083 37.9813 80.2692 37.7042 80.5047 37.4714C80.7542 37.2335 81.0482 37.0465 81.3702 36.9208C82.1055 36.6512 82.9136 36.6512 83.6489 36.9208C83.9691 37.0457 84.2609 37.2329 84.5071 37.4714C84.74 37.7055 84.9248 37.9824 85.0512 38.2865C85.1768 38.5963 85.2412 38.9271 85.2411 39.261V39.4675C85.2419 39.7961 85.18 40.1218 85.0585 40.4275C84.9408 40.7288 84.7632 41.0035 84.5363 41.2353C84.2922 41.4765 84.0016 41.6662 83.6818 41.7932C83.3073 41.9327 82.9095 42.0003 82.5095 41.9924V41.9779ZM82.5095 40.7716C82.7584 40.7806 83.0045 40.7177 83.218 40.5905C83.4073 40.4681 83.556 40.2929 83.6452 40.0869C83.7438 39.8581 83.7923 39.6112 83.7877 39.3624C83.7943 39.1069 83.7432 38.8531 83.6379 38.6198C83.544 38.4146 83.3933 38.24 83.2034 38.1163C82.9931 37.9975 82.7552 37.935 82.5132 37.935C82.2712 37.935 82.0333 37.9975 81.823 38.1163C81.6311 38.2387 81.4789 38.4135 81.3848 38.6198C81.2796 38.8531 81.2284 39.1069 81.2351 39.3624C81.2304 39.6112 81.279 39.8581 81.3775 40.0869C81.4672 40.2948 81.6188 40.4705 81.8121 40.5905C82.0226 40.7151 82.2645 40.7779 82.5095 40.7716Z" fill="#333333"></path><path d="M85.4673 35.24H87.5123V36.2977H85.4673V35.24ZM86.0552 35.24H87.5159V41.8004H86.0552V35.24Z" fill="#333333"></path></svg>