<svg viewBox="0 0 24 24" data-use="/cms/svg/site/nst3xcjc347.24.svg#wood_destroying_insect"><path d="M21.285 10.524c-0.049-0.157-0.215-0.241-0.373-0.191l-1.752 0.56c-0.025 0.008-0.049 0.02-0.073 0.036L16.64 12.538l-3.033-0.022c-0.03-0.112-0.083-0.22-0.165-0.318c-0.04-0.047-0.085-0.091-0.134-0.134c0.259-0.397 0.441-0.85 0.502-1.177l1.621-0.429c0.079-0.022 0.146-0.073 0.186-0.146l1.042-1.939l2.809-1.574c0.142-0.079 0.194-0.261 0.115-0.403c-0.079-0.142-0.261-0.194-0.403-0.115l-2.885 1.615c-0.049 0.028-0.089 0.07-0.117 0.119l-1.022 1.902l-1.417 0.373c-0.032-0.062-0.067-0.123-0.115-0.178c-0.267-0.324-0.759-0.542-1.329-0.599v-0.275c0.008 0 0.014 0.002 0.022 0.002c0.149 0.017 0.301 0.038 0.52 0.016c0.633-0.065 1.164-0.452 1.386-0.987c0.346-0.115 0.595-0.475 0.595-0.908c0-0.332-0.146-0.633-0.391-0.808c-0.125-0.089-0.267-0.133-0.41-0.136c-0.093-0.176-0.196-0.34-0.31-0.494l3.136-0.326c0.144-0.016 0.255-0.13 0.265-0.275c0.16-2.458 0.16-2.458 1.169-4.911c0.062-0.152-0.009-0.324-0.162-0.388c-0.152-0.063-0.324 0.009-0.388 0.162c-0.998 2.434-1.044 2.561-1.196 4.848l-2.964 0.308c0.112-0.53-0.024-1.143-0.389-1.566c-0.107-0.125-0.294-0.138-0.419-0.03s-0.138 0.294-0.032 0.419c0.233 0.27 0.328 0.679 0.265 1.024c-0.245-0.196-0.522-0.384-0.85-0.569c-0.091-0.051-0.202-0.051-0.293 0c-0.328 0.186-0.605 0.373-0.848 0.569c-0.063-0.344 0.032-0.753 0.265-1.024c0.107-0.125 0.093-0.31-0.032-0.419s-0.31-0.093-0.419 0.03c-0.365 0.423-0.502 1.036-0.389 1.566l-2.966-0.308c-0.152-2.287-0.196-2.414-1.194-4.848c-0.062-0.152-0.236-0.223-0.388-0.162c-0.152 0.062-0.223 0.236-0.162 0.388c1.008 2.453 1.008 2.453 1.169 4.911c0.009 0.144 0.123 0.261 0.265 0.275l3.136 0.326c-0.115 0.154-0.217 0.32-0.31 0.497c-0.144 0.006-0.285 0.047-0.41 0.136c-0.245 0.174-0.391 0.476-0.391 0.808c0 0.435 0.249 0.792 0.595 0.908c0.221 0.534 0.755 0.921 1.388 0.987c0.071 0.008 0.134 0.009 0.191 0.009c0.125 0 0.228-0.012 0.328-0.025c0.008 0 0.016-0.002 0.022-0.002v0.275c-0.568 0.057-1.061 0.275-1.329 0.599c-0.046 0.057-0.083 0.117-0.112 0.178l-1.416-0.373l-1.022-1.902c-0.028-0.049-0.067-0.091-0.117-0.119l-2.885-1.615c-0.142-0.079-0.324-0.03-0.403 0.115c-0.081 0.142-0.03 0.324 0.115 0.403l2.809 1.574l1.042 1.939c0.04 0.073 0.107 0.125 0.186 0.146l1.619 0.429c0.062 0.326 0.244 0.779 0.502 1.177c-0.049 0.041-0.095 0.087-0.133 0.133c-0.081 0.099-0.134 0.206-0.166 0.318L7.361 12.538l-2.448-1.612c-0.022-0.016-0.047-0.025-0.073-0.036l-1.752-0.56c-0.157-0.049-0.323 0.036-0.373 0.191c-0.049 0.157 0.036 0.323 0.191 0.373l1.712 0.547l2.49 1.639c0.049 0.032 0.104 0.049 0.165 0.049c0 0 0.002 0 0.002 0l3.149-0.022c0.085 0.36 0.259 0.848 0.506 1.264l-3.11 1.327c-0.078 0.033-0.136 0.096-0.165 0.176l-1.256 3.613L3.799 22.357c-0.111 0.12-0.101 0.308 0.02 0.419c0.057 0.051 0.128 0.078 0.199 0.078c0.081 0 0.162-0.033 0.22-0.096l2.642-2.914c0.028-0.03 0.047-0.063 0.062-0.101l1.234-3.547l3.124-1.333c0.125 0.127 0.261 0.225 0.407 0.285v0.55c-1.267 0.157-2.294 1.293-2.491 2.823c0 0 0 0 0 0.002c-0.022 0.17-0.033 0.344-0.033 0.522c0 0.747 0.115 1.449 0.344 2.09c0 0 0 0 0 0s0 0 0 0c0 0 0 0 0 0c0 0 0 0 0 0c0.716 2.021 2.284 2.801 2.349 2.835c0.041 0.02 0.085 0.03 0.13 0.03s0.089-0.009 0.13-0.03c0.067-0.032 1.636-0.815 2.349-2.835c0 0 0 0 0 0c0 0 0 0 0 0c0 0 0 0 0 0s0 0 0 0c0.228-0.641 0.344-1.344 0.344-2.09c0-0.176-0.012-0.352-0.033-0.522c0 0 0 0 0-0.002c-0.199-1.53-1.224-2.669-2.491-2.823v-0.55c0.146-0.059 0.281-0.158 0.407-0.285l3.124 1.333l1.234 3.547c0.014 0.038 0.033 0.073 0.062 0.101l2.642 2.914c0.059 0.065 0.138 0.096 0.22 0.096c0.071 0 0.142-0.025 0.199-0.078c0.12-0.111 0.13-0.297 0.02-0.419L17.601 19.488l-1.256-3.613c-0.028-0.079-0.087-0.142-0.165-0.176l-3.112-1.327c0.245-0.415 0.419-0.903 0.505-1.264l3.152 0.022c0 0 0.002 0 0.002 0c0.057 0 0.115-0.017 0.165-0.049l2.49-1.639l1.712-0.547C21.248 10.846 21.335 10.679 21.285 10.524zM13.036 12.805c-0.046 0.356-0.32 1.077-0.625 1.493c-0.016 0.016-0.03 0.036-0.041 0.057c-0.125 0.157-0.251 0.259-0.37 0.259c-0.119 0-0.245-0.103-0.37-0.259c-0.012-0.02-0.025-0.038-0.041-0.054c-0.304-0.415-0.579-1.139-0.625-1.495c0-0.002 0-0.002 0-0.004c-0.004-0.033-0.006-0.063-0.006-0.089c0-0.043 0.02-0.089 0.059-0.134c0.014-0.016 0.028-0.032 0.043-0.047c0.016 0.016 0.033 0.03 0.049 0.046c0.017 0.016 0.033 0.032 0.051 0.047c0.022 0.017 0.043 0.036 0.065 0.054c0.249 0.199 0.512 0.304 0.775 0.304c0.265 0 0.526-0.107 0.775-0.307c0.022-0.017 0.041-0.033 0.063-0.051c0.017-0.016 0.033-0.032 0.051-0.047c0.016-0.016 0.032-0.03 0.049-0.046c0.016 0.016 0.032 0.032 0.046 0.047c0.038 0.046 0.057 0.091 0.057 0.134c0 0.025-0.002 0.055-0.006 0.089C13.036 12.801 13.036 12.803 13.036 12.805zM13.996 7.72c-0.004 0-0.009 0-0.014 0c-0.095-0.006-0.198-0.119-0.221-0.283c-0.004-0.024-0.006-0.047-0.006-0.073c0-0.186 0.096-0.318 0.191-0.35c0.008-0.002 0.024-0.008 0.046-0.008c0.024 0 0.057 0.008 0.093 0.033c0.07 0.049 0.142 0.16 0.142 0.324C14.23 7.571 14.107 7.718 13.996 7.72zM9.914 7.04c0.036-0.025 0.067-0.033 0.093-0.033c0.022 0 0.04 0.006 0.049 0.009c0.091 0.032 0.19 0.165 0.19 0.348c0 0.206-0.119 0.35-0.228 0.356c-0.004 0-0.009 0-0.014 0c-0.109-0.002-0.231-0.15-0.231-0.356C9.771 7.2 9.844 7.089 9.914 7.04zM11.608 8.655c-0.13 0.016-0.236 0.03-0.388 0.014c-0.348-0.036-0.65-0.214-0.821-0.467c0.017-0.012 0.036-0.025 0.051-0.038c0.008-0.006 0.017-0.012 0.025-0.02c0.04-0.032 0.075-0.065 0.109-0.103c0.006-0.008 0.012-0.016 0.02-0.024c0.028-0.032 0.051-0.067 0.075-0.104c0.008-0.012 0.014-0.022 0.02-0.033c0.025-0.046 0.049-0.093 0.067-0.142c0.002-0.006 0.004-0.014 0.006-0.02c0.016-0.046 0.028-0.091 0.038-0.138c0.002-0.014 0.006-0.03 0.008-0.043c0.008-0.055 0.016-0.112 0.016-0.17c0-0.065-0.008-0.13-0.017-0.191C10.815 7.154 10.811 7.138 10.807 7.121c-0.012-0.047-0.025-0.095-0.041-0.138c-0.006-0.014-0.009-0.028-0.016-0.04c-0.024-0.055-0.051-0.109-0.085-0.158c-0.006-0.008-0.012-0.016-0.017-0.022c-0.03-0.041-0.062-0.079-0.096-0.115c-0.006-0.006-0.009-0.012-0.016-0.017c0.136-0.247 0.304-0.482 0.542-0.718c0.002-0.002 0.004-0.004 0.008-0.006c0.004-0.004 0.008-0.008 0.012-0.012c0.228-0.221 0.516-0.443 0.902-0.674c0.388 0.231 0.676 0.452 0.906 0.676c0.002 0.002 0.006 0.004 0.008 0.008c0.002 0.002 0.002 0.002 0.004 0.004c0.002 0.002 0.004 0.004 0.006 0.004c0.239 0.236 0.407 0.471 0.544 0.72c-0.006 0.006-0.012 0.014-0.017 0.02c-0.033 0.033-0.063 0.07-0.091 0.107c-0.008 0.009-0.014 0.017-0.022 0.028c-0.032 0.047-0.059 0.101-0.083 0.157c-0.006 0.014-0.009 0.028-0.016 0.041c-0.017 0.043-0.03 0.091-0.041 0.138c-0.004 0.017-0.008 0.033-0.012 0.054c-0.012 0.063-0.017 0.127-0.017 0.191c0 0.059 0.006 0.115 0.016 0.17c0.002 0.014 0.006 0.03 0.008 0.043c0.009 0.047 0.022 0.095 0.038 0.138c0.002 0.006 0.004 0.014 0.006 0.02c0.02 0.049 0.041 0.096 0.067 0.142c0.006 0.012 0.014 0.022 0.02 0.033c0.024 0.038 0.047 0.071 0.075 0.104c0.006 0.008 0.012 0.016 0.017 0.024c0.033 0.038 0.07 0.071 0.109 0.103c0.008 0.006 0.017 0.012 0.025 0.02c0.017 0.012 0.033 0.025 0.051 0.038c-0.17 0.253-0.471 0.431-0.819 0.467c-0.152 0.016-0.257 0.002-0.388-0.014c-0.107-0.014-0.229-0.028-0.389-0.028c-0.002 0-0.004 0-0.006 0C11.838 8.625 11.717 8.641 11.608 8.655zM12 10.093c0.579 0 1.003 0.199 1.164 0.397c0.051 0.063 0.078 0.125 0.078 0.183c0 0.221-0.233 0.845-0.585 1.28c-0.223 0.278-0.457 0.431-0.658 0.431c-0.032 0-0.065-0.006-0.099-0.012c-0.178-0.04-0.373-0.183-0.562-0.419c-0.352-0.433-0.584-1.056-0.584-1.28c0-0.059 0.025-0.12 0.078-0.183C10.997 10.294 11.42 10.093 12 10.093zM10.254 18.713c0.028-0.004 0.054-0.008 0.081-0.012c0.154-0.024 0.312-0.043 0.473-0.059c0.028-0.002 0.055-0.006 0.083-0.008c0.165-0.016 0.332-0.028 0.502-0.036c0.02-0.002 0.041-0.002 0.063-0.002c0.18-0.008 0.362-0.014 0.546-0.014c0.183 0 0.365 0.006 0.546 0.014c0.02 0 0.041 0.002 0.062 0.002c0.17 0.008 0.338 0.022 0.502 0.036c0.028 0.002 0.055 0.006 0.083 0.008c0.16 0.016 0.318 0.036 0.473 0.059c0.028 0.004 0.054 0.008 0.081 0.012c0.154 0.024 0.307 0.051 0.451 0.083c0.008 0.002 0.016 0.004 0.024 0.006c0.006 0.079 0.008 0.16 0.008 0.239c0 0.615-0.085 1.196-0.255 1.73c-0.071 0.012-0.141 0.025-0.214 0.038c-0.057 0.009-0.115 0.02-0.174 0.028c-0.127 0.017-0.255 0.032-0.386 0.046c-0.04 0.004-0.079 0.009-0.119 0.012c-0.708 0.063-1.463 0.063-2.171 0c-0.036-0.004-0.071-0.008-0.109-0.012c-0.134-0.014-0.265-0.028-0.395-0.046c-0.057-0.008-0.112-0.017-0.168-0.025c-0.073-0.012-0.146-0.024-0.217-0.038c-0.168-0.534-0.255-1.114-0.255-1.73c0-0.081 0.002-0.16 0.008-0.239c0.008-0.002 0.016-0.004 0.024-0.006C9.947 18.764 10.099 18.739 10.254 18.713zM12 23.359c-0.323-0.196-1.169-0.792-1.72-1.944c0.157 0.022 0.318 0.041 0.481 0.057c0.07 0.006 0.138 0.012 0.207 0.017c0.093 0.008 0.186 0.014 0.281 0.02c0.089 0.006 0.18 0.009 0.269 0.014c0.07 0.002 0.141 0.004 0.21 0.004c0.091 0.002 0.18 0.006 0.27 0.006c0.091 0 0.182-0.004 0.273-0.006c0.07-0.002 0.138-0.002 0.207-0.004c0.091-0.004 0.182-0.008 0.27-0.014c0.093-0.006 0.186-0.012 0.278-0.02c0.07-0.006 0.141-0.012 0.21-0.017c0.162-0.016 0.324-0.033 0.481-0.057C13.17 22.562 12.319 23.164 12 23.359zM14.117 18.175c-0.016-0.002-0.032-0.004-0.047-0.008c-0.142-0.025-0.286-0.049-0.435-0.07c-0.02-0.002-0.041-0.004-0.062-0.008c-0.141-0.017-0.283-0.033-0.427-0.047c-0.025-0.002-0.051-0.006-0.079-0.008c-0.154-0.014-0.312-0.024-0.471-0.032c-0.033-0.002-0.067-0.002-0.101-0.004c-0.165-0.006-0.331-0.009-0.497-0.009c-0.166 0-0.332 0.004-0.497 0.009c-0.033 0.002-0.067 0.002-0.101 0.004c-0.158 0.008-0.316 0.017-0.471 0.032c-0.025 0.002-0.054 0.006-0.079 0.008c-0.144 0.014-0.286 0.03-0.427 0.047c-0.02 0.002-0.041 0.004-0.062 0.008c-0.149 0.02-0.293 0.043-0.435 0.07c-0.016 0.002-0.032 0.004-0.047 0.008c0.297-1.111 1.151-1.904 2.116-1.906c0 0 0.002 0 0.002 0s0.002 0 0.002 0C12.966 16.269 13.821 17.063 14.117 18.175z"></path></svg>