<svg viewBox="0 0 24 24" data-use="/cms/svg/site/nst3xcjc347.24.svg#ants"><path d="M10.852 4.76c-0.46-0.513-0.419-1.195-0.213-1.543c0.09-0.152 0.284-0.203 0.437-0.113c0.152 0.09 0.203 0.284 0.113 0.437c-0.075 0.128-0.152 0.6 0.278 0.917c0.004 0.004 0.009 0.009 0.016 0.013c0.169-0.046 0.342-0.072 0.52-0.072c0.178 0 0.351 0.026 0.52 0.072c0.004-0.004 0.009-0.009 0.016-0.013c0.43-0.319 0.353-0.792 0.278-0.917c-0.09-0.152-0.04-0.348 0.113-0.437c0.152-0.09 0.348-0.04 0.437 0.113c0.205 0.348 0.247 1.027-0.213 1.543c0.608 0.404 1.095 1.127 1.347 2.059c0.134 0.503-0.046 1.019-0.476 1.347c-0.139 0.108-0.34 0.081-0.447-0.06c-0.108-0.139-0.081-0.34 0.06-0.447c0.108-0.081 0.346-0.313 0.247-0.677c-0.313-1.164-1.067-1.947-1.88-1.947c-0.811 0-1.568 0.783-1.88 1.947c-0.071 0.263 0.031 0.52 0.269 0.692c0.143 0.104 0.176 0.302 0.072 0.445c-0.062 0.086-0.16 0.132-0.26 0.132c-0.063 0-0.131-0.019-0.185-0.06c-0.457-0.328-0.653-0.855-0.513-1.376C9.757 5.887 10.243 5.163 10.852 4.76zM14.415 10.328c0 0.959-0.469 1.797-1.168 2.259c0.201 0.414 0.309 0.919 0.309 1.457c0 0.459-0.084 0.907-0.236 1.289c1.307 0.663 2.235 2.282 2.235 4.171c0 2.478-1.594 4.493-3.554 4.493c-1.959 0-3.554-2.015-3.554-4.493c0-1.889 0.926-3.508 2.235-4.171c-0.152-0.381-0.236-0.829-0.236-1.289c0-0.536 0.11-1.042 0.309-1.457c-0.698-0.463-1.168-1.303-1.168-2.259c0-1.457 1.083-2.644 2.414-2.644C13.333 7.686 14.415 8.872 14.415 10.328zM12 15.651c-1.607 0-2.914 1.728-2.914 3.855c0 2.125 1.307 3.855 2.914 3.855c1.607 0 2.914-1.728 2.914-3.855C14.917 17.381 13.608 15.651 12 15.651zM12.671 12.866c-0.213 0.069-0.439 0.106-0.67 0.106c-0.234 0-0.459-0.037-0.67-0.106c-0.157 0.328-0.245 0.745-0.245 1.18c0 0.384 0.069 0.751 0.192 1.06c0.234-0.062 0.476-0.095 0.723-0.095c0.247 0 0.489 0.034 0.723 0.095c0.123-0.309 0.192-0.677 0.192-1.06C12.917 13.609 12.829 13.193 12.671 12.866zM13.777 10.328c0-1.104-0.795-2.004-1.777-2.004s-1.777 0.899-1.777 2.004s0.795 2.004 1.777 2.004S13.777 11.436 13.777 10.328zM3.513 5.922L6.319 8.003c0.09 0.066 0.216 0.236 0.254 0.342l0.88 2.459c0.081 0.225 0.278 0.496 0.467 0.639l1.718 1.307c0.057 0.044 0.125 0.066 0.194 0.066c0.097 0 0.192-0.044 0.254-0.125c0.106-0.141 0.079-0.34-0.06-0.447l-1.718-1.307c-0.093-0.071-0.216-0.238-0.254-0.348l-0.88-2.459c-0.081-0.228-0.28-0.496-0.474-0.639l-2.806-2.081c-0.141-0.106-0.342-0.075-0.445 0.066C3.34 5.616 3.372 5.816 3.513 5.922zM1.921 17.547c0.034 0 0.066-0.004 0.099-0.016l2.213-0.723c0.207-0.069 0.487-0.225 0.654-0.363l2.935-2.476c0.075-0.062 0.249-0.123 0.346-0.119l1.651 0.055c0.176 0.004 0.325-0.132 0.331-0.309c0.007-0.176-0.132-0.325-0.309-0.331l-1.651-0.055c-0.254-0.009-0.584 0.106-0.78 0.272L4.476 15.954c-0.104 0.086-0.313 0.203-0.441 0.245L1.822 16.923c-0.168 0.055-0.26 0.236-0.205 0.401C1.661 17.461 1.787 17.547 1.921 17.547zM9.728 14.67L7.464 17.011c-0.166 0.172-0.322 0.466-0.369 0.701L6.518 20.545c-0.025 0.119-0.122 0.322-0.201 0.414l-2.123 2.515c-0.115 0.134-0.097 0.335 0.037 0.45c0.06 0.051 0.132 0.075 0.205 0.075c0.09 0 0.181-0.037 0.245-0.113l2.123-2.515c0.148-0.175 0.293-0.474 0.337-0.698l0.578-2.832c0.025-0.115 0.122-0.3 0.203-0.384l2.265-2.344c0.123-0.125 0.119-0.328-0.007-0.451C10.051 14.54 9.848 14.542 9.728 14.67zM9.399 5.607c0.062 0.063 0.146 0.097 0.229 0.097c0.079 0 0.16-0.031 0.222-0.09c0.125-0.123 0.131-0.325 0.007-0.451l-1.545-1.589c-0.042-0.044-0.072-0.163-0.055-0.222l0.866-2.941c0.051-0.169-0.046-0.346-0.216-0.397c-0.169-0.051-0.346 0.046-0.397 0.216l-0.866 2.941c-0.084 0.282 0.004 0.637 0.21 0.847L9.399 5.607zM15.695 10.935l-1.718 1.307c-0.141 0.106-0.168 0.307-0.06 0.447c0.062 0.081 0.159 0.125 0.254 0.125c0.069 0 0.134-0.022 0.194-0.066l1.718-1.307c0.19-0.146 0.388-0.414 0.469-0.639l0.88-2.459c0.037-0.106 0.163-0.275 0.254-0.342l2.809-2.081c0.141-0.106 0.172-0.304 0.066-0.445c-0.106-0.141-0.304-0.172-0.445-0.066l-2.809 2.081c-0.194 0.143-0.392 0.413-0.474 0.639l-0.877 2.459C15.909 10.694 15.786 10.865 15.695 10.935zM19.527 15.954L16.591 13.479c-0.196-0.166-0.522-0.278-0.78-0.272l-1.651 0.055c-0.176 0.007-0.313 0.154-0.309 0.331c0.007 0.176 0.152 0.31 0.331 0.309l1.651-0.055c0.099-0.002 0.272 0.057 0.346 0.119l2.935 2.476c0.166 0.141 0.447 0.298 0.654 0.363l2.213 0.723c0.034 0.011 0.066 0.016 0.099 0.016c0.134 0 0.26-0.086 0.304-0.22c0.055-0.168-0.037-0.348-0.205-0.404L19.966 16.201C19.838 16.16 19.628 16.043 19.527 15.954zM17.684 20.96c-0.079-0.093-0.176-0.295-0.201-0.414l-0.578-2.832c-0.049-0.234-0.203-0.529-0.369-0.701L14.273 14.67c-0.123-0.128-0.325-0.131-0.451-0.007c-0.125 0.123-0.131 0.325-0.007 0.451l2.265 2.344c0.081 0.084 0.178 0.272 0.203 0.384l0.578 2.832c0.046 0.225 0.192 0.525 0.337 0.698l2.123 2.515c0.063 0.075 0.154 0.113 0.245 0.113c0.072 0 0.146-0.025 0.205-0.075c0.134-0.115 0.152-0.316 0.037-0.45L17.684 20.96zM14.372 5.704c0.084 0 0.166-0.034 0.229-0.097l1.545-1.589c0.205-0.21 0.293-0.566 0.21-0.847L15.49 0.23c-0.051-0.169-0.228-0.266-0.397-0.216c-0.169 0.051-0.265 0.228-0.216 0.397l0.866 2.941c0.018 0.057-0.013 0.178-0.055 0.222l-1.545 1.589c-0.123 0.125-0.119 0.328 0.007 0.451C14.212 5.675 14.293 5.704 14.372 5.704zM9.961 17.75c-0.159-0.075-0.351-0.007-0.423 0.154c-0.075 0.159-0.007 0.351 0.154 0.423c0.642 0.3 1.462 0.463 2.31 0.463c0.84 0 1.653-0.16 2.291-0.457c0.16-0.072 0.229-0.263 0.157-0.423c-0.072-0.16-0.263-0.229-0.423-0.157c-0.556 0.256-1.274 0.397-2.024 0.397C11.244 18.153 10.519 18.009 9.961 17.75zM13.771 21.226c-0.516 0.238-1.127 0.363-1.77 0.363c-0.628 0-1.23-0.122-1.739-0.351c-0.16-0.072-0.351 0-0.422 0.16c-0.072 0.16 0 0.351 0.16 0.422c0.591 0.265 1.283 0.406 2.002 0.406c0.734 0 1.437-0.146 2.037-0.423c0.16-0.072 0.229-0.263 0.157-0.423C14.119 21.222 13.93 21.151 13.771 21.226z"></path></svg>