<svg viewBox="0 0 24 24" data-use="/cms/svg/site/nst3xcjc347.24.svg#bed_bugs"><path d="M16.426 20.161c1.049-1.198 1.478-2.768 1.243-4.541c-0.281-2.112-1.049-4.872-2.358-6.737c-0.006-0.008-0.012-0.016-0.018-0.024c-0.332-0.47-0.7-0.884-1.104-1.214c-0.139-0.115-0.345-0.093-0.458 0.047c-0.115 0.139-0.093 0.345 0.047 0.458c0.345 0.282 0.663 0.633 0.954 1.034c1.263 3.752-0.222 5.345-0.92 5.856c-1.069 0.783-2.562 0.783-3.629-0.002c-0.696-0.512-2.17-2.104-0.905-5.846c0.284-0.397 0.597-0.746 0.934-1.026c0.139-0.115 0.157-0.321 0.042-0.46c-0.115-0.139-0.321-0.157-0.46-0.042C7.831 9.295 6.72 12.841 6.334 15.618c-0.244 1.763 0.178 3.328 1.22 4.526c1.061 1.218 2.723 1.946 4.446 1.946C13.739 22.092 15.351 21.387 16.426 20.161zM12.002 21.438c-1.537 0-3.016-0.644-3.955-1.723c-0.916-1.051-1.285-2.438-1.067-4.008c0.19-1.368 0.585-3.014 1.194-4.478c-0.16 1.884 0.395 3.431 1.622 4.333c0.647 0.476 1.424 0.714 2.201 0.714c0.775 0 1.551-0.238 2.199-0.712c1.239-0.908 1.798-2.469 1.631-4.372c0.62 1.475 1.013 3.135 1.196 4.512c0.21 1.581-0.165 2.973-1.088 4.026C14.998 20.801 13.527 21.438 12.002 21.438zM10.469 7.441c0 1.045 0.771 1.591 1.531 1.591c0.76 0 1.531-0.547 1.531-1.591c0-2.532-1.172-2.729-1.531-2.729C11.639 4.712 10.469 4.909 10.469 7.441zM12.878 7.441c0 0.65-0.442 0.94-0.878 0.94c-0.437 0-0.878-0.29-0.878-0.94c0-1.281 0.337-2.075 0.878-2.075C12.54 5.363 12.878 6.16 12.878 7.441zM17.422 4.508c0.378-1.233-0.343-2.421-0.69-2.993c-0.093-0.153-0.044-0.355 0.109-0.448c0.153-0.093 0.355-0.044 0.448 0.109c0.395 0.652 1.218 2.011 0.754 3.522c-0.363 1.186-1.454 2.204-3.242 3.026c-0.044 0.02-0.09 0.031-0.136 0.031c-0.123 0-0.242-0.071-0.297-0.19c-0.074-0.163-0.004-0.357 0.16-0.432C16.144 6.392 17.115 5.508 17.422 4.508zM19.85 8.022c0.549-0.607 0.779-1.412 0.679-2.388c-0.018-0.179 0.113-0.339 0.292-0.357c0.179-0.018 0.339 0.113 0.357 0.292c0.117 1.168-0.168 2.142-0.846 2.89c-1.013 1.12-2.769 1.515-3.968 1.515c-0.179 0-0.327-0.145-0.327-0.327c0-0.179 0.145-0.327 0.327-0.327C16.604 9.323 18.707 9.287 19.85 8.022zM21.64 13.454c0.714-0.145 1.305-0.571 1.759-1.265c0.098-0.152 0.3-0.192 0.452-0.095c0.152 0.098 0.194 0.3 0.095 0.452c-0.553 0.846-1.285 1.365-2.174 1.545c-0.24 0.048-0.483 0.071-0.725 0.071c-1.459 0-2.897-0.8-3.687-1.33c-0.149-0.101-0.19-0.303-0.089-0.452c0.101-0.149 0.303-0.19 0.452-0.089C18.558 12.853 20.181 13.751 21.64 13.454zM7.266 1.514c-0.347 0.571-1.067 1.761-0.69 2.993c0.307 1.001 1.279 1.884 2.89 2.626c0.163 0.074 0.236 0.268 0.16 0.432c-0.055 0.119-0.173 0.19-0.297 0.19c-0.047 0-0.093-0.01-0.136-0.031c-1.787-0.823-2.879-1.841-3.242-3.026c-0.464-1.51 0.359-2.868 0.754-3.522c0.093-0.153 0.295-0.203 0.448-0.109C7.31 1.162 7.359 1.361 7.266 1.514zM3.466 5.634c-0.098 0.978 0.131 1.782 0.679 2.388c1.144 1.265 3.248 1.301 3.484 1.301c0.179 0 0.327 0.145 0.327 0.327c0 0.179-0.145 0.327-0.327 0.327c-1.198 0-2.955-0.397-3.968-1.515c-0.678-0.75-0.962-1.723-0.846-2.89c0.018-0.179 0.178-0.308 0.357-0.292C3.353 5.295 3.484 5.454 3.466 5.634zM0.053 12.546c-0.098-0.152-0.056-0.353 0.095-0.452c0.152-0.098 0.353-0.056 0.452 0.095c0.453 0.694 1.047 1.12 1.759 1.265c1.459 0.297 3.082-0.601 3.921-1.162c0.149-0.101 0.353-0.061 0.452 0.089c0.101 0.149 0.061 0.353-0.089 0.452c-0.791 0.531-2.229 1.33-3.687 1.33c-0.242 0-0.484-0.023-0.725-0.071C1.338 13.91 0.607 13.391 0.053 12.546zM3.131 22.846c-0.107-0.145-0.074-0.349 0.071-0.456c1.053-0.768 1.938-2.376 2.309-4.197c0.036-0.176 0.208-0.29 0.386-0.254c0.176 0.036 0.29 0.208 0.254 0.386c-0.315 1.548-1.154 3.566-2.564 4.593c-0.058 0.042-0.125 0.063-0.192 0.063C3.292 22.979 3.194 22.933 3.131 22.846zM17.832 18.257c0-0.179 0.145-0.327 0.327-0.327c0.179 0 0.327 0.145 0.327 0.327c0 0.921 1.115 3.266 2.304 4.131c0.145 0.107 0.178 0.311 0.071 0.456c-0.065 0.087-0.163 0.133-0.265 0.133c-0.066 0-0.133-0.02-0.192-0.063C19.105 21.968 17.832 19.447 17.832 18.257z"></path></svg>