<svg viewBox="0 0 24 24" data-use="/cms/svg/site/nst3xcjc347.24.svg#bees"><path d="M6.959 18.032c-0.177-0.471-0.327-0.943-0.445-1.41h0.601c0.119 0 0.216-0.097 0.216-0.216v-0.163c0-0.119-0.097-0.216-0.216-0.216h-0.728c-0.182-1.025-0.131-2.093 0.14-3.096h9.558c0.119 0 0.216-0.097 0.216-0.216v-0.163c0-0.119-0.097-0.216-0.216-0.216H6.715c0.419-1.131 1.116-2.123 2.019-2.876h6.67c1.702 1.538 2.584 4.104 2.259 6.564h-8.93c-0.119 0-0.216 0.097-0.216 0.216v0.163c0 0.119 0.097 0.216 0.216 0.216h8.829c-0.209 0.979-0.63 2.071-1.187 3.096h-1.371c-0.119 0-0.216 0.097-0.216 0.216v0.163c0 0.119 0.097 0.216 0.216 0.216h1.027c-1.218 1.965-2.664 3.089-3.996 3.089c-1.36-0.007-2.804-1.131-3.983-3.089h5.226c0.119 0 0.216-0.097 0.216-0.216V19.935c0-0.119-0.097-0.216-0.216-0.216H7.718c-0.086-0.163-0.163-0.311-0.232-0.454c-0.052-0.106-0.177-0.149-0.285-0.099l-0.147 0.069c-0.111 0.052-0.156 0.182-0.104 0.29c0.722 1.488 2.491 4.463 5.098 4.476c2.899 0 5.522-4.311 6.128-7.402c0.33-1.695 0.099-3.556-0.631-5.155l1.299 0.839c0.052 0.033 0.085 0.108 0.08 0.189l-0.294 6.43c-0.009 0.214 0.062 0.426 0.199 0.581l0.552 0.63c0.078 0.091 0.216 0.099 0.304 0.019l0.121-0.106c0.091-0.078 0.099-0.216 0.019-0.304l-0.552-0.63c-0.036-0.042-0.054-0.099-0.052-0.163l0.294-6.43c0.013-0.292-0.121-0.566-0.353-0.714l-1.397-0.901c1.339-0.287 2.467-1.749 2.979-3.883c0.043-0.182 0.376-0.465 0.726-0.763c0.899-0.765 2.259-1.922 2.259-4.08c0-0.995-0.337-2.154-1.284-2.154c-0.884 0-2.008 0.986-3.434 2.236c-1.218 1.068-2.711 2.377-4.236 3.129l1.316-1.192c0.137-0.123 0.225-0.296 0.251-0.486l0.31-2.231c0.007-0.039 0.019-0.074 0.039-0.102l0.545-0.748c0.071-0.097 0.05-0.232-0.048-0.303l-0.131-0.095c-0.097-0.071-0.232-0.05-0.303 0.048l-0.545 0.748c-0.078 0.108-0.13 0.235-0.147 0.372l-0.31 2.233c-0.007 0.052-0.03 0.097-0.061 0.128l-1.489 1.349c-0.048-0.067-0.095-0.131-0.145-0.192l-0.088-0.111H10.282c-0.112-0.201-0.171-0.432-0.171-0.675c0-0.166 0.028-0.33 0.085-0.484l0.078-0.216l-0.19-0.13c-0.125-0.086-0.201-0.246-0.201-0.419c0-0.264 0.169-0.48 0.376-0.48c0.156 0 0.296 0.128 0.35 0.318l0.076 0.266l0.27-0.056c0.062-0.013 0.121-0.019 0.175-0.019h1.743c0.056 0 0.112 0.007 0.175 0.019l0.27 0.056l0.076-0.266c0.054-0.19 0.197-0.318 0.35-0.318c0.208 0 0.376 0.214 0.376 0.48c0 0.173-0.078 0.336-0.201 0.419l-0.19 0.13l0.078 0.216c0.056 0.154 0.085 0.316 0.085 0.484v0.082h0.595v-0.082c0-0.166-0.019-0.33-0.061-0.489c0.183-0.199 0.287-0.474 0.287-0.761c0-0.592-0.437-1.074-0.97-1.074c-0.337 0-0.649 0.192-0.823 0.509c-0.017 0-0.035 0-0.05 0h-0.056c-0.016-0.24 0.004-0.569 0.147-0.895c0.104-0.238 0.258-0.438 0.457-0.595c0.085-0.067 0.102-0.186 0.045-0.278l-0.086-0.138c-0.069-0.111-0.218-0.137-0.322-0.056c-0.278 0.218-0.493 0.497-0.638 0.83c-0.182 0.417-0.209 0.832-0.197 1.133h-0.438c0.013-0.298-0.016-0.714-0.197-1.133c-0.145-0.333-0.359-0.612-0.638-0.83c-0.102-0.08-0.253-0.056-0.322 0.056l-0.086 0.138c-0.056 0.091-0.039 0.212 0.045 0.278c0.199 0.157 0.35 0.356 0.457 0.595c0.143 0.327 0.16 0.656 0.147 0.895h-0.056c-0.017 0-0.033 0-0.05 0c-0.175-0.316-0.486-0.509-0.823-0.509c-0.536 0-0.97 0.483-0.97 1.074c0 0.287 0.104 0.562 0.287 0.761c-0.039 0.157-0.061 0.324-0.061 0.489c0 0.329 0.08 0.649 0.232 0.932l-1.437-1.302c-0.033-0.028-0.054-0.076-0.062-0.128L7.938 1.37c-0.019-0.137-0.069-0.264-0.147-0.372l-0.545-0.748c-0.071-0.097-0.206-0.117-0.303-0.048l-0.131 0.095c-0.097 0.071-0.117 0.206-0.048 0.303l0.545 0.748c0.019 0.028 0.035 0.065 0.039 0.104l0.31 2.231c0.026 0.19 0.117 0.363 0.251 0.486l1.316 1.194c-1.526-0.752-3.018-2.06-4.236-3.129C3.567 0.985 2.441-0.001 1.556-0.001C0.609-0.001 0.271 1.16 0.271 2.153c0 2.158 1.36 3.314 2.259 4.082c0.35 0.298 0.683 0.581 0.726 0.763C3.767 9.131 4.898 10.594 6.235 10.879l-1.397 0.901c-0.232 0.149-0.365 0.422-0.353 0.714l0.294 6.43c0.002 0.062-0.016 0.123-0.052 0.163l-0.552 0.63c-0.078 0.091-0.069 0.227 0.019 0.304l0.121 0.106c0.091 0.078 0.227 0.069 0.304-0.019l0.552-0.63c0.137-0.156 0.208-0.368 0.199-0.581l-0.294-6.43c-0.004-0.078 0.028-0.154 0.08-0.189l1.287-0.83c-0.778 1.6-0.976 3.421-0.552 5.162c0.13 0.536 0.301 1.085 0.506 1.633c0.043 0.112 0.171 0.169 0.284 0.125l0.151-0.059C6.946 18.267 7 18.144 6.959 18.032zM21.089 5.781c-0.463 0.396-0.83 0.707-0.918 1.077c-0.506 2.115-1.639 3.478-2.882 3.478c-0.121 0-0.249-0.016-0.394-0.048c-0.353-0.517-0.751-0.97-1.183-1.349l-0.085-0.074H15.45c-0.082-1.04-0.32-2.017-0.694-2.837c1.699-0.761 3.334-2.195 4.653-3.349c1.278-1.12 2.38-2.089 3.04-2.089c0.454 0 0.69 0.785 0.69 1.558C23.14 4.037 21.955 5.046 21.089 5.781L21.089 5.781zM14.853 8.869H9.152c0.082-0.996 0.316-1.922 0.679-2.683c0.061-0.125 0.125-0.251 0.201-0.381v0c0.093-0.16 0.189-0.304 0.285-0.434h3.371c0.097 0.13 0.19 0.272 0.285 0.434c0.076 0.13 0.143 0.255 0.201 0.381C14.537 6.944 14.774 7.871 14.853 8.869zM9.249 6.032c-0.374 0.82-0.612 1.797-0.694 2.837h-0.033l-0.082 0.065c-0.474 0.381-0.906 0.835-1.284 1.345c-0.163 0.039-0.307 0.059-0.441 0.059c-1.244 0-2.377-1.366-2.882-3.478c-0.088-0.37-0.454-0.682-0.918-1.077c-0.865-0.737-2.05-1.745-2.05-3.628c0-0.774 0.238-1.558 0.69-1.558c0.659 0 1.764 0.969 3.043 2.089C5.915 3.838 7.549 5.271 9.249 6.032zM21.142 5.844L21.142 5.844L21.142 5.844L21.142 5.844zM10.294 7.228v-1.414c0-0.119 0.097-0.216 0.216-0.216h0.163c0.119 0 0.216 0.097 0.216 0.216v1.414c0 0.119-0.097 0.216-0.216 0.216h-0.163C10.39 7.444 10.294 7.346 10.294 7.228zM10.294 8.082v-0.156c0-0.119 0.097-0.216 0.216-0.216h0.163c0.119 0 0.216 0.097 0.216 0.216v0.156c0 0.119-0.097 0.216-0.216 0.216h-0.163C10.39 8.298 10.294 8.2 10.294 8.082z"></path></svg>