<svg viewBox="0 0 24 24" data-use="/cms/svg/site/nst3xcjc347.24.svg#cockroaches"><path d="M8.848 20.197c-0.113 0.045-0.167 0.176-0.118 0.289c0.193 0.441 0.405 0.84 0.634 1.191v0.048h0.033c0.225 0.34 0.466 0.636 0.716 0.879l-0.2 0.209l0.434 0.414l0.228-0.239c0.024 0.017 0.051 0.03 0.074 0.048l-0.313 0.562c-0.059 0.104-0.022 0.237 0.085 0.296l0.144 0.078c0.104 0.059 0.237 0.022 0.296-0.085l0.322-0.579c0.268 0.103 0.542 0.158 0.819 0.158c0.181 0 0.359-0.022 0.536-0.063l0.185 0.402c0.051 0.109 0.179 0.157 0.289 0.106l0.148-0.068c0.109-0.051 0.157-0.179 0.106-0.289l-0.167-0.366c0.035-0.017 0.07-0.035 0.104-0.054l0.422 0.318l0.359-0.479l-0.266-0.2c1.038-0.881 1.876-2.567 2.332-4.789c0.475-0.784 0.858-1.7 1.128-2.704l1.592 0.81c0.091 0.045 0.138 0.15 0.111 0.251l-1.444 5.373c-0.024 0.089 0.01 0.183 0.087 0.235l1.165 0.803c0.098 0.068 0.235 0.044 0.303-0.057l0.094-0.135c0.068-0.098 0.044-0.235-0.057-0.303l-0.817-0.564c-0.077-0.052-0.111-0.146-0.087-0.235l1.459-5.434c0.026-0.1-0.019-0.205-0.111-0.251l-2.151-1.095c0.141-0.655 0.237-1.341 0.28-2.046l2.29-0.704c0.07-0.022 0.146-0.007 0.202 0.042l1.959 1.63c0.091 0.077 0.231 0.065 0.307-0.028l0.104-0.126c0.077-0.091 0.065-0.228-0.028-0.307L20.225 11.316c-0.057-0.048-0.132-0.063-0.202-0.042l-2.399 0.736c0.002-0.083 0.002-0.165 0.002-0.248c0-1.276-0.167-2.508-0.492-3.662L19.733 5.268c0.061-0.065 0.155-0.087 0.237-0.057l0.923 0.353c0.113 0.044 0.237-0.013 0.28-0.126l0.059-0.152c0.044-0.113-0.013-0.237-0.126-0.28l-1.302-0.496c-0.083-0.033-0.179-0.009-0.237 0.057l-2.638 2.874c-0.019-0.054-0.039-0.111-0.061-0.172c-0.451-1.245-1.095-2.314-1.856-3.087l-0.016-0.016c-0.103-0.1-0.202-0.193-0.307-0.286l-0.085-0.074H9.412c-0.009-0.045-0.016-0.094-0.016-0.139c0-0.109 0.022-0.216 0.065-0.315l0.057-0.129l-0.065-0.126c-0.037-0.074-0.057-0.148-0.057-0.225c0-0.305 0.274-0.544 0.59-0.488c0.17 0.03 0.305 0.158 0.373 0.318l0.068 0.164h3.142l0.068-0.164c0.065-0.158 0.202-0.286 0.373-0.318c0.313-0.059 0.59 0.183 0.59 0.488c0 0.074-0.019 0.15-0.057 0.225l0.533 0.272c0.124-0.244 0.155-0.505 0.087-0.771c-0.106-0.414-0.455-0.738-0.875-0.805c-0.431-0.07-0.838 0.111-1.078 0.451c0.286-0.843 0.93-1.644 1.836-1.644c0.322 0 0.907 0.253 1.583 0.547c1.176 0.509 2.638 1.142 4.171 1.142c1.123 0 2.059-0.376 2.791-1.116c0.087-0.087 0.077-0.231-0.016-0.312l-0.126-0.113c-0.085-0.077-0.213-0.068-0.294 0.013c-0.618 0.625-1.391 0.93-2.355 0.93c-1.409 0-2.808-0.608-3.934-1.093C16.097 0.263 15.492 0 15.043 0c-1.284 0-2.158 1.141-2.466 2.264h-1.156C11.11 1.141 10.237 0 8.952 0c-0.446 0-1.054 0.263-1.82 0.594c-1.125 0.488-2.525 1.093-3.934 1.093c-0.965 0-1.737-0.305-2.355-0.93C0.763 0.679 0.635 0.671 0.55 0.747L0.438 0.843c-0.109 0.096-0.118 0.239-0.033 0.327c0.731 0.742 1.67 1.116 2.791 1.116c1.533 0 2.995-0.634 4.171-1.142c0.677-0.294 1.261-0.547 1.583-0.547c0.904 0 1.55 0.799 1.836 1.644C10.55 1.9 10.145 1.722 9.714 1.789c-0.374 0.059-0.695 0.324-0.836 0.675c-0.103 0.257-0.104 0.524-0.013 0.773c-0.044 0.138-0.068 0.28-0.068 0.427c0 0.15 0.028 0.298 0.077 0.441c-0.237 0.233-0.466 0.495-0.679 0.779c-0.544 0.727-0.986 1.593-1.324 2.577L4.211 4.563c-0.061-0.065-0.155-0.087-0.237-0.057l-1.302 0.496c-0.113 0.044-0.167 0.167-0.126 0.28l0.059 0.152c0.044 0.113 0.167 0.167 0.28 0.126l0.923-0.353c0.083-0.033 0.179-0.009 0.237 0.057l2.623 2.858c-0.32 1.148-0.483 2.37-0.483 3.635c0 0.087 0.002 0.172 0.004 0.259l-2.434-0.747c-0.07-0.022-0.146-0.007-0.202 0.042L1.344 13.153c-0.091 0.077-0.104 0.213-0.028 0.307l0.104 0.126c0.077 0.091 0.213 0.104 0.307 0.028l1.959-1.63c0.057-0.048 0.132-0.063 0.202-0.042l2.323 0.712c0.044 0.695 0.138 1.371 0.277 2.02l-2.179 1.11c-0.091 0.045-0.138 0.15-0.111 0.251l1.459 5.434c0.024 0.089-0.01 0.183-0.087 0.235l-0.817 0.564c-0.098 0.068-0.124 0.205-0.054 0.303l0.094 0.135c0.068 0.098 0.205 0.124 0.303 0.057l1.165-0.803c0.077-0.052 0.111-0.146 0.087-0.235L4.902 16.349c-0.026-0.1 0.019-0.205 0.111-0.251l1.618-0.823c0.292 1.09 0.721 2.09 1.273 2.941c0.655 1.01 1.465 1.761 2.342 2.175l0.225 0.106l0.146-0.202c0.098-0.135 0.19-0.279 0.279-0.425h1.888v-0.531c0.185 0.353 0.385 0.651 0.603 0.895l0.157 0.174l0.207-0.109c0.486-0.259 0.939-0.614 1.35-1.049c-0.228 0.723-0.503 1.354-0.81 1.876H13.367c-0.12 0-0.218 0.098-0.218 0.218v0.164c0 0.12 0.098 0.218 0.218 0.218h0.522c-0.566 0.736-1.215 1.148-1.891 1.148c-0.657 0-1.304-0.405-1.874-1.148h1.966c0.12 0 0.218-0.098 0.218-0.218v-0.164c0-0.12-0.098-0.218-0.218-0.218H9.726c-0.157-0.266-0.305-0.556-0.444-0.875c-0.048-0.109-0.172-0.164-0.283-0.118L8.848 20.197zM10.278 19.733c-0.69-0.385-1.337-1.021-1.872-1.844c-1.047-1.611-1.624-3.788-1.624-6.128c0-0.869 0.08-1.724 0.242-2.543c0.759 1.505 2.55 2.55 4.556 2.643l0 3.455C11.404 17.215 10.98 18.661 10.278 19.733zM11.218 19.272c0.32-0.67 0.566-1.437 0.738-2.318c0.222 0.945 0.483 1.711 0.792 2.318H11.218zM13.678 19.649c-0.651-0.855-1.134-2.368-1.479-4.625l-0.022-0.144l0-3.02c2.055-0.094 3.859-1.167 4.593-2.712c0.17 0.84 0.254 1.72 0.254 2.614C17.026 15.269 15.683 18.425 13.678 19.649zM14.177 4.404c0.15 0.068 0.294 0.141 0.428 0.219c0.044 0.045 0.087 0.094 0.131 0.141l0.085 0.094c0.024 0.026 0.051 0.054 0.074 0.083c0.051 0.059 0.098 0.122 0.146 0.185l0.077 0.098c0.022 0.026 0.044 0.052 0.063 0.08c0.07 0.096 0.135 0.196 0.202 0.296l0.033 0.045c0.013 0.017 0.024 0.035 0.035 0.052c0.087 0.138 0.17 0.279 0.251 0.425c0.01 0.022 0.022 0.044 0.033 0.065l0.028 0.054c0.059 0.109 0.115 0.218 0.17 0.333c0.016 0.035 0.033 0.07 0.048 0.104l0.059 0.131c0.037 0.08 0.071 0.161 0.106 0.244c0.017 0.042 0.033 0.085 0.051 0.126l0.054 0.139c0.03 0.078 0.061 0.155 0.089 0.235c0.017 0.048 0.033 0.096 0.048 0.144l0.045 0.138c0.022 0.068 0.045 0.135 0.065 0.205c-0.28 1.842-2.262 3.231-4.615 3.231c-2.286 0-4.258-1.341-4.598-3.124c0.017-0.063 0.037-0.124 0.057-0.185l0.051-0.158c0.017-0.057 0.035-0.111 0.052-0.165c0.026-0.074 0.052-0.144 0.078-0.216l0.059-0.157c0.019-0.052 0.037-0.103 0.059-0.152c0.028-0.07 0.059-0.139 0.089-0.207l0.065-0.148c0.022-0.048 0.042-0.096 0.063-0.144c0.033-0.068 0.068-0.135 0.1-0.2l0.071-0.144c0.022-0.044 0.044-0.085 0.065-0.126c0.037-0.07 0.078-0.138 0.118-0.202l0.077-0.126c0.022-0.037 0.044-0.074 0.065-0.109c0.045-0.071 0.094-0.139 0.141-0.209l0.078-0.113c0.019-0.028 0.039-0.059 0.059-0.087c0.061-0.083 0.124-0.158 0.187-0.237l0.061-0.077c0.017-0.022 0.033-0.044 0.051-0.063c0.103-0.12 0.207-0.235 0.312-0.34l0.037-0.035c0.096-0.052 0.196-0.1 0.305-0.15H14.177zM8.452 8.181l-0.148-0.068c-0.109-0.051-0.158-0.179-0.109-0.287l1.132-2.495c0.051-0.109 0.179-0.158 0.287-0.109l0.148 0.068c0.109 0.051 0.158 0.179 0.109 0.287l-1.132 2.495C8.689 8.183 8.561 8.231 8.452 8.181z"></path></svg>