<svg viewBox="0 0 24 24" class="values-icon" data-use="/cms/svg/site/nst3xcjc347.24.svg#new_4"><path d="M12 0C5.384 0 0 5.384 0 12s5.384 12 12 12c6.618 0 12-5.384 12-12S18.618 0 12 0zM12 22.914C5.983 22.914 1.088 18.017 1.088 12S5.983 1.088 12 1.088s10.912 4.895 10.912 10.912S18.017 22.914 12 22.914zM14.939 5.952H12.333L7.54 13.447v1.484h5.345v3.12h2.054V14.93h1.523v-1.693h-1.523V5.952zM12.914 9.244c-0.02 0.483-0.028 0.901-0.028 1.255v2.739h-3.176l2.206-3.368c0.178-0.328 0.348-0.646 0.513-0.951c0.165-0.305 0.324-0.616 0.476-0.931h0.076C12.955 8.343 12.933 8.761 12.914 9.244z"></path></svg>