<svg viewBox="0 0 24 24" data-use="/cms/svg/site/nst3xcjc347.24.svg#rodents"><path d="M7.978 3.21V3.048c0-0.119 0.097-0.216 0.216-0.216h0.431c0.119 0 0.216 0.097 0.216 0.216v0.163c0 0.119-0.097 0.216-0.216 0.216h-0.431C8.073 3.426 7.978 3.329 7.978 3.21zM10.053 3.048v0.163c0 0.119 0.097 0.216 0.216 0.216h0.431c0.119 0 0.216-0.097 0.216-0.216V3.048c0-0.119-0.097-0.216-0.216-0.216h-0.431C10.151 2.832 10.053 2.93 10.053 3.048zM19.673 7.474c-0.078-0.106-0.234-0.123-0.327-0.03c-0.474 0.477-0.588 1.232-0.253 1.847c1.546 2.837 1.596 6.194 0.131 8.986c-1.524 2.908-4.48 4.802-7.719 5.087c2.456-1.371 4.271-5.093 4.271-9.337c0-1.129-0.212-2.467-0.63-3.979c-0.033-0.117-0.154-0.183-0.268-0.151L14.719 9.946c-0.114 0.033-0.18 0.151-0.147 0.266c0.405 1.46 0.607 2.742 0.607 3.819c0 5.035-2.619 9.291-5.721 9.305l-0.059-0.007l0 0.007c-3.088-0.042-5.687-4.283-5.687-9.302c0-1.505 0.374-3.386 1.072-5.451c0.411 0.227 0.832 0.272 1.098 0.272c0.171 0 0.339-0.017 0.497-0.052c0.832-0.182 1.496-0.829 1.747-1.674c0.036-0.123-0.042-0.251-0.166-0.277l-0.16-0.033c-0.108-0.022-0.216 0.042-0.246 0.147c-0.19 0.638-0.685 1.12-1.302 1.254c-0.495 0.108-1.175 0-1.576-0.489c-0.489-0.595-0.333-1.462 0.022-2.013c0.441-0.692 1.348-1.036 2.25-0.855l0.08 0.016l0.117-0.584l-0.08-0.016c-0.138-0.028-0.277-0.045-0.415-0.054C7.781 2.071 8.912 0.595 9.448 0.595c0.4 0 1.475 1.27 2.718 3.626c-0.097 0.009-0.195 0.019-0.292 0.036l-0.08 0.016l0.106 0.586l0.08-0.016c0.906-0.166 1.806 0.192 2.236 0.893c0.344 0.558 0.486 1.427-0.013 2.013c-0.411 0.483-1.091 0.579-1.584 0.463c-0.614-0.145-1.1-0.638-1.28-1.278c-0.03-0.106-0.137-0.169-0.244-0.151l-0.16 0.028c-0.125 0.022-0.206 0.149-0.171 0.275c0.235 0.849 0.889 1.507 1.717 1.704c0.169 0.042 0.355 0.061 0.538 0.061c0.382 0 1.105-0.093 1.636-0.716c0.692-0.813 0.521-1.974 0.067-2.711c-0.398-0.647-1.094-1.068-1.879-1.183C11.761 2.143 10.345 0 9.448 0C8.48 0 7.054 2.149 5.991 4.257c-0.742 0.121-1.403 0.526-1.792 1.135c-0.465 0.728-0.657 1.887 0.022 2.711c0.033 0.039 0.067 0.078 0.102 0.114C3.545 10.456 3.119 12.51 3.119 14.03c0 5.354 2.887 9.879 6.307 9.896c0.402 0.048 0.813 0.074 1.218 0.074c3.797 0 7.371-2.138 9.106-5.447c1.555-2.967 1.505-6.534-0.137-9.547c-0.203-0.374-0.14-0.829 0.137-1.124c0.071-0.076 0.08-0.19 0.019-0.275L19.673 7.474zM6.067 9.849h-0.163c-0.119 0-0.216 0.097-0.216 0.216v1.427c0 0.119 0.097 0.216 0.216 0.216h0.163c0.119 0 0.216-0.097 0.216-0.216v-1.427C6.283 9.944 6.185 9.849 6.067 9.849zM5.904 13.185h0.163c0.119 0 0.216-0.097 0.216-0.216v-0.532c0-0.119-0.097-0.216-0.216-0.216h-0.163c-0.119 0-0.216 0.097-0.216 0.216v0.532C5.688 13.087 5.783 13.185 5.904 13.185z"></path></svg>