<svg viewBox="0 0 24 24" data-use="/cms/svg/site/nst3xcjc347.24.svg#spiders"><path d="M10.876 14.377v1.409c0 0.12-0.098 0.218-0.218 0.218h-0.164c-0.12 0-0.218-0.098-0.218-0.218v-1.409c0-0.12 0.098-0.218 0.218-0.218h0.164C10.778 14.159 10.876 14.255 10.876 14.377zM10.495 17.29h0.164c0.12 0 0.218-0.098 0.218-0.218v-0.335c0-0.12-0.098-0.218-0.218-0.218h-0.164c-0.12 0-0.218 0.098-0.218 0.218v0.335C10.277 17.194 10.375 17.29 10.495 17.29zM8.778 16.698c0.115 0.035 0.181 0.157 0.146 0.272c-0.113 0.381-0.218 0.723-0.318 1.036c-0.042 0.132-0.077 0.274-0.103 0.44h6.982c-0.028-0.165-0.061-0.307-0.103-0.44c-0.257-0.805-0.492-1.615-0.721-2.396c-0.244-0.834-0.47-1.607-0.707-2.344c-1.324-0.004-2.612-0.004-3.934 0c-0.199 0.617-0.385 1.256-0.601 2.004c-0.033 0.115-0.155 0.183-0.27 0.15l-0.157-0.045c-0.115-0.033-0.183-0.157-0.148-0.272c0.218-0.753 0.418-1.437 0.627-2.081c-0.03-0.024-0.03-0.024-0.061-0.048l-3.02 1.757c-0.017 0.017-0.033 0.033-0.051 0.051l-1.715 3.165c-0.004 0.013-0.009 0.026-0.013 0.039l-0.486 2.741c-0.022 0.118-0.135 0.199-0.253 0.176l-0.161-0.028c-0.118-0.022-0.199-0.135-0.176-0.253l0.486-2.741c0.013-0.077 0.039-0.15 0.077-0.219l1.715-3.165c0.063-0.118 0.158-0.216 0.274-0.283l2.965-1.726c-0.176-0.28-0.315-0.583-0.416-0.901H6.405c-0.026 0-0.051 0.009-0.071 0.022l-2.321 1.563c-0.12 0.08-0.261 0.124-0.408 0.124H0.527c-0.12 0-0.218-0.098-0.218-0.218v-0.164c0-0.12 0.098-0.218 0.218-0.218h3.081c0.026 0 0.052-0.009 0.071-0.022l2.318-1.563c0.122-0.08 0.261-0.124 0.408-0.124h2.09c-0.037-0.253-0.052-0.512-0.042-0.773l-1.996-0.37c-0.253-0.045-0.462-0.225-0.55-0.463l-0.738-2.003c-0.01-0.026-0.028-0.051-0.052-0.065L2.29 5.559c-0.103-0.063-0.132-0.199-0.07-0.3l0.087-0.139c0.063-0.103 0.199-0.132 0.3-0.07l2.828 1.757c0.138 0.085 0.242 0.213 0.298 0.366l0.738 2.003c0.016 0.044 0.052 0.074 0.098 0.083l1.957 0.364c0.051-0.277 0.124-0.538 0.222-0.799c0.071-0.19 0.155-0.383 0.251-0.59l-1.796-1.72c-0.141-0.138-0.225-0.329-0.225-0.527V3.373c-0.004-0.019-0.009-0.039-0.016-0.061l-0.893-1.726c-0.054-0.106-0.013-0.237 0.094-0.294l0.146-0.077c0.106-0.054 0.237-0.013 0.294 0.094l0.893 1.726c0.054 0.104 0.083 0.218 0.083 0.335v2.614c0 0.035 0.016 0.07 0.039 0.094l1.665 1.595c0.179-0.32 0.383-0.644 0.611-0.968l-1.245-1.061c-0.226-0.192-0.313-0.498-0.219-0.782l0.86-2.63c0.002-0.017 0.004-0.033 0.007-0.051l-0.144-1.909C9.143 0.157 9.235 0.053 9.355 0.044l0.164-0.013c0.12-0.009 0.225 0.08 0.233 0.2l0.144 1.909c0.007 0.096-0.004 0.192-0.035 0.28l-0.86 2.63c-0.017 0.051 0 0.104 0.039 0.139l1.215 1.034c0.065-0.083 0.131-0.167 0.2-0.253l0-1.036c0-0.341 0.17-0.67 0.466-0.836c0.364-0.205 0.788-0.132 1.069 0.122c0.279-0.254 0.704-0.324 1.069-0.122c0.298 0.165 0.466 0.496 0.466 0.838l0 0.348h-0.599v-0.387c0-0.176-0.144-0.318-0.318-0.318s-0.318 0.144-0.318 0.318v0.695h-0.599v-0.695c0-0.176-0.144-0.318-0.318-0.318c-0.176 0-0.318 0.144-0.318 0.318v0.942h2.367l0.089 0.109c0.071 0.087 0.141 0.176 0.209 0.263l1.235-1.052c0.039-0.035 0.057-0.089 0.039-0.139l-0.86-2.63c-0.03-0.091-0.042-0.185-0.035-0.28l0.144-1.909c0.009-0.12 0.113-0.209 0.233-0.2l0.164 0.013c0.12 0.009 0.209 0.113 0.2 0.233L14.694 2.16c0.002 0.017 0.004 0.033 0.007 0.051l0.86 2.63c0.091 0.28 0.004 0.59-0.219 0.782l-1.264 1.078c0.228 0.324 0.435 0.651 0.614 0.968l1.685-1.613c0.026-0.024 0.039-0.059 0.039-0.094v-2.612c0-0.118 0.028-0.231 0.083-0.335l0.893-1.726c0.054-0.106 0.187-0.148 0.294-0.094l0.146 0.077c0.106 0.054 0.148 0.187 0.094 0.294l-0.893 1.726c-0.004 0.019-0.009 0.039-0.016 0.061v2.612c0 0.199-0.08 0.39-0.225 0.527l-1.813 1.74c0.098 0.209 0.181 0.405 0.254 0.599c0.096 0.253 0.167 0.507 0.218 0.775l1.975-0.367c0.045-0.009 0.083-0.039 0.098-0.083l0.738-2.003c0.057-0.152 0.161-0.28 0.298-0.366l2.828-1.757c0.103-0.063 0.237-0.033 0.3 0.07l0.087 0.139c0.063 0.103 0.033 0.237-0.07 0.3l-2.828 1.757c-0.024 0.016-0.044 0.037-0.052 0.065l-0.738 2.003c-0.087 0.239-0.298 0.418-0.55 0.463l-2.011 0.374c0.013 0.259 0 0.518-0.035 0.768h2.1c0.146 0 0.287 0.044 0.408 0.124l2.321 1.563c0.022 0.016 0.045 0.022 0.071 0.022h3.081c0.12 0 0.218 0.098 0.218 0.218v0.164c0 0.12-0.098 0.218-0.218 0.218H20.382c-0.146 0-0.287-0.044-0.408-0.124l-2.321-1.563c-0.022-0.016-0.048-0.022-0.071-0.022H15.347c-0.098 0.318-0.235 0.62-0.409 0.904l2.965 1.724c0.115 0.068 0.211 0.165 0.274 0.283l1.715 3.165c0.037 0.07 0.063 0.144 0.077 0.219l0.486 2.741c0.022 0.118-0.059 0.231-0.176 0.253l-0.161 0.028c-0.118 0.022-0.231-0.059-0.253-0.176L19.379 17.96c-0.004-0.013-0.009-0.026-0.013-0.039l-1.715-3.165c-0.017-0.017-0.033-0.033-0.051-0.051l-3.015-1.755c-0.042 0.033-0.042 0.033-0.085 0.068c0.257 0.788 0.498 1.62 0.733 2.422c0.216 0.738 0.46 1.576 0.716 2.384c0.381 1.197 0.17 2.471-0.579 3.496c-0.557 0.762-1.332 1.296-2.242 1.543v0.919c0 0.12-0.098 0.218-0.218 0.218h-0.164c-0.12 0-0.218-0.098-0.218-0.218v-0.801c-0.364 0.045-0.707 0.045-1.071 0v0.775c0 0.12-0.098 0.218-0.218 0.218h-0.164c-0.12 0-0.218-0.098-0.218-0.218v-0.893c-0.914-0.246-1.689-0.779-2.248-1.546c-0.749-1.023-0.96-2.297-0.579-3.496c0.098-0.312 0.202-0.649 0.315-1.026c0.035-0.115 0.155-0.183 0.27-0.148L8.778 16.698zM11.662 10.929l-2.107-2.471c-0.094 0.196-0.176 0.39-0.246 0.576c-0.496 1.315-0.263 2.672 0.627 3.633c0.69-0.002 1.371-0.004 2.051-0.004c0.681 0 1.36 0.002 2.051 0.004c0.893-0.96 1.128-2.316 0.629-3.633c-0.094-0.246-0.207-0.503-0.338-0.762l-0.344 0.392c-0.078 0.089-0.218 0.1-0.307 0.019l-0.122-0.109c-0.089-0.078-0.1-0.218-0.019-0.307l0.488-0.556c-0.253-0.422-0.544-0.838-0.89-1.271H10.846c-0.392 0.488-0.716 0.96-0.991 1.444l1.816 2.129c0.087 0.1 0.242 0.103 0.329 0.002l0.521-0.592c0.078-0.089 0.218-0.1 0.307-0.019l0.122 0.109c0.089 0.078 0.1 0.218 0.019 0.307l-0.975 1.11C11.904 11.031 11.749 11.031 11.662 10.929zM10.889 21.082c-0.12 0-0.218-0.098-0.218-0.218v-0.164c0-0.12 0.098-0.218 0.218-0.218h4.293c0.228-0.453 0.347-0.936 0.35-1.437H8.455c0.007 0.692 0.228 1.357 0.643 1.923c0.675 0.921 1.731 1.45 2.898 1.45c1.119 0 2.133-0.486 2.811-1.337H10.889z"></path></svg>