<svg viewBox="0 0 24 24" data-use="/cms/svg/site/nst3xcjc347.24.svg#termites"><path d="M9.307 19.262h0.538c0.12 0 0.217 0.097 0.217 0.217v0.163c0 0.12-0.097 0.217-0.217 0.217H9.307c-0.12 0-0.217-0.097-0.217-0.217v-0.163C9.09 19.36 9.186 19.262 9.307 19.262zM10.511 19.479v0.163c0 0.12 0.097 0.217 0.217 0.217h0.161c0.12 0 0.217-0.097 0.217-0.217v-0.163c0-0.12-0.097-0.217-0.217-0.217h-0.161C10.609 19.262 10.511 19.36 10.511 19.479zM14.003 8.411c-0.088-0.065-0.12-0.187-0.062-0.282c0.243-0.408 0.354-0.878 0.312-1.364c-0.052-0.629-0.386-1.204-0.875-1.605l-0.143-0.12l0.126-0.219c0.036-0.065 0.141-0.276 0.126-0.594c-0.172 0.206-0.369 0.377-0.594 0.521l-0.115 0.074l-0.13-0.039c-0.434-0.132-0.895-0.132-1.329 0l-0.13 0.039l-0.115-0.074c-0.226-0.143-0.421-0.314-0.594-0.521c-0.016 0.319 0.088 0.529 0.126 0.594l0.126 0.219l-0.147 0.121c-0.468 0.386-0.794 0.93-0.863 1.534c-0.134 1.18 0.64 2.205 1.709 2.474h1.577c0.573 0 1.052 0.395 1.187 0.927h1.13c0.082 0 0.158-0.048 0.195-0.123l2.301-4.773c0.036-0.076 0.113-0.123 0.195-0.123h1.87c0.12 0 0.217 0.097 0.217 0.217v0.163c0 0.12-0.097 0.217-0.217 0.217h-1.497c-0.082 0-0.158 0.048-0.195 0.123L15.89 10.571c-0.036 0.076-0.113 0.123-0.195 0.123h-1.505c-0.061 0.243-0.195 0.462-0.386 0.626c0.169 0.147 0.295 0.337 0.363 0.547l1.442-0.421c0.078-0.024 0.163 0 0.219 0.059l3.292 3.486c0.042 0.043 0.097 0.068 0.158 0.068h0.606c0.12 0 0.217 0.097 0.217 0.217v0.163c0 0.12-0.097 0.217-0.217 0.217h-0.863c-0.061 0-0.117-0.024-0.158-0.068L15.642 12.181c-0.056-0.059-0.141-0.082-0.219-0.059l-1.219 0.356c-0.039 0.206-0.13 0.395-0.26 0.551L16.703 14.272c0.056 0.026 0.1 0.074 0.117 0.132l2.405 7.689c0.013 0.042 0.036 0.078 0.071 0.104l0.803 0.644c0.094 0.076 0.108 0.213 0.033 0.305l-0.102 0.126c-0.076 0.094-0.213 0.108-0.305 0.033l-0.944-0.757c-0.033-0.026-0.059-0.062-0.071-0.104L16.33 14.84c-0.019-0.059-0.061-0.108-0.117-0.132l-1.275-0.574c0.724 1.032 1.154 2.431 1.154 3.915c0 3.226-1.883 5.952-4.112 5.952c-1.432 0-2.787-1.147-3.541-2.993l-0.03-0.076l0.554-0.226l0.03 0.076c0.017 0.043 0.036 0.085 0.056 0.126h4.55c0.12 0 0.217 0.097 0.217 0.217v0.163c0 0.12-0.097 0.217-0.217 0.217H9.345c0.161 0.279 0.334 0.534 0.525 0.759h0.807v0.597h-0.187c0.464 0.351 0.976 0.542 1.492 0.542c0.525 0 1.032-0.198 1.491-0.542h-1.948c-0.12 0-0.217-0.097-0.217-0.217v-0.163c0-0.12 0.097-0.217 0.217-0.217h2.57c0.191-0.226 0.366-0.482 0.525-0.759h-0.139v-0.597h0.438c0.143-0.33 0.262-0.678 0.356-1.048H11.985c-0.12 0-0.217-0.097-0.217-0.217v-0.163c0-0.12 0.097-0.217 0.217-0.217h3.41c0.042-0.252 0.071-0.508 0.087-0.768h-0.236c-0.12 0-0.217-0.097-0.217-0.217v-0.163c0-0.12 0.097-0.217 0.217-0.217h0.247c-0.007-0.356-0.042-0.703-0.097-1.041H9.835c-0.12 0-0.217-0.097-0.217-0.217v-0.163c0-0.12 0.097-0.217 0.217-0.217h5.429c-0.323-1.208-0.963-2.223-1.812-2.789h-0.449h-2.046h-0.366l-0.217 0.097c-0.357 0.265-0.675 0.612-0.944 1.019h3.738c0.12 0 0.217 0.097 0.217 0.217v0.163c0 0.12-0.097 0.217-0.217 0.217H9.093c-0.161 0.334-0.295 0.694-0.397 1.074h0.293v0.597h-0.421c-0.059 0.338-0.091 0.687-0.097 1.041h5.127c0.12 0 0.217 0.097 0.217 0.217v0.163c0 0.12-0.097 0.217-0.217 0.217H8.48c0.03 0.516 0.115 1.028 0.253 1.525l0.022 0.078l-0.574 0.161L8.158 20.182c-0.193-0.692-0.291-1.41-0.291-2.134c0-1.453 0.412-2.82 1.109-3.845l-1.19 0.536c-0.056 0.026-0.1 0.074-0.117 0.132L5.288 22.477c-0.013 0.042-0.036 0.078-0.071 0.104L4.275 23.338c-0.094 0.076-0.23 0.061-0.305-0.033l-0.102-0.126c-0.076-0.094-0.061-0.23 0.033-0.305l0.803-0.644c0.033-0.026 0.059-0.062 0.071-0.104l2.405-7.689c0.019-0.059 0.061-0.108 0.117-0.132l2.75-1.239c-0.165-0.184-0.276-0.418-0.305-0.677l-1.167-0.34c-0.078-0.024-0.163 0-0.219 0.059L5.138 15.512c-0.042 0.043-0.097 0.068-0.158 0.068H4.116c-0.12 0-0.217-0.097-0.217-0.217v-0.163c0-0.12 0.097-0.217 0.217-0.217h0.606c0.061 0 0.117-0.024 0.158-0.068L8.173 11.43c0.056-0.059 0.141-0.082 0.219-0.059l1.433 0.418c0.071-0.178 0.184-0.338 0.331-0.468c-0.21-0.182-0.351-0.432-0.401-0.704h-1.451c-0.082 0-0.158-0.048-0.195-0.123L5.808 5.722c-0.036-0.076-0.113-0.123-0.195-0.123h-1.497c-0.12 0-0.217-0.097-0.217-0.217v-0.163c0-0.12 0.097-0.217 0.217-0.217H5.989c0.082 0 0.158 0.048 0.195 0.123L8.483 9.899c0.036 0.076 0.113 0.123 0.195 0.123h1.112c0.111-0.345 0.371-0.623 0.703-0.757c-0.831-0.44-1.39-1.258-1.39-2.301c0-0.729 0.282-1.432 0.776-1.961c-0.458-0.425-0.848-0.909-1.158-1.445c-0.744-1.288-0.859-2.559-0.842-3.316c0.002-0.123 0.108-0.217 0.23-0.21l0.163 0.009c0.117 0.007 0.206 0.104 0.204 0.221c-0.013 0.687 0.091 1.835 0.762 2.995c0.184 0.319 0.403 0.616 0.644 0.892c0.019-0.253 0.087-0.519 0.201-0.772l0.259-0.571l0.279 0.56c0.175 0.354 0.386 0.609 0.658 0.807c0.458-0.115 0.939-0.115 1.399 0c0.271-0.195 0.479-0.453 0.658-0.807l0.279-0.56l0.259 0.571c0.106 0.234 0.172 0.475 0.195 0.711c0.233-0.269 0.442-0.555 0.62-0.863c0.672-1.161 0.776-2.308 0.762-2.995c-0.002-0.117 0.087-0.215 0.204-0.221L15.817 0c0.121-0.007 0.227 0.087 0.23 0.21c0.017 0.757-0.097 2.028-0.842 3.316c-0.311 0.536-0.701 1.019-1.156 1.442c0.514 0.534 0.809 1.249 0.809 1.995c0 0.525-0.139 1.028-0.406 1.473c-0.065 0.111-0.21 0.143-0.334 0.056L14.003 8.411zM13.003 12.877c0.386 0 0.694-0.351 0.616-0.753c-0.059-0.297-0.337-0.503-0.64-0.503h-0.169c-0.12 0-0.217-0.097-0.217-0.217v-0.163c0-0.12 0.097-0.217 0.217-0.217h0.193c0.386 0 0.694-0.351 0.616-0.753c-0.059-0.297-0.337-0.503-0.64-0.503l-2.021 0c-0.386 0-0.694 0.351-0.616 0.753c0.059 0.297 0.337 0.503 0.64 0.503l0.733 0c0.12 0 0.217 0.097 0.217 0.217v0.163c0 0.12-0.097 0.217-0.217 0.217l-0.733 0c-0.304 0-0.583 0.204-0.64 0.503c-0.078 0.401 0.227 0.753 0.616 0.753H13.003z"></path></svg>