<svg viewBox="0 0 24 24" data-use="/cms/svg/site/nst3xcjc347.24.svg#boundary"><path d="M11.877 8.834c0.502 0 0.962 0.06 1.377 0.18c0.414 0.121 0.77 0.299 1.065 0.533c0.295 0.235 0.524 0.524 0.689 0.869c0.163 0.345 0.246 0.735 0.246 1.171c0 0.59-0.161 1.082-0.484 1.476c-0.323 0.394-0.768 0.7-1.336 0.918v0.066c0.623 0.163 1.14 0.464 1.549 0.902c0.411 0.438 0.616 1.001 0.616 1.688c0 0.48-0.095 0.907-0.288 1.28c-0.191 0.372-0.453 0.686-0.786 0.942c-0.334 0.257-0.72 0.453-1.164 0.59c-0.442 0.137-0.915 0.205-1.417 0.205c-0.852 0-1.564-0.143-2.132-0.427c-0.568-0.284-1.038-0.634-1.41-1.049l0.902-1.214c0.317 0.317 0.678 0.588 1.082 0.812c0.405 0.224 0.869 0.335 1.393 0.335c0.568 0 1.03-0.139 1.386-0.418c0.356-0.279 0.533-0.664 0.533-1.157c0-0.273-0.049-0.519-0.147-0.737c-0.099-0.218-0.266-0.405-0.5-0.557c-0.235-0.152-0.55-0.271-0.942-0.352c-0.392-0.082-0.885-0.123-1.476-0.123v-1.377c0.513 0 0.942-0.04 1.287-0.123c0.345-0.082 0.623-0.196 0.836-0.345c0.213-0.147 0.367-0.324 0.458-0.533c0.093-0.207 0.139-0.431 0.139-0.673c0-0.436-0.137-0.779-0.409-1.025c-0.273-0.246-0.651-0.368-1.131-0.368c-0.416 0-0.79 0.09-1.124 0.271c-0.334 0.18-0.658 0.418-0.975 0.713l-0.968-1.164c0.447-0.394 0.926-0.711 1.434-0.951C10.689 8.955 11.254 8.834 11.877 8.834zM23.353 12.649l-0.629-0.629v11.61H1.278V12.018L0.649 12.649L0 12l3.522-3.522V1.324h3.751V4.73L12 0l12 12L23.353 12.649zM4.438 7.562L6.356 5.646V2.24H4.438V7.562zM21.808 11.104l-9.808-9.808L2.194 11.102v11.611h19.613V11.104z"></path></svg>