<svg viewBox="0 0 24 24" class="values-icon" data-use="/cms/svg/site/nst3xcjc347.24.svg#new_3"><path d="M12 0C5.384 0 0 5.384 0 12s5.384 12 12 12s12-5.384 12-12S18.618 0 12 0zM12 22.914C5.983 22.914 1.088 18.017 1.088 12S5.983 1.088 12 1.088s10.912 4.895 10.912 10.912S18.017 22.914 12 22.914zM15.463 12.818c0.476 0.507 0.714 1.16 0.714 1.96c0 0.559-0.111 1.053-0.333 1.484c-0.222 0.431-0.526 0.796-0.914 1.094c-0.387 0.298-0.838 0.526-1.351 0.685c-0.513 0.159-1.062 0.237-1.645 0.237c-0.99 0-1.814-0.165-2.474-0.494c-0.659-0.328-1.205-0.735-1.636-1.218l1.046-1.408c0.368 0.368 0.785 0.681 1.255 0.942c0.47 0.261 1.007 0.389 1.616 0.389c0.659 0 1.194-0.161 1.608-0.485c0.411-0.324 0.618-0.77 0.618-1.342c0-0.318-0.057-0.603-0.172-0.855c-0.113-0.255-0.307-0.47-0.581-0.646c-0.272-0.178-0.637-0.313-1.094-0.409s-1.027-0.144-1.712-0.144v-1.599c0.596 0 1.094-0.048 1.492-0.144s0.722-0.228 0.97-0.4s0.424-0.376 0.533-0.618c0.107-0.241 0.161-0.5 0.161-0.779c0-0.507-0.159-0.903-0.476-1.188s-0.755-0.429-1.312-0.429c-0.483 0-0.916 0.104-1.303 0.313c-0.387 0.209-0.764 0.485-1.131 0.827l-1.123-1.351c0.52-0.457 1.075-0.825 1.664-1.103c0.59-0.278 1.247-0.418 1.969-0.418c0.583 0 1.116 0.07 1.597 0.209c0.481 0.139 0.894 0.346 1.236 0.618c0.342 0.272 0.609 0.609 0.798 1.007c0.189 0.4 0.285 0.853 0.285 1.36c0 0.685-0.187 1.255-0.561 1.712c-0.374 0.457-0.892 0.811-1.551 1.066v0.076C14.389 11.963 14.987 12.311 15.463 12.818z"></path></svg>