<svg viewBox="0 0 24 24" data-use="/cms/svg/site/nst3xcjc347.24.svg#ticks"><path d="M3.236 6.689c0.497 0 1.179-0.083 1.723-0.302c0.229 0.099 0.471 0.194 0.727 0.29c1.03 0.393 2.199 0.839 2.738 1.895c0.254 0.497 0.685 1.262 1.305 2.093c0.058 0.078 0.147 0.118 0.234 0.118c0.062 0 0.121-0.02 0.175-0.058c0.128-0.097 0.156-0.281 0.06-0.409c-0.627-0.84-1.054-1.621-1.253-2.01c-0.641-1.256-1.977-1.766-3.051-2.174c-0.102-0.039-0.203-0.078-0.302-0.116C7.018 4.94 7.384 3.571 7.326 2.947c0.804-0.106 1.577-0.175 2.32-0.204c-0.331 1.114-0.13 1.697 0.065 2.263c0.148 0.429 0.289 0.833 0.168 1.524c-0.028 0.159 0.079 0.31 0.238 0.338c0.018 0.004 0.034 0.006 0.051 0.006c0.14 0 0.262-0.1 0.288-0.241c0.147-0.84-0.034-1.359-0.19-1.815c-0.19-0.55-0.354-1.029 0.001-2.086c0.732-0.011 1.434 0.016 2.104 0.081c-0.525 0.897-0.414 1.744-0.304 2.567c0.114 0.868 0.224 1.688-0.437 2.574c-0.097 0.128-0.07 0.312 0.06 0.409c0.053 0.039 0.114 0.058 0.175 0.058c0.09 0 0.178-0.041 0.234-0.118c0.802-1.077 0.666-2.099 0.546-3.001C12.529 4.435 12.433 3.689 13.018 2.88c0.749 0.102 1.453 0.257 2.122 0.46c-0.814 1.093-0.767 2.045-0.719 2.969c0.042 0.84 0.083 1.634-0.534 2.562c-0.09 0.134-0.053 0.316 0.081 0.405c0.049 0.034 0.106 0.049 0.162 0.049c0.095 0 0.187-0.046 0.243-0.13c0.725-1.089 0.677-2.017 0.633-2.915c-0.048-0.939-0.086-1.754 0.727-2.745c0.643 0.233 1.244 0.515 1.804 0.846c-0.983 1.216-1.004 2.185-1.021 3.041c-0.013 0.638-0.021 1.19-0.445 1.773c-0.095 0.13-0.067 0.314 0.065 0.409c0.051 0.037 0.113 0.056 0.171 0.056c0.09 0 0.18-0.042 0.236-0.12c0.534-0.733 0.546-1.431 0.558-2.106c0.016-0.812 0.034-1.651 0.934-2.738c0.622 0.419 1.19 0.906 1.7 1.459c-0.715 0.617-0.88 1.343-1.026 1.988c-0.144 0.64-0.269 1.191-0.901 1.592c-0.135 0.086-0.176 0.268-0.09 0.403c0.056 0.088 0.149 0.135 0.247 0.135c0.053 0 0.107-0.014 0.156-0.046c0.835-0.53 0.999-1.255 1.157-1.956c0.137-0.606 0.268-1.183 0.837-1.674c0.532 0.652 0.997 1.387 1.39 2.203c-0.168 0.134-0.333 0.282-0.492 0.424c-0.445 0.402-0.867 0.781-1.307 0.828c-0.161 0.018-0.276 0.162-0.259 0.323c0.016 0.149 0.142 0.261 0.29 0.261c0.011 0 0.021 0 0.032-0.001c0.627-0.067 1.14-0.529 1.637-0.976c0.114-0.104 0.233-0.208 0.351-0.307c0.148 0.349 0.283 0.71 0.409 1.085c-0.171 0.511-1.355 3.424-6.025 3.438c-0.254 0.001-0.513-0.016-0.765-0.049c-0.161-0.021-0.307 0.092-0.328 0.25c-0.021 0.161 0.092 0.307 0.25 0.328c0.271 0.037 0.548 0.055 0.823 0.055c0.007 0 0.014 0 0.021 0c5.539-0.018 6.603-3.913 6.613-3.954l0.021-0.083l-0.027-0.081c-1.441-4.441-5.353-9.41-15.804-7.938c-0.203-0.099-0.481-0.152-0.833-0.152c-0.774 0-1.937 0.255-2.788 0.826c-1.293 0.867-1.62 2.717-1.438 3.137C2.052 6.607 2.713 6.689 3.236 6.689zM3.646 3.568c0.746-0.5 1.799-0.727 2.461-0.727c0.259 0 0.423 0.032 0.52 0.063c0.032 0.037 0.072 0.063 0.116 0.081c0.06 0.285-0.156 1.646-1.685 2.696c-0.361 0.248-1.112 0.423-1.826 0.423c-0.479 0-0.74-0.081-0.814-0.128C2.392 5.705 2.591 4.276 3.646 3.568zM0.582 8.1c-0.023 0.142-0.148 0.245-0.289 0.245c-0.016 0-0.032-0.001-0.048-0.004c-0.159-0.027-0.268-0.176-0.241-0.335c0.189-1.162 1.121-1.51 1.159-1.524c0.152-0.055 0.319 0.023 0.374 0.176c0.055 0.152-0.023 0.317-0.173 0.374C1.334 7.041 0.713 7.289 0.582 8.1zM1.678 7.131c0.058-0.152 0.227-0.226 0.377-0.168c0.149 0.058 0.226 0.227 0.168 0.377c-0.12 0.31-0.295 0.93-0.121 1.594c0.041 0.156-0.053 0.316-0.21 0.356c-0.025 0.007-0.049 0.008-0.074 0.008c-0.13 0-0.248-0.088-0.282-0.219C1.377 8.472 1.428 7.779 1.678 7.131zM5.848 7.26c0.037-0.156-0.06-0.316-0.217-0.352c-0.156-0.037-0.316 0.06-0.352 0.217c-0.257 1.08-0.694 1.587-0.908 1.589c-0.028 0-0.06-0.007-0.095-0.042c-0.065-0.069-0.275-0.384-0.213-1.556c0.008-0.161-0.114-0.3-0.276-0.307c-0.161-0.007-0.3 0.114-0.307 0.276c-0.055 1.021 0.069 1.67 0.374 1.991c0.19 1.11 0.987 1.914 1.649 2.191c0.164 0.069 0.3 0.095 0.41 0.095c0.141 0 0.241-0.042 0.309-0.09c0.095-0.067 0.213-0.197 0.241-0.441c0.062-0.53-0.347-1.345-1.124-2.25C5.547 8.237 5.721 7.791 5.848 7.26zM5.883 10.773c-0.264-0.023-1.078-0.537-1.378-1.491c0.159-0.03 0.314-0.114 0.46-0.243C5.775 10.004 5.922 10.608 5.883 10.773zM5.421 11.64c0.07 0.144 0.011 0.321-0.135 0.391c-0.615 0.3-2.072 1.366-3.189 3.262c-0.055 0.092-0.152 0.144-0.252 0.144c-0.051 0-0.102-0.013-0.148-0.041c-0.14-0.083-0.185-0.261-0.104-0.4c1.033-1.752 2.506-3.036 3.438-3.49C5.174 11.434 5.351 11.494 5.421 11.64zM1.502 12.754c-0.056 0.081-0.148 0.123-0.238 0.123c-0.058 0-0.118-0.018-0.169-0.055c-0.133-0.093-0.162-0.275-0.069-0.407c0.641-0.906 2.227-1.641 3.112-1.644c0 0 0 0 0.001 0c0.161 0 0.293 0.13 0.293 0.29c0 0.162-0.13 0.293-0.29 0.293C3.411 11.36 2.024 12.019 1.502 12.754zM9.155 13.27c0.295-0.121 0.416-0.471 0.361-1.038c-0.042-0.441-0.19-0.981-0.416-1.524c-0.083-0.199-0.173-0.386-0.268-0.565c0.018-0.014 0.034-0.028 0.051-0.044c0.118-0.111 0.123-0.296 0.014-0.412c-0.111-0.118-0.296-0.123-0.412-0.014c-0.123 0.114-0.25 0.175-0.377 0.175c-0.453 0-0.957-0.802-0.957-1.952c0-0.055 0.001-0.109 0.004-0.164c0.007-0.162-0.118-0.297-0.281-0.304c-0.162-0.007-0.297 0.118-0.304 0.281c-0.004 0.062-0.004 0.125-0.004 0.189c0 0.661 0.148 1.253 0.391 1.7c0 0.006-0.001 0.011-0.001 0.018c-0.008 0.472 0.148 1.133 0.429 1.81c0.226 0.543 0.504 1.029 0.784 1.371c0.283 0.345 0.55 0.518 0.793 0.518C9.024 13.31 9.092 13.296 9.155 13.27zM8.921 12.708c-0.175-0.093-0.608-0.565-0.999-1.51c-0.127-0.307-0.226-0.61-0.293-0.887c0.149 0.078 0.31 0.12 0.478 0.12c0.069 0 0.137-0.007 0.206-0.021c0.088 0.166 0.171 0.34 0.248 0.523C8.951 11.876 8.977 12.518 8.921 12.708zM11.98 19.991c-0.058 0.076-0.144 0.116-0.234 0.116c-0.062 0-0.123-0.02-0.176-0.058c-1.81-1.366-2.529-3.059-2.795-3.946c-0.086-0.289-0.088-0.725-0.046-0.988l0.219-1.353c0.027-0.161 0.176-0.268 0.335-0.241c0.159 0.027 0.268 0.176 0.241 0.335l-0.219 1.353c-0.035 0.219-0.021 0.558 0.028 0.727c0.247 0.819 0.911 2.382 2.587 3.648C12.05 19.679 12.076 19.862 11.98 19.991zM15.758 16.014c-0.164-0.504-0.478-1.101-0.88-1.683c-0.402-0.581-0.849-1.08-1.26-1.411c-0.051-0.271-0.137-0.527-0.197-0.682c-0.264-0.691-0.671-1.29-1.091-1.604c-0.271-0.203-0.564-0.304-0.873-0.304c-0.654 0-1.239 0.488-1.458 0.946c-0.304 0.64 0.114 1.537 1.045 2.231c0.431 0.323 0.908 0.543 1.331 0.626c0.178 0.436 0.448 0.925 0.774 1.396c0.403 0.581 0.853 1.085 1.265 1.417c0.347 0.278 0.647 0.417 0.894 0.417c0.12 0 0.227-0.034 0.321-0.099C15.92 17.062 15.962 16.641 15.758 16.014zM11.395 13.037c-0.768-0.572-1.019-1.193-0.867-1.51c0.118-0.248 0.495-0.615 0.93-0.615c0.178 0 0.354 0.063 0.522 0.189c0.772 0.577 1.223 2.129 1.071 2.379c-0.069 0.092-0.229 0.106-0.319 0.106C12.36 13.585 11.848 13.376 11.395 13.037zM15.292 16.776c-0.213-0.006-0.929-0.52-1.663-1.582c-0.245-0.354-0.457-0.718-0.613-1.054c0.261-0.058 0.414-0.192 0.502-0.31c0.032-0.042 0.056-0.092 0.076-0.142c0.269 0.271 0.548 0.608 0.802 0.974C15.132 15.725 15.363 16.573 15.292 16.776zM21.972 21.686c-0.048 0.109-0.155 0.175-0.268 0.175c-0.039 0-0.079-0.007-0.116-0.025c-3.199-1.399-5.539-3.878-5.637-3.984c-0.111-0.118-0.104-0.303 0.014-0.412c0.118-0.111 0.303-0.104 0.412 0.014c0.023 0.025 2.36 2.499 5.445 3.847C21.971 21.365 22.038 21.538 21.972 21.686zM23.994 17.567c-0.028 0.14-0.149 0.234-0.285 0.234c-0.02 0-0.039-0.001-0.058-0.006c-3.42-0.698-6.229-2.63-6.347-2.714c-0.133-0.092-0.166-0.275-0.072-0.407c0.092-0.133 0.275-0.166 0.407-0.074c0.028 0.02 2.83 1.949 6.129 2.621C23.925 17.256 24.028 17.411 23.994 17.567zM3.308 4.754c-0.055-0.056-0.086-0.13-0.086-0.208c0-0.078 0.032-0.152 0.086-0.208c0.107-0.107 0.303-0.107 0.414 0c0.055 0.056 0.085 0.13 0.085 0.208c0 0.078-0.03 0.152-0.085 0.206c-0.056 0.056-0.13 0.086-0.208 0.086C3.439 4.838 3.363 4.808 3.308 4.754z"></path></svg>