<svg viewBox="0 0 24 24" data-use="/cms/svg/site/nst3xcjc347.24.svg#target"><path d="M12.836 15.072h2.12v1.333H9.111V15.493c0.598-0.58 1.14-1.114 1.624-1.604c0.485-0.489 0.897-0.942 1.237-1.36c0.34-0.416 0.601-0.807 0.781-1.168c0.182-0.362 0.273-0.708 0.273-1.033c0-0.462-0.123-0.827-0.367-1.095c-0.245-0.268-0.598-0.402-1.06-0.402c-0.335 0-0.641 0.096-0.918 0.285c-0.277 0.19-0.532 0.418-0.768 0.679l-0.87-0.87c0.398-0.426 0.808-0.754 1.231-0.985c0.421-0.231 0.931-0.346 1.529-0.346c0.416 0 0.792 0.064 1.129 0.19c0.335 0.128 0.62 0.306 0.856 0.537c0.236 0.231 0.419 0.51 0.55 0.837c0.131 0.327 0.198 0.689 0.198 1.087c0 0.381-0.084 0.768-0.252 1.162c-0.167 0.394-0.394 0.794-0.679 1.197c-0.285 0.403-0.618 0.818-0.999 1.243c-0.381 0.426-0.784 0.866-1.21 1.318c0.226-0.018 0.472-0.038 0.735-0.061C12.391 15.083 12.627 15.072 12.836 15.072zM24 12.398h-1.138c-0.099 2.754-1.215 5.33-3.175 7.288c-2.016 2.018-4.637 3.072-7.288 3.167v1.146h-0.797v-1.146c-2.651-0.097-5.273-1.152-7.294-3.17C2.292 17.666 1.238 15.045 1.141 12.398H0v-0.797h1.141c0.096-2.651 1.151-5.271 3.169-7.289C6.33 2.295 8.952 1.242 11.601 1.144V0h0.797v1.144c2.651 0.096 5.271 1.151 7.288 3.167v0c1.959 1.959 3.076 4.535 3.175 7.289h1.138V12.398zM12.398 1.941v1.814c1.981 0.094 3.932 0.896 5.442 2.404v0c1.466 1.466 2.313 3.386 2.41 5.442h1.816c-0.099-2.541-1.133-4.917-2.941-6.725C17.261 3.014 14.844 2.037 12.398 1.941zM18.007 12.398v-0.797h1.444c-0.097-1.844-0.859-3.564-2.176-4.879c-1.353-1.352-3.102-2.074-4.877-2.168v1.439h-0.797v-1.439c-1.776 0.094-3.526 0.816-4.881 2.169c-1.353 1.353-2.077 3.102-2.169 4.879h1.443v0.797h-1.441c0.094 1.774 0.816 3.523 2.168 4.876c1.355 1.353 3.105 2.077 4.882 2.171v-1.438h0.797v1.438c1.777-0.094 3.526-0.816 4.877-2.169c1.315-1.313 2.079-3.033 2.176-4.877H18.007zM1.938 11.601h1.814c0.094-1.981 0.896-3.934 2.405-5.442c1.509-1.508 3.464-2.308 5.443-2.404V1.941c-2.445 0.096-4.863 1.073-6.728 2.934C3.011 6.738 2.034 9.156 1.938 11.601zM11.601 22.057V20.243c-1.981-0.096-3.934-0.897-5.445-2.405c-1.506-1.508-2.308-3.46-2.404-5.439H1.938c0.096 2.444 1.073 4.858 2.933 6.722C6.736 20.983 9.156 21.96 11.601 22.057zM22.063 12.398h-1.816c-0.097 2.056-0.944 3.975-2.41 5.44c-1.508 1.508-3.46 2.31-5.442 2.405v1.814c2.447-0.096 4.863-1.073 6.725-2.934C20.932 17.315 21.966 14.94 22.063 12.398z"></path></svg>