<svg viewBox="0 0 24 24" data-use="/cms/svg/site/nst3xcjc347.24.svg#inspection"><path class="st0" d="M10.9 13.305h1.812v1.363H7.161V13.305h2.058V7.247H7.522v-1.044c0.463-0.088 0.862-0.191 1.196-0.311c0.334-0.12 0.645-0.267 0.935-0.442h1.246V13.305zM18.135 10.057c0.002 2.207-0.848 4.286-2.39 5.853c-1.552 1.58-3.615 2.45-5.81 2.45c-0.002 0-0.005 0-0.006 0c-2.165 0-4.207-0.849-5.751-2.394c-1.574-1.574-2.441-3.67-2.441-5.905c0-2.209 0.849-4.288 2.39-5.857c1.549-1.578 3.611-2.447 5.805-2.449c0.002 0 0.003 0 0.005 0c2.188 0 4.246 0.865 5.793 2.436C17.28 5.759 18.134 7.842 18.135 10.057zM17.325 10.057c-0.002-2.001-0.773-3.881-2.17-5.296c-1.395-1.416-3.248-2.194-5.218-2.194c-0.002 0-0.003 0-0.005 0c-1.974 0-3.831 0.784-5.226 2.206c-1.392 1.416-2.159 3.293-2.159 5.288c0 2.018 0.781 3.912 2.202 5.332c1.392 1.39 3.231 2.157 5.179 2.157c0.002 0 0.003 0 0.006 0c1.975 0 3.834-0.784 5.233-2.207l0 0C16.56 13.927 17.327 12.05 17.325 10.057zM23.256 23.428c-0.379 0.376-0.864 0.572-1.364 0.572c-0.256 0-0.514-0.052-0.765-0.157l-0.075-0.031l-4.499-4.559l1.019-1.032l-0.831-0.843c-1.852 1.77-4.257 2.742-6.806 2.742c-0.003 0-0.005 0-0.006 0c-2.646 0-5.139-1.047-7.017-2.949C1.036 15.269 0.002 12.744 0 10.062c0-2.674 1.027-5.195 2.896-7.1C4.774 1.052 7.271 0 9.926 0c0.003 0 0.008 0 0.011 0c2.646 0 5.139 1.047 7.019 2.948v0c1.878 1.901 2.912 4.426 2.912 7.111c0 2.51-0.906 4.884-2.56 6.738l0.836 0.848l1.019-1.032l4.505 4.565l0.031 0.075C24.01 22.015 23.841 22.849 23.256 23.428zM19.057 10.059c0-2.47-0.951-4.792-2.677-6.54v0C14.654 1.771 12.366 0.81 9.937 0.81c-0.003 0-0.006 0-0.011 0c-2.437 0-4.729 0.966-6.453 2.721C1.755 5.281 0.81 7.602 0.81 10.062c0.002 2.468 0.953 4.79 2.679 6.539c1.724 1.747 4.011 2.708 6.44 2.708c0.002 0 0.005 0 0.006 0c2.439 0 4.734-0.967 6.461-2.724C18.113 14.838 19.059 12.519 19.057 10.059zM18.281 19.848l1.468-1.488l-0.587-0.595l-1.468 1.488L18.281 19.848zM22.974 21.628l-2.656-2.69l-1.468 1.488l2.661 2.698c0.418 0.147 0.852 0.049 1.175-0.271C22.947 22.595 23.151 22.143 22.974 21.628z"></path></svg>