<svg viewBox="0 0 24 24" class="values-icon" data-use="/cms/svg/site/nst3xcjc347.24.svg#new_2"><path d="M12 0C5.384 0 0 5.384 0 12s5.384 12 12 12s12-5.384 12-12S18.618 0 12 0zM12 22.914C5.983 22.914 1.088 18.017 1.088 12S5.983 1.088 12 1.088s10.912 4.895 10.912 10.912S18.017 22.914 12 22.914zM13.17 16.299h2.967v1.864h-8.18v-1.275c0.838-0.811 1.595-1.56 2.273-2.245c0.679-0.685 1.255-1.318 1.732-1.901c0.476-0.583 0.84-1.129 1.094-1.636c0.255-0.507 0.381-0.99 0.381-1.447c0-0.646-0.172-1.157-0.513-1.532c-0.342-0.374-0.838-0.561-1.484-0.561c-0.47 0-0.896 0.133-1.284 0.4c-0.387 0.265-0.746 0.583-1.075 0.951l-1.218-1.218c0.557-0.596 1.131-1.055 1.721-1.379c0.59-0.324 1.303-0.485 2.141-0.485c0.583 0 1.109 0.089 1.579 0.265c0.47 0.178 0.868 0.429 1.199 0.751c0.328 0.324 0.587 0.714 0.77 1.17c0.183 0.457 0.276 0.964 0.276 1.523c0 0.533-0.117 1.075-0.352 1.627c-0.235 0.553-0.553 1.109-0.951 1.675s-0.866 1.144-1.399 1.74c-0.533 0.596-1.096 1.212-1.693 1.845c0.318-0.026 0.659-0.054 1.027-0.085C12.55 16.316 12.879 16.299 13.17 16.299z"></path></svg>