<svg xmlns="http://www.w3.org/2000/svg" width="117" height="51" viewBox="0 0 117 51" fill="none"><path d="M89.1 8.95898L98.8182 19.933L88.6289 31.6725H96.3125L102.554 24.3847L108.678 31.6725H116.667L106.331 19.9773L115.854 9.08387L108.215 9.06372L102.591 15.5257L97.076 8.95898H89.1Z" fill="white"></path><path d="M86.635 8.9502H80.7464V22.3978C80.7625 22.8684 80.683 23.3373 80.5125 23.7767C80.3421 24.2161 80.0843 24.617 79.7544 24.9555C79.4246 25.294 79.0294 25.5632 78.5925 25.7471C78.1556 25.9309 77.6858 26.0257 77.2112 26.0257C76.7367 26.0257 76.2669 25.9309 75.83 25.7471C75.3931 25.5632 74.9979 25.294 74.6681 24.9555C74.3382 24.617 74.0804 24.2161 73.91 23.7767C73.7395 23.3373 73.66 22.8684 73.6761 22.3978V8.9502H67.7185V22.3978C67.7346 22.8684 67.655 23.3373 67.4846 23.7767C67.3142 24.2161 67.0564 24.617 66.7265 24.9555C66.3966 25.294 66.0015 25.5632 65.5646 25.7471C65.1277 25.9309 64.6579 26.0257 64.1833 26.0257C63.7087 26.0257 63.239 25.9309 62.802 25.7471C62.3651 25.5632 61.97 25.294 61.6401 24.9555C61.3103 24.617 61.0524 24.2161 60.882 23.7767C60.7116 23.3373 60.6321 22.8684 60.6481 22.3978V8.9502H54.7596V22.3978C54.7353 23.6324 54.9625 24.8591 55.4276 26.0044C55.8927 27.1498 56.5861 28.1902 57.4662 29.0633C58.3464 29.9364 59.3952 30.6243 60.5497 31.0857C61.7043 31.547 62.9409 31.7724 64.1853 31.7483C66.4177 31.7646 68.5809 30.9807 70.277 29.5406L70.6384 29.1982C70.8942 29.4037 71.077 29.5406 71.077 29.5406C72.7726 30.9813 74.9361 31.7654 77.1686 31.7483C78.4127 31.7719 79.6489 31.5461 80.803 31.0845C81.9571 30.6228 83.0054 29.9349 83.8851 29.0618C84.7648 28.1888 85.4578 27.1485 85.9227 26.0035C86.3875 24.8584 86.6146 23.632 86.5903 22.3978L86.635 8.9502Z" fill="white"></path><path d="M45.1797 11.122C43.868 9.86104 42.0689 9.10769 39.6647 9.10769C36.6403 9.10769 33.7398 10.2995 31.6012 12.421C29.4627 14.5425 28.2612 17.4199 28.2612 20.4201C28.2612 23.4204 29.4627 26.2978 31.6012 28.4193C33.7398 30.5407 36.6403 31.7326 39.6647 31.7326C42.0689 31.7326 43.868 30.9913 45.1797 29.7183V31.7326H51.0683V8.93848H45.1797V11.122ZM39.6647 25.9595C38.5959 25.9599 37.5496 25.6554 36.6505 25.0822C35.7513 24.5089 35.0373 23.6913 34.5937 22.7267C34.15 21.7621 33.9953 20.6913 34.1482 19.6419C34.301 18.5926 34.7548 17.6089 35.4555 16.8084C36.1563 16.0078 37.0743 15.424 38.1002 15.1267C39.1261 14.8294 40.2166 14.831 41.2416 15.1315C42.2666 15.4319 43.1828 16.0185 43.8811 16.8212C44.5793 17.6239 45.0301 18.6089 45.1797 19.6587V21.2138C44.9893 22.5304 44.3269 23.7349 43.314 24.6066C42.3012 25.4782 41.0056 25.9585 39.6647 25.9595Z" fill="white"></path><path d="M25.0041 17.5478C25.0041 17.5155 12.5162 9.12787 12.5162 9.12384L6.01852 13.507V0.933594H0.0243655L0 31.6642V31.7085C0 31.7085 0 31.7326 0 31.7488H5.99009C5.99009 31.6843 5.99009 31.6198 5.99009 31.5594V20.4242L12.4878 15.8074L18.9855 20.4242V31.5514C18.9855 31.6118 18.9855 31.6762 18.9855 31.7407H24.9675V31.7004L25.0041 17.5478Z" fill="white"></path><path d="M13.8831 50.9078C13.3046 50.9256 12.7292 50.817 12.1977 50.5896C11.7755 50.4044 11.4149 50.104 11.1581 49.7234C10.9163 49.3502 10.7919 48.9141 10.8007 48.4705H12.4252C12.4235 48.6551 12.4772 48.836 12.5795 48.9902C12.6945 49.1694 12.8616 49.3099 13.0587 49.3931C13.3241 49.4994 13.6092 49.5488 13.8953 49.5381C14.1591 49.5451 14.422 49.5042 14.6709 49.4172C14.8565 49.3519 15.0198 49.236 15.142 49.0829C15.25 48.9401 15.3071 48.7658 15.3045 48.5873C15.3066 48.4769 15.2801 48.3677 15.2275 48.2704C15.1748 48.173 15.0979 48.0907 15.0039 48.0314C14.704 47.8659 14.3683 47.7747 14.0252 47.7655L13.4729 47.7292C12.8286 47.6964 12.2126 47.4559 11.7185 47.0444C11.5008 46.8487 11.329 46.6081 11.2153 46.3394C11.1017 46.0707 11.0488 45.7805 11.0606 45.4893C11.0435 45.0641 11.157 44.6437 11.3862 44.284C11.6154 43.9242 11.9494 43.6421 12.3439 43.475C13.2812 43.1017 14.329 43.1104 15.2598 43.4991C15.6522 43.6805 15.9826 43.9717 16.2101 44.3371C16.438 44.7108 16.5535 45.1413 16.5431 45.5779H14.9187C14.9195 45.4056 14.8747 45.2361 14.7887 45.0864C14.6971 44.9319 14.5634 44.8062 14.4029 44.7239C14.2028 44.6294 13.9828 44.5838 13.7613 44.5909C13.5523 44.5835 13.3443 44.622 13.1521 44.7037C12.9983 44.7706 12.8692 44.8833 12.7825 45.026C12.7019 45.1642 12.6612 45.3216 12.6648 45.4812C12.6648 45.679 12.7436 45.8687 12.8841 46.009C13.0845 46.1849 13.3434 46.281 13.611 46.2789L14.1755 46.3273C14.6653 46.3644 15.1455 46.4815 15.5969 46.6737C15.9761 46.8374 16.3062 47.0955 16.5553 47.423C16.7957 47.7603 16.9184 48.1664 16.9045 48.5793C16.9138 49.0171 16.7846 49.4468 16.535 49.808C16.2713 50.1678 15.9111 50.447 15.4953 50.6137C14.9789 50.8169 14.4263 50.9142 13.8709 50.8998" fill="#EAB749"></path><path d="M17.6963 50.7103V45.2474H18.9837V47.6082H18.8943C18.8824 47.1323 18.9538 46.6579 19.1055 46.2063C19.2232 45.8671 19.4447 45.5727 19.739 45.3643C20.0484 45.1668 20.4109 45.0671 20.7787 45.0782H20.8477C21.2169 45.0655 21.5811 45.1653 21.8914 45.3643C22.1857 45.5727 22.4072 45.8671 22.5249 46.2063C22.6835 46.6564 22.7579 47.1315 22.7442 47.6082H22.3381C22.3245 47.1315 22.3988 46.6564 22.5574 46.2063C22.6767 45.8668 22.8995 45.5725 23.195 45.3643C23.5042 45.1664 23.8668 45.0666 24.2346 45.0782H24.3037C24.6753 45.0667 25.0418 45.1663 25.3555 45.3643C25.6547 45.5714 25.8818 45.8656 26.0053 46.2063C26.1674 46.6556 26.2431 47.1312 26.2286 47.6082V50.7264H24.6042V47.5035C24.6148 47.2448 24.5328 46.9908 24.3727 46.7864C24.2912 46.6915 24.1887 46.6166 24.0731 46.5677C23.9576 46.5187 23.8321 46.4971 23.7067 46.5044C23.5787 46.4987 23.451 46.5214 23.333 46.5709C23.2149 46.6204 23.1095 46.6954 23.0244 46.7904C22.8487 46.9984 22.7588 47.2647 22.7726 47.5357V50.7143H21.1482V47.4914C21.1595 47.232 21.0758 46.9773 20.9127 46.7743C20.8316 46.68 20.7297 46.6054 20.6149 46.5565C20.5001 46.5076 20.3755 46.4856 20.2507 46.4923C20.1209 46.4865 19.9914 46.5091 19.8714 46.5585C19.7513 46.608 19.6438 46.683 19.5563 46.7783C19.3823 46.9873 19.2926 47.2528 19.3045 47.5236V50.7022L17.6963 50.7103Z" fill="#EAB749"></path><path d="M28.9417 50.8476C28.5824 50.8563 28.2257 50.7848 27.898 50.6381C27.6095 50.5089 27.3653 50.2989 27.1954 50.0339C27.0222 49.75 26.9348 49.4228 26.9436 49.0911C26.9292 48.7373 27.0398 48.3896 27.2563 48.1082C27.4865 47.837 27.7913 47.6382 28.1335 47.5361C28.5544 47.4076 28.9928 47.3451 29.4331 47.3508H30.6149V48.2411H29.425C29.1899 48.2251 28.9575 48.2986 28.7752 48.4466C28.6984 48.5169 28.6382 48.6032 28.5989 48.6993C28.5596 48.7954 28.5421 48.899 28.5478 49.0025C28.5438 49.1023 28.5621 49.2017 28.6014 49.2937C28.6407 49.3856 28.7001 49.4678 28.7752 49.5343C28.9575 49.6823 29.1899 49.7558 29.425 49.7398C29.592 49.7414 29.7577 49.7099 29.9123 49.6471C30.0622 49.577 30.1869 49.4632 30.2697 49.3208C30.3743 49.1231 30.43 48.9035 30.4321 48.6802L30.8138 49.0831C30.7936 49.4202 30.6994 49.7488 30.5377 50.0459C30.3913 50.3002 30.1742 50.5072 29.9123 50.6422C29.6112 50.7906 29.2777 50.8626 28.9417 50.8517V50.8476ZM30.7042 50.7147V49.1032H30.4321V47.3427C30.4506 47.1124 30.3778 46.884 30.2291 46.7062C30.1408 46.6307 30.0382 46.5737 29.9272 46.5384C29.8163 46.5031 29.6994 46.4903 29.5833 46.5007H29.0026L28.2513 46.5249C27.9914 46.5249 27.7559 46.5491 27.5487 46.5612V45.2116C27.7112 45.2116 27.898 45.1834 28.1051 45.1713C28.3122 45.1592 28.5112 45.1471 28.7508 45.139H29.3722C29.8583 45.1261 30.3424 45.2068 30.7976 45.3767C31.1619 45.5188 31.4708 45.7729 31.6789 46.1019C31.8953 46.4806 32.0008 46.9117 31.9834 47.3467V50.7066L30.7042 50.7147Z" fill="#EAB749"></path><path d="M33.084 50.7111V45.2483H34.3754V47.6091H34.3429C34.301 46.9702 34.4769 46.3359 34.8424 45.8083C35.0161 45.5975 35.2377 45.4307 35.489 45.3214C35.7404 45.2121 36.0143 45.1636 36.2882 45.1798H36.4994V46.5697H36.0932C35.9071 46.5578 35.7205 46.5826 35.5441 46.6428C35.3677 46.7029 35.2052 46.7972 35.0658 46.9202C34.9373 47.0559 34.8385 47.2165 34.7756 47.3919C34.7127 47.5673 34.6871 47.7537 34.7003 47.9394V50.7273L33.084 50.7111Z" fill="#EAB749"></path><path d="M36.8447 45.2476H40.8043V46.4279H36.8447V45.2476ZM40.0286 50.8071C39.5699 50.8219 39.1125 50.7508 38.6803 50.5976C38.3488 50.4683 38.0789 50.2193 37.925 49.9006C37.7444 49.4869 37.6611 49.0378 37.6813 48.5873V43.7529H39.1839V48.6316C39.1768 48.7391 39.1915 48.8468 39.227 48.9485C39.2626 49.0502 39.3184 49.1439 39.391 49.2238C39.4707 49.2949 39.5637 49.3497 39.6648 49.3849C39.7658 49.4202 39.8729 49.4353 39.9799 49.4293H40.7921V50.791L40.0286 50.8071Z" fill="#EAB749"></path><path d="M43.7969 43.3542H45.4497V50.7105H43.7969V43.3542ZM45.2467 48.6196V47.2015H46.5665C46.7961 47.2061 47.0234 47.1549 47.2285 47.0525C47.4031 46.9527 47.5444 46.8042 47.6346 46.6254C47.7351 46.4298 47.7853 46.2125 47.7808 45.9929C47.7863 45.7694 47.7361 45.548 47.6346 45.3484C47.5444 45.1696 47.4031 45.0211 47.2285 44.9213C47.0234 44.8189 46.7961 44.7677 46.5665 44.7723H45.2467V43.3542H46.4853C47.0432 43.3379 47.5978 43.4438 48.1097 43.6644C48.5339 43.8492 48.892 44.1567 49.1372 44.5467C49.3843 44.9592 49.5082 45.4327 49.4946 45.9124V46.0735C49.507 46.5492 49.3831 47.0186 49.1372 47.4271C48.892 47.8171 48.5339 48.1246 48.1097 48.3094C47.5984 48.5319 47.0433 48.6379 46.4853 48.6196H45.2467Z" fill="#EAB749"></path><path d="M52.7358 50.9087C52.3092 50.9184 51.8855 50.8374 51.4931 50.6711C51.1482 50.5231 50.8404 50.3017 50.5915 50.0224C50.3519 49.7549 50.1659 49.4445 50.0433 49.1079C49.9192 48.7767 49.8559 48.426 49.8565 48.0726V47.8711C49.8548 47.5111 49.918 47.1536 50.0433 46.8156C50.1644 46.4829 50.3492 46.1765 50.5875 45.9132C50.8327 45.64 51.1348 45.4229 51.4728 45.2767C51.8577 45.1144 52.2729 45.0348 52.6911 45.043C53.2197 45.0284 53.7408 45.1685 54.1896 45.4459C54.5863 45.7001 54.9074 46.0547 55.1196 46.4732C55.3366 46.9033 55.4479 47.3782 55.4445 47.8591V48.3989H50.5712V47.4884H54.4455L53.9135 47.9195C53.9201 47.6315 53.8733 47.3447 53.7754 47.0735C53.6988 46.8599 53.5568 46.6754 53.3693 46.5457C53.1638 46.4152 52.9228 46.3505 52.6789 46.3604C52.4276 46.3518 52.1792 46.4162 51.9642 46.5457C51.7629 46.6784 51.6083 46.8699 51.5215 47.0936C51.4137 47.3793 51.3626 47.683 51.3713 47.988C51.3641 48.2803 51.4123 48.5714 51.5134 48.8461C51.5964 49.0762 51.7516 49.2738 51.9561 49.4101C52.1867 49.5358 52.4448 49.6041 52.7079 49.609C52.9711 49.614 53.2315 49.5554 53.4668 49.4383C53.6346 49.3485 53.7686 49.2071 53.8485 49.0354H55.3308C55.2532 49.3946 55.0903 49.7302 54.8557 50.0144C54.617 50.3035 54.3139 50.5338 53.9703 50.6872C53.5871 50.856 53.1713 50.9399 52.752 50.9329" fill="#EAB749"></path><path d="M58.482 50.8875C57.8313 50.9246 57.1855 50.7553 56.6383 50.4041C56.4219 50.249 56.2453 50.0458 56.1226 49.8107C55.9999 49.5756 55.9345 49.3152 55.9316 49.0505H57.3652C57.3833 49.1451 57.4208 49.235 57.4752 49.3146C57.5297 49.3943 57.6001 49.4621 57.682 49.5138C57.9246 49.6643 58.2085 49.7362 58.4942 49.7192C58.7368 49.7284 58.978 49.6786 59.1968 49.5742C59.2768 49.5403 59.3454 49.4843 59.3943 49.4129C59.4433 49.3415 59.4706 49.2577 59.4729 49.1713C59.4732 49.0946 59.4535 49.019 59.4158 48.952C59.3781 48.885 59.3236 48.8287 59.2577 48.7886C59.0261 48.6658 58.7689 48.5982 58.5064 48.5912L58.0718 48.5429C57.5288 48.52 57.0064 48.3299 56.5774 47.999C56.4137 47.8544 56.2842 47.6759 56.1979 47.476C56.1115 47.2762 56.0706 47.06 56.0778 46.8428C56.0658 46.4961 56.1685 46.1551 56.3702 45.8719C56.5785 45.6025 56.8604 45.3984 57.1824 45.2837C57.5604 45.1444 57.9611 45.0761 58.3642 45.0822C58.9748 45.0539 59.5788 45.2175 60.0902 45.5496C60.3058 45.7018 60.4806 45.9039 60.5995 46.1384C60.7184 46.3729 60.7778 46.6327 60.7724 46.8951H59.3308C59.3199 46.8047 59.2897 46.7176 59.2421 46.6398C59.1944 46.562 59.1305 46.4952 59.0546 46.4439C58.845 46.3053 58.5953 46.2387 58.3439 46.2546C58.1366 46.243 57.9305 46.292 57.751 46.3956C57.683 46.4331 57.6264 46.488 57.5871 46.5546C57.5478 46.6212 57.5273 46.6971 57.5276 46.7743C57.5265 46.8445 57.5439 46.9138 57.5781 46.9752C57.6123 47.0367 57.6621 47.0883 57.7226 47.1248C57.9165 47.2211 58.1276 47.2786 58.3439 47.294L58.7785 47.3343C59.3495 47.3667 59.8992 47.5611 60.3623 47.8942C60.5449 48.0378 60.6908 48.2221 60.7881 48.4321C60.8855 48.6421 60.9316 48.8719 60.9227 49.1028C60.9316 49.4453 60.8259 49.781 60.6222 50.0576C60.4024 50.3426 60.1051 50.5592 59.7653 50.6821C59.3498 50.8353 58.9089 50.9091 58.4657 50.8996" fill="#EAB749"></path><path d="M61.2275 45.2476H65.1871V46.4279H61.2275V45.2476ZM64.4114 50.8071C63.9514 50.8224 63.4925 50.7513 63.0591 50.5976C62.729 50.466 62.4599 50.2177 62.3037 49.9006C62.1267 49.4859 62.0449 49.0373 62.0641 48.5873V43.7529H63.5667V48.6316C63.5596 48.7391 63.5743 48.8468 63.6098 48.9485C63.6454 49.0502 63.7012 49.1439 63.7738 49.2238C63.8527 49.2961 63.9456 49.3516 64.0469 49.3869C64.1481 49.4222 64.2556 49.4367 64.3627 49.4293H65.1749V50.791L64.4114 50.8071Z" fill="#EAB749"></path><path d="M71.5548 50.9081C70.9644 50.9233 70.3783 50.8048 69.841 50.5617C69.3869 50.3477 68.9862 50.0368 68.6674 49.6512C68.3697 49.2928 68.1412 48.8831 67.9932 48.4426C67.8515 48.0299 67.7774 47.5974 67.7739 47.1615V46.9439C67.7757 46.4865 67.8511 46.0322 67.9973 45.5984C68.1435 45.1546 68.3767 44.7438 68.6836 44.3898C69.0026 44.0216 69.399 43.7273 69.8451 43.5276C70.3664 43.299 70.9322 43.1876 71.502 43.2013C72.1103 43.1894 72.7133 43.3162 73.2645 43.572C73.7544 43.8024 74.1746 44.1567 74.4828 44.5993C74.7915 45.0555 74.9774 45.5825 75.023 46.1302H73.3579C73.3211 45.8555 73.2087 45.5962 73.033 45.3808C72.8579 45.1731 72.6351 45.01 72.3833 44.9054C72.1008 44.7925 71.7984 44.7363 71.4939 44.7403C71.1932 44.7355 70.8947 44.7917 70.6167 44.9054C70.3685 45.0103 70.1497 45.1735 69.9791 45.3808C69.797 45.5967 69.6591 45.8458 69.573 46.114C69.4805 46.4211 69.4353 46.7403 69.439 47.0608C69.4359 47.3772 69.4811 47.6924 69.573 47.9954C69.6587 48.265 69.7966 48.5155 69.9791 48.7327C70.1575 48.9431 70.3846 49.1076 70.641 49.2121C70.9255 49.3281 71.2311 49.3843 71.5385 49.3772C71.9971 49.3926 72.449 49.2643 72.83 49.0106C73.002 48.8929 73.1477 48.7413 73.2581 48.5652C73.3685 48.3892 73.4412 48.1925 73.4716 47.9874H75.157C75.0994 48.521 74.9084 49.0318 74.6013 49.4737C74.2942 49.9155 73.8808 50.2742 73.3985 50.5173C72.8312 50.7963 72.2041 50.9345 71.571 50.9202" fill="#EAB749"></path><path d="M78.7791 50.9079C78.3397 50.9164 77.9026 50.8412 77.4917 50.6864C77.1332 50.5461 76.8071 50.3351 76.5333 50.0659C76.277 49.8081 76.0742 49.5029 75.9364 49.1676C75.8026 48.8274 75.7351 48.4651 75.7374 48.1V47.8703C75.7351 47.4988 75.8069 47.1305 75.9485 46.7866C76.0887 46.4472 76.2958 46.139 76.5577 45.8802C76.8344 45.6148 77.1616 45.4066 77.5202 45.2678C78.3379 44.968 79.2366 44.968 80.0543 45.2678C80.4097 45.4058 80.733 45.6142 81.0046 45.8802C81.2665 46.139 81.4736 46.4472 81.6137 46.7866C81.7534 47.1311 81.8251 47.499 81.8249 47.8703V48.1C81.8259 48.4654 81.757 48.8276 81.6219 49.1676C81.487 49.5025 81.2869 49.8078 81.033 50.0659C80.7611 50.3354 80.4362 50.5466 80.0787 50.6864C79.6637 50.8419 79.2226 50.9171 78.7791 50.9079ZM78.7791 49.5503C79.0558 49.5598 79.3294 49.4898 79.567 49.3488C79.7773 49.2136 79.9415 49.0184 80.038 48.7889C80.151 48.5353 80.2065 48.2603 80.2005 47.9831C80.2059 47.6991 80.1491 47.4173 80.034 47.1572C79.9295 46.929 79.7619 46.7348 79.5507 46.5973C79.3168 46.4652 79.0523 46.3957 78.7832 46.3957C78.514 46.3957 78.2495 46.4652 78.0156 46.5973C77.8021 46.7345 77.6319 46.9286 77.5242 47.1572C77.4172 47.4126 77.3621 47.6864 77.3621 47.963C77.3621 48.2395 77.4172 48.5133 77.5242 48.7687C77.6226 49.0007 77.7916 49.1965 78.0075 49.3287C78.2417 49.4673 78.5106 49.5371 78.7832 49.5301" fill="#EAB749"></path><path d="M82.7188 50.7106V45.2478H84.0061V47.5965H83.9168C83.9039 47.1215 83.9768 46.648 84.132 46.1985C84.2537 45.8545 84.4863 45.56 84.794 45.3606C85.1173 45.1644 85.4914 45.0663 85.8702 45.0786H85.9432C86.221 45.0616 86.4989 45.1092 86.7549 45.2176C87.0108 45.326 87.2377 45.4922 87.4174 45.703C87.7977 46.259 87.9767 46.9265 87.9251 47.5965V50.7267H86.3006V47.5038C86.3125 47.2421 86.2206 46.9862 86.0448 46.7907C85.9548 46.6969 85.8454 46.6235 85.7241 46.5755C85.6029 46.5275 85.4726 46.5061 85.3422 46.5128C85.2079 46.5068 85.0738 46.5288 84.9486 46.5774C84.8234 46.626 84.7099 46.7 84.6153 46.7948C84.5204 46.8923 84.4467 47.0079 84.3985 47.1347C84.3503 47.2615 84.3287 47.3967 84.3351 47.532V50.7227L82.7188 50.7106Z" fill="#EAB749"></path><path d="M88.3594 45.2476H92.323V46.4279H88.3594V45.2476ZM91.5433 50.8071C91.0846 50.8219 90.6272 50.7508 90.195 50.5976C89.8649 50.466 89.5958 50.2177 89.4396 49.9006C89.2591 49.4869 89.1757 49.0378 89.196 48.5873V43.7529H90.6985V48.6316C90.6909 48.7388 90.7049 48.8464 90.7398 48.9481C90.7747 49.0498 90.8297 49.1435 90.9016 49.2238C90.9817 49.2954 91.0754 49.3504 91.1772 49.3857C91.279 49.421 91.3869 49.4358 91.4945 49.4293H92.3067V50.791L91.5433 50.8071Z" fill="#EAB749"></path><path d="M93.082 50.7111V45.2483H94.3735V47.6091H94.341C94.299 46.9702 94.475 46.3359 94.8405 45.8083C95.0141 45.5975 95.2358 45.4307 95.4871 45.3214C95.7384 45.2121 96.0123 45.1636 96.2862 45.1798H96.4974V46.5697H96.0913C95.9052 46.5578 95.7185 46.5826 95.5421 46.6428C95.3658 46.7029 95.2032 46.7972 95.0638 46.9202C94.9361 47.0562 94.838 47.217 94.7758 47.3924C94.7136 47.5678 94.6886 47.754 94.7024 47.9394V50.7273L93.082 50.7111Z" fill="#EAB749"></path><path d="M99.7462 50.9084C99.3067 50.9169 98.8697 50.8417 98.4588 50.6868C98.0987 50.5524 97.7699 50.3468 97.4923 50.0825C97.2358 49.8256 97.0341 49.5201 96.8994 49.1841C96.7642 48.8442 96.6953 48.482 96.6963 48.1166V47.8869C96.6961 47.5156 96.7678 47.1477 96.9075 46.8032C97.0476 46.4638 97.2547 46.1556 97.5166 45.8968C97.794 45.6322 98.121 45.4242 98.4791 45.2844C99.2968 44.9846 100.196 44.9846 101.013 45.2844C101.369 45.4233 101.694 45.6315 101.968 45.8968C102.227 46.1571 102.432 46.465 102.573 46.8032C102.712 47.1477 102.784 47.5156 102.784 47.8869V48.1166C102.785 48.482 102.716 48.8442 102.581 49.1841C102.45 49.5192 102.252 49.8247 102 50.0825C101.729 50.3507 101.405 50.5618 101.05 50.703C100.633 50.8581 100.191 50.9333 99.7462 50.9245V50.9084ZM99.7462 49.5669C100.023 49.5768 100.297 49.5069 100.534 49.3654C100.745 49.2293 100.91 49.0345 101.009 48.8054C101.119 48.551 101.173 48.2764 101.168 47.9997C101.175 47.7155 101.118 47.4333 101.001 47.1739C100.897 46.9456 100.729 46.7514 100.518 46.6139C100.284 46.4818 100.019 46.4123 99.7502 46.4123C99.4811 46.4123 99.2166 46.4818 98.9827 46.6139C98.7692 46.75 98.6 46.9445 98.4954 47.1739C98.3783 47.4333 98.3214 47.7155 98.3288 47.9997C98.3237 48.2764 98.3776 48.551 98.4872 48.8054C98.587 49.0366 98.7556 49.232 98.9705 49.3654C99.2047 49.504 99.4736 49.5738 99.7462 49.5669Z" fill="#EAB749"></path><path d="M103.036 43.415H105.31V44.5914H103.036V43.415ZM103.69 43.415H105.314V50.7109H103.69V43.415Z" fill="#EAB749"></path></svg>