<svg xmlns="http://www.w3.org/2000/svg" width="30" height="30" viewBox="0 0 30 30" fill="none"><circle cx="15" cy="15" r="15" fill="#FFB850"></circle><path d="M14.1803 8.49369C13.882 7.903 13.2586 7.42523 12.4929 7.50972C11.8078 7.58512 10.7908 7.83746 10.0974 8.66494C9.38561 9.51478 9.12018 10.8401 9.66673 12.8259C10.2504 14.9442 11.1171 17.0326 12.1945 18.7175C13.2639 20.3903 14.5812 21.7293 16.0923 22.2427C17.4287 22.6966 18.4507 22.5071 19.1961 22.0085C19.9152 21.5277 20.3099 20.8044 20.5142 20.3035C20.7429 19.7428 20.5922 19.1589 20.2939 18.7285L19.1935 17.1432C18.9504 16.793 18.6004 16.529 18.1949 16.3901C17.7893 16.2512 17.3495 16.2447 16.9399 16.3715L15.4192 16.8424C15.3712 16.8587 15.3193 16.8607 15.2702 16.8481C15.221 16.8355 15.1767 16.8089 15.1427 16.7716C14.4657 15.9861 13.7072 14.8908 13.5011 13.7822C13.4945 13.7526 13.499 13.7216 13.5137 13.695C13.7374 13.3226 14.1222 12.9005 14.5054 12.5311C15.1545 11.9052 15.4004 10.9102 14.9721 10.0623L14.1803 8.49369V8.49369Z" fill="white"></path></svg>